Rosario-Medium.ufo
<glyph name="exclam" format="2">
  <advance width="329.0"/>
  <unicode hex="0021"/>
  <note>
exclam
</note>
  <outline>
    <contour>
      <point x="104.89473684210526" y="728.7368421052631" type="line"/>
      <point x="133.89473684210526" y="217.3684210526316" type="line"/>
      <point x="198.60526315789474" y="217.3684210526316" type="line"/>
      <point x="227.60526315789474" y="728.7368421052631" type="line"/>
    </contour>
    <contour>
      <point x="234.31578947368422" y="54.6578947368421" type="curve" smooth="yes"/>
      <point x="234.31578947368422" y="91.57894736842105"/>
      <point x="203.57894736842104" y="122.13157894736842"/>
      <point x="166.6578947368421" y="122.13157894736842" type="curve" smooth="yes"/>
      <point x="129.10526315789474" y="122.13157894736842"/>
      <point x="99.1842105263158" y="92.21052631578948"/>
      <point x="99.1842105263158" y="54.6578947368421" type="curve" smooth="yes"/>
      <point x="99.1842105263158" y="17.736842105263158"/>
      <point x="129.92105263157896" y="-12.81578947368421"/>
      <point x="166.6578947368421" y="-12.81578947368421" type="curve" smooth="yes"/>
      <point x="203.57894736842104" y="-12.81578947368421"/>
      <point x="234.31578947368422" y="17.736842105263158"/>
    </contour>
  </outline>
</glyph>
<glyph name="quotedbl" format="2">
  <advance width="367.0"/>
  <unicode hex="0022"/>
  <note>
quotedbl
</note>
  <outline>
    <contour>
      <point x="96.73684210526316" y="442.4736842105263" type="curve"/>
      <point x="124.26315789473684" y="442.4736842105263" type="line"/>
      <point x="152.92105263157896" y="556.5526315789474" type="line"/>
      <point x="152.92105263157896" y="733.6315789473684" type="line"/>
      <point x="67.89473684210526" y="733.6315789473684" type="line"/>
      <point x="67.89473684210526" y="556.5526315789474" type="line" smooth="yes"/>
      <point x="67.89473684210526" y="554.7368421052631"/>
      <point x="94.73684210526316" y="451.2894736842105"/>
    </contour>
    <contour>
      <point x="242.73684210526315" y="442.4736842105263" type="line"/>
      <point x="270.44736842105266" y="442.4736842105263" type="line"/>
      <point x="299.92105263157896" y="556.5526315789474" type="line"/>
      <point x="299.92105263157896" y="733.6315789473684" type="line"/>
      <point x="214.07894736842104" y="733.6315789473684" type="line"/>
      <point x="214.07894736842104" y="556.5526315789474" type="line"/>
    </contour>
  </outline>
</glyph>
<glyph name="numbersign" format="2">
  <advance width="640.0"/>
  <unicode hex="0023"/>
  <note>
numbersign
</note>
  <outline>
    <contour>
      <point x="285.57894736842104" y="492.7894736842105" type="line"/>
      <point x="317.8421052631579" y="723.0263157894736" type="line"/>
      <point x="241.89473684210526" y="723.0263157894736" type="line"/>
      <point x="211.26315789473685" y="492.7894736842105" type="line"/>
      <point x="79.47368421052632" y="492.7894736842105" type="line"/>
      <point x="79.47368421052632" y="422.55263157894734" type="line"/>
      <point x="201.71052631578948" y="422.55263157894734" type="line"/>
      <point x="185.3421052631579" y="300.2631578947368" type="line"/>
      <point x="53.473684210526315" y="300.2631578947368" type="line"/>
      <point x="53.473684210526315" y="230.8421052631579" type="line"/>
      <point x="175.78947368421052" y="230.8421052631579" type="line"/>
      <point x="143.71052631578948" y="-4.078947368421053" type="line"/>
      <point x="217.21052631578948" y="-4.078947368421053" type="line"/>
      <point x="250.10526315789474" y="230.8421052631579" type="line"/>
      <point x="357.9736842105263" y="230.8421052631579" type="line"/>
      <point x="325.89473684210526" y="-4.078947368421053" type="line"/>
      <point x="400.2105263157895" y="-4.078947368421053" type="line"/>
      <point x="432.2894736842105" y="230.8421052631579" type="line"/>
      <point x="562.5263157894736" y="230.8421052631579" type="line"/>
      <point x="562.5263157894736" y="300.2631578947368" type="line"/>
      <point x="441.8421052631579" y="300.2631578947368" type="line"/>
      <point x="459.0263157894737" y="422.55263157894734" type="line"/>
      <point x="586.8947368421053" y="422.55263157894734" type="line"/>
      <point x="586.8947368421053" y="492.7894736842105" type="line"/>
      <point x="467.7631578947368" y="492.7894736842105" type="line"/>
      <point x="499.2105263157895" y="723.0263157894736" type="line"/>
      <point x="424.89473684210526" y="723.0263157894736" type="line"/>
      <point x="394.2631578947368" y="492.7894736842105" type="line"/>
    </contour>
    <contour>
      <point x="276.0263157894737" y="422.55263157894734" type="line"/>
      <point x="384.7105263157895" y="422.55263157894734" type="line"/>
      <point x="367.5263157894737" y="300.2631578947368" type="line"/>
      <point x="259.6578947368421" y="300.2631578947368" type="line"/>
    </contour>
  </outline>
</glyph>
<glyph name="dollar" format="2">
  <advance width="536.0"/>
  <unicode hex="0024"/>
  <note>
dollar
</note>
  <outline>
    <contour>
      <point x="475.94736842105266" y="644.0" type="line"/>
      <point x="415.94736842105266" y="681.1052631578947"/>
      <point x="349.6578947368421" y="698.6578947368421"/>
      <point x="287.36842105263156" y="698.6578947368421" type="curve" smooth="yes"/>
      <point x="166.3421052631579" y="698.6578947368421"/>
      <point x="62.578947368421055" y="631.1842105263158"/>
      <point x="62.578947368421055" y="505.60526315789474" type="curve" smooth="yes"/>
      <point x="62.578947368421055" y="387.55263157894734"/>
      <point x="156.89473684210526" y="351.8421052631579"/>
      <point x="241.81578947368422" y="318.8421052631579" type="curve" smooth="yes"/>
      <point x="315.2368421052632" y="290.13157894736844"/>
      <point x="383.55263157894734" y="265.6842105263158"/>
      <point x="383.55263157894734" y="185.92105263157896" type="curve" smooth="yes"/>
      <point x="383.55263157894734" y="105.94736842105263"/>
      <point x="321.7631578947368" y="65.42105263157895"/>
      <point x="246.1578947368421" y="65.42105263157895" type="curve" smooth="yes"/>
      <point x="191.78947368421052" y="65.42105263157895"/>
      <point x="130.05263157894737" y="86.34210526315789"/>
      <point x="79.86842105263158" y="130.07894736842104" type="curve"/>
      <point x="41.8421052631579" y="42.73684210526316" type="line"/>
      <point x="110.47368421052632" y="6.0"/>
      <point x="183.39473684210526" y="-11.552631578947368"/>
      <point x="250.31578947368422" y="-11.552631578947368" type="curve" smooth="yes"/>
      <point x="383.5263157894737" y="-11.552631578947368"/>
      <point x="492.0263157894737" y="59.921052631578945"/>
      <point x="492.0263157894737" y="201.1315789473684" type="curve" smooth="yes"/>
      <point x="492.0263157894737" y="342.86842105263156"/>
      <point x="374.57894736842104" y="378.13157894736844"/>
      <point x="282.7631578947368" y="413.7631578947368" type="curve" smooth="yes"/>
      <point x="221.5" y="437.39473684210526"/>
      <point x="171.05263157894737" y="460.0263157894737"/>
      <point x="171.05263157894737" y="517.4736842105264" type="curve" smooth="yes"/>
      <point x="171.05263157894737" y="589.1578947368421"/>
      <point x="220.94736842105263" y="623.5"/>
      <point x="284.92105263157896" y="623.5" type="curve" smooth="yes"/>
      <point x="329.7368421052632" y="623.5"/>
      <point x="380.55263157894734" y="607.1315789473684"/>
      <point x="425.7105263157895" y="573.5" type="curve"/>
    </contour>
    <contour>
      <point x="276.3157894736842" y="18.526315789473685" type="line"/>
      <point x="227.0" y="18.526315789473685" type="line"/>
      <point x="185.44736842105263" y="-136.1578947368421" type="line"/>
      <point x="261.13157894736844" y="-136.1578947368421" type="line"/>
    </contour>
    <contour>
      <point x="256.9736842105263" y="669.1052631578947" type="line"/>
      <point x="308.6578947368421" y="669.1052631578947" type="line"/>
      <point x="348.4736842105263" y="816.0526315789474" type="line"/>
      <point x="270.7894736842105" y="816.0526315789474" type="line"/>
    </contour>
  </outline>
</glyph>
<glyph name="ampersand" format="2">
  <advance width="661.0"/>
  <unicode hex="0026"/>
  <note>
ampersand
</note>
  <outline>
    <contour>
      <point x="593.3421052631579" y="325.3421052631579" type="curve"/>
      <point x="512.8684210526316" y="340.8157894736842" type="line"/>
      <point x="480.2368421052632" y="151.6578947368421"/>
      <point x="364.2105263157895" y="57.578947368421055"/>
      <point x="254.89473684210526" y="57.578947368421055" type="curve" smooth="yes"/>
      <point x="168.76315789473685" y="57.578947368421055"/>
      <point x="123.84210526315789" y="128.18421052631578"/>
      <point x="123.84210526315789" y="200.73684210526315" type="curve" smooth="yes"/>
      <point x="123.84210526315789" y="276.3421052631579"/>
      <point x="164.55263157894737" y="328.42105263157896"/>
      <point x="234.42105263157896" y="352.2368421052632" type="curve"/>
      <point x="209.3421052631579" y="415.63157894736844" type="line"/>
      <point x="85.0" y="367.2894736842105"/>
      <point x="24.86842105263158" y="280.6578947368421"/>
      <point x="24.86842105263158" y="184.81578947368422" type="curve" smooth="yes"/>
      <point x="24.86842105263158" y="81.78947368421052"/>
      <point x="98.1842105263158" y="-9.0"/>
      <point x="237.52631578947367" y="-9.0" type="curve" smooth="yes"/>
      <point x="410.2368421052632" y="-9.0"/>
      <point x="530.5263157894736" y="103.92105263157895"/>
    </contour>
    <contour>
      <point x="673.2368421052631" y="-2.1842105263157894" type="curve"/>
      <point x="662.421052631579" y="71.76315789473684" type="line"/>
      <point x="643.5" y="68.21052631578948"/>
      <point x="624.7631578947369" y="66.02631578947368"/>
      <point x="606.3947368421053" y="66.02631578947368" type="curve" smooth="yes"/>
      <point x="550.578947368421" y="66.02631578947368"/>
      <point x="496.86842105263156" y="83.57894736842105"/>
      <point x="445.9736842105263" y="118.76315789473684" type="curve" smooth="yes"/>
      <point x="328.8157894736842" y="199.31578947368422"/>
      <point x="231.3684210526316" y="367.5"/>
      <point x="231.3684210526316" y="539.2105263157895" type="curve" smooth="yes"/>
      <point x="231.3684210526316" y="626.3421052631579"/>
      <point x="253.44736842105263" y="672.1578947368421"/>
      <point x="298.1578947368421" y="672.1578947368421" type="curve" smooth="yes"/>
      <point x="330.86842105263156" y="672.1578947368421"/>
      <point x="345.5" y="646.078947368421"/>
      <point x="345.5" y="602.2894736842105" type="curve" smooth="yes"/>
      <point x="345.5" y="541.2105263157895"/>
      <point x="309.60526315789474" y="454.07894736842104"/>
      <point x="217.3421052631579" y="417.1842105263158" type="curve"/>
      <point x="237.97368421052633" y="354.05263157894734" type="line"/>
      <point x="374.13157894736844" y="412.2105263157895"/>
      <point x="437.44736842105266" y="519.7105263157895"/>
      <point x="437.44736842105266" y="609.0263157894736" type="curve" smooth="yes"/>
      <point x="437.44736842105266" y="687.921052631579"/>
      <point x="386.7105263157895" y="738.921052631579"/>
      <point x="304.1578947368421" y="738.921052631579" type="curve" smooth="yes"/>
      <point x="193.76315789473685" y="738.921052631579"/>
      <point x="134.57894736842104" y="647.6315789473684"/>
      <point x="134.57894736842104" y="523.2894736842105" type="curve" smooth="yes"/>
      <point x="134.57894736842104" y="341.89473684210526"/>
      <point x="241.31578947368422" y="154.71052631578948"/>
      <point x="374.3157894736842" y="58.63157894736842" type="curve" smooth="yes"/>
      <point x="435.86842105263156" y="14.447368421052632"/>
      <point x="511.5" y="-8.368421052631579"/>
      <point x="601.6578947368421" y="-8.368421052631579" type="curve" smooth="yes"/>
      <point x="624.3947368421053" y="-8.368421052631579"/>
      <point x="648.1315789473684" y="-6.368421052631579"/>
    </contour>
  </outline>
</glyph>
<glyph name="quotesingle" format="2">
  <advance width="226.0"/>
  <unicode hex="0027"/>
  <note>
quotesingle
</note>
  <outline>
    <contour>
      <point x="98.36842105263158" y="445.7368421052632" type="curve"/>
      <point x="125.89473684210526" y="445.7368421052632" type="line"/>
      <point x="155.3684210526316" y="559.8157894736842" type="line"/>
      <point x="155.3684210526316" y="736.8947368421053" type="line"/>
      <point x="69.52631578947368" y="736.8947368421053" type="line"/>
      <point x="69.52631578947368" y="559.8157894736842" type="line" smooth="yes"/>
      <point x="69.52631578947368" y="558.0"/>
      <point x="96.36842105263158" y="454.55263157894734"/>
    </contour>
  </outline>
</glyph>
<glyph name="parenleft" format="2">
  <advance width="306.0"/>
  <unicode hex="0028"/>
  <note>
parenleft
</note>
  <outline>
    <contour>
      <point x="219.47368421052633" y="-139.47368421052633" type="curve"/>
      <point x="291.63157894736844" y="-129.18421052631578" type="line"/>
      <point x="186.1578947368421" y="-0.26315789473684215"/>
      <point x="136.23684210526315" y="135.60526315789474"/>
      <point x="136.23684210526315" y="301.2631578947368" type="curve" smooth="yes"/>
      <point x="136.23684210526315" y="466.92105263157896"/>
      <point x="186.1578947368421" y="602.7894736842105"/>
      <point x="291.63157894736844" y="731.8947368421053" type="curve"/>
      <point x="219.47368421052633" y="743.0" type="line"/>
      <point x="111.55263157894737" y="619.8157894736842"/>
      <point x="42.3421052631579" y="466.36842105263156"/>
      <point x="42.3421052631579" y="301.2631578947368" type="curve" smooth="yes"/>
      <point x="42.3421052631579" y="136.1578947368421"/>
      <point x="112.36842105263158" y="-16.289473684210527"/>
    </contour>
  </outline>
</glyph>
<glyph name="parenright" format="2">
  <advance width="306.0"/>
  <unicode hex="0029"/>
  <note>
parenright
</note>
  <outline>
    <contour>
      <point x="268.63157894736844" y="301.2631578947368" type="curve" smooth="yes"/>
      <point x="268.63157894736844" y="466.36842105263156"/>
      <point x="199.42105263157896" y="619.8157894736842"/>
      <point x="91.5" y="743.0" type="curve"/>
      <point x="19.342105263157894" y="731.8947368421053" type="line"/>
      <point x="124.0" y="602.7894736842105"/>
      <point x="175.55263157894737" y="467.7368421052632"/>
      <point x="175.55263157894737" y="301.2631578947368" type="curve" smooth="yes"/>
      <point x="175.55263157894737" y="134.78947368421052"/>
      <point x="124.0" y="-0.26315789473684215"/>
      <point x="19.342105263157894" y="-129.18421052631578" type="curve"/>
      <point x="91.5" y="-139.47368421052633" type="line"/>
      <point x="198.60526315789474" y="-16.289473684210527"/>
      <point x="268.63157894736844" y="136.1578947368421"/>
    </contour>
  </outline>
</glyph>
<glyph name="asterisk" format="2">
  <advance width="510.0"/>
  <unicode hex="002A"/>
  <note>
asterisk
</note>
  <outline>
    <contour>
      <point x="209.23684210526315" y="732.8421052631579" type="line"/>
      <point x="230.89473684210526" y="589.8947368421053" type="line"/>
      <point x="275.0263157894737" y="589.8947368421053" type="line"/>
      <point x="293.3157894736842" y="732.8421052631579" type="line"/>
    </contour>
    <contour>
      <point x="286.44736842105266" y="583.3684210526316" type="line"/>
      <point x="300.36842105263156" y="538.6052631578947" type="line"/>
      <point x="440.86842105263156" y="566.6052631578947" type="line"/>
      <point x="409.6578947368421" y="650.1315789473684" type="line"/>
    </contour>
    <contour>
      <point x="91.71052631578948" y="645.9473684210526" type="line"/>
      <point x="69.05263157894737" y="564.2368421052631" type="line"/>
      <point x="208.0" y="543.2368421052631" type="line"/>
      <point x="221.92105263157896" y="582.5526315789474" type="line"/>
    </contour>
    <contour>
      <point x="211.26315789473685" y="530.1842105263158" type="line"/>
      <point x="113.3157894736842" y="424.7105263157895" type="line"/>
      <point x="179.28947368421052" y="376.39473684210526" type="line"/>
      <point x="247.6578947368421" y="501.5263157894737" type="line"/>
    </contour>
    <contour>
      <point x="259.89473684210526" y="501.5263157894737" type="line"/>
      <point x="328.44736842105266" y="374.0263157894737" type="line"/>
      <point x="396.2368421052632" y="426.2631578947368" type="line"/>
      <point x="295.4736842105263" y="526.3684210526316" type="line"/>
    </contour>
  </outline>
</glyph>
<glyph name="plus" format="2">
  <advance width="642.0"/>
  <unicode hex="002B"/>
  <note>
plus
</note>
  <outline>
    <contour>
      <point x="353.4736842105263" y="0.0" type="line"/>
      <point x="353.4736842105263" y="213.1578947368421" type="line"/>
      <point x="566.6315789473684" y="213.1578947368421" type="line"/>
      <point x="566.6315789473684" y="284.8421052631579" type="line"/>
      <point x="353.4736842105263" y="284.8421052631579" type="line"/>
      <point x="353.4736842105263" y="497.0" type="line"/>
      <point x="280.1578947368421" y="497.0" type="line"/>
      <point x="280.1578947368421" y="284.6578947368421" type="line"/>
      <point x="67.8157894736842" y="284.6578947368421" type="line"/>
      <point x="67.8157894736842" y="212.97368421052633" type="line"/>
      <point x="280.1578947368421" y="212.97368421052633" type="line"/>
      <point x="280.1578947368421" y="0.0" type="line"/>
    </contour>
  </outline>
</glyph>
<glyph name="comma" format="2">
  <advance width="235.0"/>
  <unicode hex="002C"/>
  <note>
comma
</note>
  <outline>
    <contour>
      <point x="106.89473684210526" y="126.76315789473684" type="curve" smooth="yes"/>
      <point x="71.97368421052632" y="126.76315789473684"/>
      <point x="43.60526315789474" y="99.65789473684211"/>
      <point x="43.60526315789474" y="64.92105263157895" type="curve" smooth="yes"/>
      <point x="43.60526315789474" y="14.0"/>
      <point x="93.23684210526316" y="5.0"/>
      <point x="93.23684210526316" y="-21.63157894736842" type="curve" smooth="yes"/>
      <point x="93.23684210526316" y="-46.71052631578947"/>
      <point x="61.60526315789474" y="-75.55263157894737"/>
      <point x="44.78947368421053" y="-93.0" type="curve"/>
      <point x="55.1578947368421" y="-104.55263157894737"/>
      <point x="68.34210526315789" y="-117.73684210526316"/>
      <point x="79.71052631578948" y="-128.28947368421052" type="curve"/>
      <point x="134.44736842105263" y="-88.73684210526316"/>
      <point x="183.0" y="-29.81578947368421"/>
      <point x="183.0" y="40.28947368421053" type="curve" smooth="yes"/>
      <point x="183.0" y="85.84210526315789"/>
      <point x="155.6315789473684" y="126.76315789473684"/>
    </contour>
  </outline>
</glyph>
<glyph name="hyphen" format="2">
  <advance width="313.0"/>
  <unicode hex="002D"/>
  <note>
hyphen
</note>
  <outline>
    <contour>
      <point x="42.473684210526315" y="300.10526315789474" type="line"/>
      <point x="42.473684210526315" y="221.42105263157896" type="line"/>
      <point x="271.63157894736844" y="221.42105263157896" type="line"/>
      <point x="271.63157894736844" y="300.10526315789474" type="line"/>
    </contour>
  </outline>
</glyph>
<glyph name="period" format="2">
  <advance width="228.0"/>
  <unicode hex="002E"/>
  <note>
period
</note>
  <outline>
    <contour>
      <point x="175.6578947368421" y="57.6578947368421" type="curve" smooth="yes"/>
      <point x="175.6578947368421" y="94.94736842105263"/>
      <point x="144.92105263157896" y="125.86842105263158"/>
      <point x="107.63157894736842" y="125.86842105263158" type="curve" smooth="yes"/>
      <point x="69.52631578947368" y="125.86842105263158"/>
      <point x="39.60526315789474" y="95.76315789473684"/>
      <point x="39.60526315789474" y="57.6578947368421" type="curve" smooth="yes"/>
      <point x="39.60526315789474" y="20.55263157894737"/>
      <point x="70.34210526315789" y="-10.368421052631579"/>
      <point x="107.63157894736842" y="-10.368421052631579" type="curve" smooth="yes"/>
      <point x="144.92105263157896" y="-10.368421052631579"/>
      <point x="175.6578947368421" y="20.55263157894737"/>
    </contour>
  </outline>
</glyph>
<glyph name="slash" format="2">
  <advance width="326.0"/>
  <unicode hex="002F"/>
  <note>
slash
</note>
  <outline>
    <contour>
      <point x="261.60526315789474" y="727.921052631579" type="line"/>
      <point x="-7.394736842105263" y="-7.342105263157895" type="line"/>
      <point x="66.02631578947368" y="-7.342105263157895" type="line"/>
      <point x="333.57894736842104" y="727.921052631579" type="line"/>
    </contour>
  </outline>
</glyph>
<glyph name="zero" format="2">
  <advance width="577.0526315789474"/>
  <unicode hex="0030"/>
  <note>
zero
</note>
  <outline>
    <contour>
      <point x="294.3421052631579" y="509.1842105263158" type="curve" smooth="yes"/>
      <point x="138.1578947368421" y="509.1842105263158"/>
      <point x="45.86842105263158" y="398.6578947368421"/>
      <point x="45.86842105263158" y="248.18421052631578" type="curve" smooth="yes"/>
      <point x="45.86842105263158" y="99.26315789473684"/>
      <point x="128.07894736842104" y="-12.81578947368421"/>
      <point x="282.7105263157895" y="-12.81578947368421" type="curve" smooth="yes"/>
      <point x="437.3421052631579" y="-12.81578947368421"/>
      <point x="531.1842105263158" y="99.26315789473684"/>
      <point x="531.1842105263158" y="248.18421052631578" type="curve" smooth="yes"/>
      <point x="531.1842105263158" y="397.6578947368421"/>
      <point x="449.5263157894737" y="509.1842105263158"/>
    </contour>
    <contour>
      <point x="288.5263157894737" y="442.86842105263156" type="curve" smooth="yes"/>
      <point x="401.8421052631579" y="442.86842105263156"/>
      <point x="432.63157894736844" y="343.3157894736842"/>
      <point x="432.63157894736844" y="248.18421052631578" type="curve" smooth="yes"/>
      <point x="432.63157894736844" y="152.5"/>
      <point x="402.7631578947368" y="53.5"/>
      <point x="288.5263157894737" y="53.5" type="curve" smooth="yes"/>
      <point x="175.28947368421052" y="53.5"/>
      <point x="143.42105263157896" y="152.5"/>
      <point x="143.42105263157896" y="248.18421052631578" type="curve" smooth="yes"/>
      <point x="143.42105263157896" y="342.3157894736842"/>
      <point x="177.21052631578948" y="442.86842105263156"/>
    </contour>
  </outline>
</glyph>
<glyph name="one" format="2">
  <advance width="387.36842105263156"/>
  <unicode hex="0031"/>
  <note>
one
</note>
  <outline>
    <contour>
      <point x="46.26315789473684" y="72.89473684210526" type="line"/>
      <point x="46.26315789473684" y="-0.8157894736842105" type="line"/>
      <point x="363.13157894736844" y="-0.8157894736842105" type="line"/>
      <point x="363.13157894736844" y="72.89473684210526" type="line"/>
      <point x="251.78947368421052" y="72.89473684210526" type="line"/>
      <point x="251.78947368421052" y="497.1842105263158" type="line"/>
      <point x="196.6315789473684" y="497.1842105263158" type="line"/>
      <point x="25.263157894736842" y="413.8157894736842" type="line"/>
      <point x="43.81578947368421" y="363.6842105263158" type="line"/>
      <point x="161.78947368421052" y="399.2105263157895" type="line"/>
      <point x="161.78947368421052" y="72.89473684210526" type="line"/>
    </contour>
  </outline>
</glyph>
<glyph name="two" format="2">
  <advance width="466.7368421052632"/>
  <unicode hex="0032"/>
  <note>
two
</note>
  <guideline x="482.6578947368421" y="441.39473684210526" angle="0.0"/>
  <outline>
    <contour>
      <point x="249.28947368421052" y="509.55263157894734" type="curve" smooth="yes"/>
      <point x="180.18421052631578" y="509.55263157894734"/>
      <point x="113.94736842105263" y="488.2631578947368"/>
      <point x="46.68421052631579" y="434.55263157894734" type="curve"/>
      <point x="94.44736842105263" y="376.2105263157895" type="line"/>
      <point x="136.42105263157896" y="414.92105263157896"/>
      <point x="193.1578947368421" y="440.8421052631579"/>
      <point x="236.71052631578948" y="440.8421052631579" type="curve" smooth="yes"/>
      <point x="274.7894736842105" y="440.8421052631579"/>
      <point x="303.05263157894734" y="420.7631578947368"/>
      <point x="303.05263157894734" y="371.05263157894734" type="curve" smooth="yes"/>
      <point x="303.05263157894734" y="289.7368421052632"/>
      <point x="232.21052631578948" y="199.94736842105263"/>
      <point x="30.44736842105263" y="60.68421052631579" type="curve"/>
      <point x="30.44736842105263" y="-0.8157894736842105" type="line"/>
      <point x="409.2368421052632" y="-0.8157894736842105" type="line"/>
      <point x="429.42105263157896" y="73.71052631578948" type="line"/>
      <point x="161.44736842105263" y="73.71052631578948" type="line"/>
      <point x="298.2631578947368" y="170.6315789473684"/>
      <point x="404.86842105263156" y="265.2631578947368"/>
      <point x="404.86842105263156" y="383.1578947368421" type="curve" smooth="yes"/>
      <point x="404.86842105263156" y="471.63157894736844"/>
      <point x="332.3157894736842" y="509.55263157894734"/>
    </contour>
  </outline>
</glyph>
<glyph name="three" format="2">
  <advance width="403.86842105263156"/>
  <unicode hex="0033"/>
  <note>
three
</note>
  <outline>
    <contour>
      <point x="216.23684210526315" y="510.36842105263156" type="curve" smooth="yes"/>
      <point x="152.1315789473684" y="510.36842105263156"/>
      <point x="78.28947368421052" y="485.36842105263156"/>
      <point x="21.44736842105263" y="438.63157894736844" type="curve"/>
      <point x="68.39473684210526" y="377.0263157894737" type="line"/>
      <point x="99.57894736842105" y="414.0263157894737"/>
      <point x="157.57894736842104" y="441.0263157894737"/>
      <point x="201.47368421052633" y="441.0263157894737" type="curve" smooth="yes"/>
      <point x="240.89473684210526" y="441.0263157894737"/>
      <point x="259.3421052631579" y="420.3157894736842"/>
      <point x="259.3421052631579" y="388.5" type="curve" smooth="yes"/>
      <point x="259.3421052631579" y="319.1842105263158"/>
      <point x="179.60526315789474" y="231.68421052631578"/>
      <point x="77.44736842105263" y="190.44736842105263" type="curve"/>
      <point x="101.73684210526316" y="140.60526315789474" type="line"/>
      <point x="123.36842105263158" y="147.78947368421052"/>
      <point x="145.18421052631578" y="151.78947368421052"/>
      <point x="164.18421052631578" y="151.78947368421052" type="curve" smooth="yes"/>
      <point x="219.44736842105263" y="151.78947368421052"/>
      <point x="261.63157894736844" y="120.52631578947368"/>
      <point x="261.63157894736844" y="54.36842105263158" type="curve" smooth="yes"/>
      <point x="261.63157894736844" y="-91.28947368421052"/>
      <point x="95.26315789473684" y="-141.8684210526316"/>
      <point x="-52.421052631578945" y="-149.60526315789474" type="curve"/>
      <point x="-47.421052631578945" y="-196.3684210526316" type="line"/>
      <point x="129.39473684210526" y="-200.44736842105263"/>
      <point x="364.2631578947368" y="-135.3421052631579"/>
      <point x="364.2631578947368" y="59.18421052631579" type="curve" smooth="yes"/>
      <point x="364.2631578947368" y="156.0"/>
      <point x="285.13157894736844" y="199.81578947368422"/>
      <point x="213.31578947368422" y="202.26315789473685" type="curve"/>
      <point x="305.2894736842105" y="255.78947368421052"/>
      <point x="356.7894736842105" y="323.63157894736844"/>
      <point x="356.7894736842105" y="400.36842105263156" type="curve" smooth="yes"/>
      <point x="356.7894736842105" y="467.57894736842104"/>
      <point x="307.2105263157895" y="510.36842105263156"/>
    </contour>
  </outline>
</glyph>
<glyph name="four" format="2">
  <advance width="465.2894736842105"/>
  <unicode hex="0034"/>
  <note>
four
</note>
  <outline>
    <contour>
      <point x="252.8684210526316" y="498.0" type="line"/>
      <point x="-5.7894736842105265" y="43.13157894736842" type="line"/>
      <point x="-5.7894736842105265" y="-0.18421052631578946" type="line"/>
      <point x="266.2105263157895" y="-0.18421052631578946" type="line"/>
      <point x="266.2105263157895" y="-184.81578947368422" type="line"/>
      <point x="356.94736842105266" y="-184.81578947368422" type="line"/>
      <point x="356.94736842105266" y="-0.18421052631578946" type="line"/>
      <point x="439.2105263157895" y="-0.18421052631578946" type="line"/>
      <point x="459.05263157894734" y="74.52631578947368" type="line"/>
      <point x="356.94736842105266" y="74.52631578947368" type="line"/>
      <point x="356.94736842105266" y="498.0" type="line"/>
    </contour>
    <contour>
      <point x="266.2105263157895" y="389.7894736842105" type="line"/>
      <point x="266.2105263157895" y="74.52631578947368" type="line"/>
      <point x="91.92105263157895" y="74.52631578947368" type="line"/>
    </contour>
  </outline>
</glyph>
<glyph name="five" format="2">
  <advance width="371.92105263157896"/>
  <unicode hex="0035"/>
  <note>
five
</note>
  <guideline x="284.5263157894737" y="283.6842105263158" angle="90.0"/>
  <guideline x="230.52631578947367" y="283.6842105263158" angle="90.0"/>
  <outline>
    <contour>
      <point x="118.57894736842105" y="497.1842105263158" type="line"/>
      <point x="23.026315789473685" y="269.6842105263158" type="line"/>
      <point x="127.10526315789474" y="233.1578947368421"/>
      <point x="206.21052631578948" y="163.55263157894737"/>
      <point x="206.21052631578948" y="70.47368421052632" type="curve" smooth="yes"/>
      <point x="206.21052631578948" y="-66.76315789473685"/>
      <point x="118.97368421052632" y="-127.97368421052632"/>
      <point x="-16.894736842105264" y="-162.23684210526315" type="curve"/>
      <point x="-3.3421052631578947" y="-208.6315789473684" type="line"/>
      <point x="161.57894736842104" y="-184.55263157894737"/>
      <point x="308.8421052631579" y="-86.63157894736842"/>
      <point x="308.8421052631579" y="77.39473684210526" type="curve" smooth="yes"/>
      <point x="308.8421052631579" y="186.6578947368421"/>
      <point x="230.55263157894737" y="258.36842105263156"/>
      <point x="114.63157894736842" y="304.89473684210526" type="curve"/>
      <point x="155.97368421052633" y="405.55263157894734" type="line"/>
      <point x="346.10526315789474" y="405.55263157894734" type="line"/>
      <point x="372.13157894736844" y="497.1842105263158" type="line"/>
    </contour>
  </outline>
</glyph>
<glyph name="six" format="2">
  <advance width="531.5263157894736"/>
  <unicode hex="0036"/>
  <note>
six
</note>
  <guideline x="465.86842105263156" y="528.421052631579" angle="90.0"/>
  <guideline x="411.86842105263156" y="528.421052631579" angle="90.0"/>
  <guideline x="120.47368421052632" y="528.421052631579" angle="90.0"/>
  <guideline x="66.47368421052632" y="528.421052631579" angle="90.0"/>
  <outline>
    <contour>
      <point x="448.60526315789474" y="731.6315789473684" type="line"/>
      <point x="240.6578947368421" y="665.1052631578947"/>
      <point x="42.1578947368421" y="472.8157894736842"/>
      <point x="42.1578947368421" y="236.28947368421052" type="curve" smooth="yes"/>
      <point x="42.1578947368421" y="66.36842105263158"/>
      <point x="147.44736842105263" y="-12.81578947368421"/>
      <point x="261.2105263157895" y="-12.81578947368421" type="curve" smooth="yes"/>
      <point x="411.5263157894737" y="-12.81578947368421"/>
      <point x="490.1842105263158" y="105.65789473684211"/>
      <point x="490.1842105263158" y="216.76315789473685" type="curve" smooth="yes"/>
      <point x="490.1842105263158" y="315.13157894736844"/>
      <point x="427.8157894736842" y="407.94736842105266"/>
      <point x="298.5263157894737" y="407.94736842105266" type="curve" smooth="yes"/>
      <point x="248.44736842105263" y="407.94736842105266"/>
      <point x="192.92105263157896" y="390.05263157894734"/>
      <point x="148.18421052631578" y="352.2631578947368" type="curve"/>
      <point x="135.6315789473684" y="284.57894736842104" type="line"/>
      <point x="181.3421052631579" y="319.7368421052632"/>
      <point x="229.5" y="336.8157894736842"/>
      <point x="271.8421052631579" y="336.8157894736842" type="curve" smooth="yes"/>
      <point x="350.2894736842105" y="336.8157894736842"/>
      <point x="387.55263157894734" y="270.2894736842105"/>
      <point x="387.55263157894734" y="201.76315789473685" type="curve" smooth="yes"/>
      <point x="387.55263157894734" y="128.5"/>
      <point x="346.10526315789474" y="53.868421052631575"/>
      <point x="268.4736842105263" y="53.868421052631575" type="curve" smooth="yes"/>
      <point x="193.42105263157896" y="53.868421052631575"/>
      <point x="144.78947368421052" y="130.3421052631579"/>
      <point x="144.78947368421052" y="238.07894736842104" type="curve" smooth="yes"/>
      <point x="144.78947368421052" y="384.9736842105263"/>
      <point x="234.97368421052633" y="581.5526315789474"/>
      <point x="470.89473684210526" y="681.3157894736842" type="curve"/>
    </contour>
  </outline>
</glyph>
<glyph name="seven" format="2">
  <advance width="428.6842105263158"/>
  <unicode hex="0037"/>
  <note>
seven
</note>
  <outline>
    <contour>
      <point x="35.18421052631579" y="497.0" type="line"/>
      <point x="12.973684210526315" y="415.36842105263156" type="line"/>
      <point x="322.89473684210526" y="415.36842105263156" type="line"/>
      <point x="22.605263157894736" y="-185.73684210526315" type="line"/>
      <point x="131.78947368421052" y="-185.73684210526315" type="line"/>
      <point x="411.07894736842104" y="451.13157894736844" type="line"/>
      <point x="411.07894736842104" y="497.0" type="line"/>
    </contour>
  </outline>
</glyph>
<glyph name="eight" format="2">
  <advance width="491.44736842105266"/>
  <unicode hex="0038"/>
  <note>
eight
</note>
  <guideline x="423.8157894736842" y="528.421052631579" angle="90.0"/>
  <guideline x="369.8157894736842" y="527.3157894736842" angle="90.0"/>
  <guideline x="142.6315789473684" y="527.3157894736842" angle="90.0"/>
  <guideline x="88.63157894736842" y="527.3157894736842" angle="90.0"/>
  <outline>
    <contour>
      <point x="254.44736842105263" y="729.5526315789474" type="curve" smooth="yes"/>
      <point x="161.97368421052633" y="729.5526315789474"/>
      <point x="66.5" y="663.2105263157895"/>
      <point x="66.5" y="549.1842105263158" type="curve" smooth="yes"/>
      <point x="66.5" y="450.55263157894734"/>
      <point x="128.8684210526316" y="394.89473684210526"/>
      <point x="195.23684210526315" y="345.7105263157895" type="curve" smooth="yes"/>
      <point x="267.2368421052632" y="291.89473684210526"/>
      <point x="345.5" y="253.26315789473685"/>
      <point x="345.5" y="172.73684210526315" type="curve" smooth="yes"/>
      <point x="345.5" y="93.13157894736842"/>
      <point x="291.3421052631579" y="52.5"/>
      <point x="236.71052631578948" y="52.5" type="curve" smooth="yes"/>
      <point x="182.44736842105263" y="52.5"/>
      <point x="130.6578947368421" y="91.76315789473684"/>
      <point x="130.6578947368421" y="168.6578947368421" type="curve" smooth="yes"/>
      <point x="130.6578947368421" y="221.28947368421052"/>
      <point x="145.78947368421052" y="280.8157894736842"/>
      <point x="233.07894736842104" y="336.8421052631579" type="curve"/>
      <point x="189.39473684210526" y="379.5263157894737" type="line"/>
      <point x="94.65789473684211" y="319.0"/>
      <point x="43.31578947368421" y="253.97368421052633"/>
      <point x="43.31578947368421" y="165.6578947368421" type="curve" smooth="yes"/>
      <point x="43.31578947368421" y="49.36842105263158"/>
      <point x="137.71052631578948" y="-10.368421052631579"/>
      <point x="237.55263157894737" y="-11.18421052631579" type="curve" smooth="yes"/>
      <point x="342.39473684210526" y="-12.0"/>
      <point x="448.13157894736844" y="52.81578947368421"/>
      <point x="448.13157894736844" y="182.55263157894737" type="curve" smooth="yes"/>
      <point x="448.13157894736844" y="302.39473684210526"/>
      <point x="357.2105263157895" y="358.57894736842104"/>
      <point x="280.4736842105263" y="411.6842105263158" type="curve" smooth="yes"/>
      <point x="219.57894736842104" y="454.13157894736844"/>
      <point x="165.31578947368422" y="487.39473684210526"/>
      <point x="165.31578947368422" y="559.5526315789474" type="curve" smooth="yes"/>
      <point x="165.31578947368422" y="631.2368421052631"/>
      <point x="209.73684210526315" y="667.6842105263158"/>
      <point x="255.18421052631578" y="667.6842105263158" type="curve" smooth="yes"/>
      <point x="298.63157894736844" y="667.6842105263158"/>
      <point x="339.6842105263158" y="633.9736842105264"/>
      <point x="339.6842105263158" y="566.1842105263158" type="curve" smooth="yes"/>
      <point x="339.6842105263158" y="514.4736842105264"/>
      <point x="309.7894736842105" y="458.13157894736844"/>
      <point x="251.55263157894737" y="422.3421052631579" type="curve"/>
      <point x="300.13157894736844" y="380.2105263157895" type="line"/>
      <point x="382.7631578947368" y="433.39473684210526"/>
      <point x="422.7631578947368" y="504.6578947368421"/>
      <point x="422.7631578947368" y="572.1052631578947" type="curve" smooth="yes"/>
      <point x="422.7631578947368" y="678.3684210526316"/>
      <point x="340.10526315789474" y="729.5526315789474"/>
    </contour>
  </outline>
</glyph>
<glyph name="nine" format="2">
  <advance width="529.8947368421053"/>
  <unicode hex="0039"/>
  <note>
nine
</note>
  <outline>
    <contour>
      <point x="268.6842105263158" y="509.36842105263156" type="curve" smooth="yes"/>
      <point x="118.36842105263158" y="509.36842105263156"/>
      <point x="39.71052631578947" y="390.89473684210526"/>
      <point x="39.71052631578947" y="279.7894736842105" type="curve" smooth="yes"/>
      <point x="39.71052631578947" y="181.42105263157896"/>
      <point x="102.07894736842105" y="88.60526315789474"/>
      <point x="231.3684210526316" y="88.60526315789474" type="curve" smooth="yes"/>
      <point x="281.44736842105266" y="88.60526315789474"/>
      <point x="336.9736842105263" y="106.5"/>
      <point x="381.7105263157895" y="144.28947368421052" type="curve"/>
      <point x="394.2631578947368" y="211.97368421052633" type="line"/>
      <point x="348.55263157894734" y="176.81578947368422"/>
      <point x="300.39473684210526" y="159.73684210526315"/>
      <point x="258.05263157894734" y="159.73684210526315" type="curve" smooth="yes"/>
      <point x="179.60526315789474" y="159.73684210526315"/>
      <point x="142.3421052631579" y="226.26315789473685"/>
      <point x="142.3421052631579" y="294.7894736842105" type="curve" smooth="yes"/>
      <point x="142.3421052631579" y="368.05263157894734"/>
      <point x="183.78947368421052" y="442.6842105263158"/>
      <point x="261.42105263157896" y="442.6842105263158" type="curve" smooth="yes"/>
      <point x="336.4736842105263" y="442.6842105263158"/>
      <point x="385.10526315789474" y="366.2105263157895"/>
      <point x="385.10526315789474" y="258.4736842105263" type="curve" smooth="yes"/>
      <point x="385.10526315789474" y="111.57894736842105"/>
      <point x="294.92105263157896" y="-68.6842105263158"/>
      <point x="59.0" y="-164.76315789473685" type="curve"/>
      <point x="81.28947368421052" y="-215.07894736842104" type="line"/>
      <point x="289.2368421052632" y="-152.23684210526315"/>
      <point x="487.7368421052632" y="23.736842105263158"/>
      <point x="487.7368421052632" y="260.2631578947368" type="curve" smooth="yes"/>
      <point x="487.7368421052632" y="430.1842105263158"/>
      <point x="382.44736842105266" y="509.36842105263156"/>
    </contour>
  </outline>
</glyph>
<glyph name="colon" format="2">
  <advance width="331.0"/>
  <unicode hex="003A"/>
  <note>
colon
</note>
  <outline>
    <contour>
      <point x="230.76315789473685" y="365.42105263157896" type="curve" smooth="yes"/>
      <point x="230.76315789473685" y="402.5263157894737"/>
      <point x="199.8421052631579" y="433.44736842105266"/>
      <point x="162.55263157894737" y="433.44736842105266" type="curve" smooth="yes"/>
      <point x="125.44736842105263" y="433.44736842105266"/>
      <point x="94.52631578947368" y="402.5263157894737"/>
      <point x="94.52631578947368" y="365.42105263157896" type="curve" smooth="yes"/>
      <point x="94.52631578947368" y="328.13157894736844"/>
      <point x="125.44736842105263" y="297.2105263157895"/>
      <point x="162.73684210526315" y="297.2105263157895" type="curve" smooth="yes"/>
      <point x="199.8421052631579" y="297.2105263157895"/>
      <point x="230.76315789473685" y="328.13157894736844"/>
    </contour>
    <contour>
      <point x="230.76315789473685" y="55.21052631578947" type="curve" smooth="yes"/>
      <point x="230.76315789473685" y="92.5"/>
      <point x="199.8421052631579" y="123.42105263157895"/>
      <point x="162.55263157894737" y="123.42105263157895" type="curve" smooth="yes"/>
      <point x="125.44736842105263" y="123.42105263157895"/>
      <point x="94.52631578947368" y="92.5"/>
      <point x="94.52631578947368" y="55.21052631578947" type="curve" smooth="yes"/>
      <point x="94.52631578947368" y="18.105263157894736"/>
      <point x="125.44736842105263" y="-12.81578947368421"/>
      <point x="162.73684210526315" y="-12.81578947368421" type="curve" smooth="yes"/>
      <point x="199.8421052631579" y="-12.81578947368421"/>
      <point x="230.76315789473685" y="18.105263157894736"/>
    </contour>
  </outline>
</glyph>
<glyph name="semicolon" format="2">
  <advance width="334.0"/>
  <unicode hex="003B"/>
  <note>
semicolon
</note>
  <outline>
    <contour>
      <point x="162.92105263157896" y="433.44736842105266" type="curve" smooth="yes"/>
      <point x="125.63157894736842" y="433.44736842105266"/>
      <point x="94.89473684210526" y="402.5263157894737"/>
      <point x="94.89473684210526" y="365.42105263157896" type="curve" smooth="yes"/>
      <point x="94.89473684210526" y="328.13157894736844"/>
      <point x="125.63157894736842" y="297.2105263157895"/>
      <point x="162.92105263157896" y="297.2105263157895" type="curve" smooth="yes"/>
      <point x="201.02631578947367" y="297.2105263157895"/>
      <point x="230.94736842105263" y="327.3157894736842"/>
      <point x="230.94736842105263" y="365.42105263157896" type="curve" smooth="yes"/>
      <point x="230.94736842105263" y="402.5263157894737"/>
      <point x="200.21052631578948" y="433.44736842105266"/>
    </contour>
    <contour>
      <point x="154.6578947368421" y="126.76315789473684" type="curve" smooth="yes"/>
      <point x="119.73684210526316" y="126.76315789473684"/>
      <point x="91.36842105263158" y="99.65789473684211"/>
      <point x="91.36842105263158" y="64.92105263157895" type="curve" smooth="yes"/>
      <point x="91.36842105263158" y="14.0"/>
      <point x="141.0" y="5.0"/>
      <point x="141.0" y="-21.63157894736842" type="curve" smooth="yes"/>
      <point x="141.0" y="-46.71052631578947"/>
      <point x="109.36842105263158" y="-75.55263157894737"/>
      <point x="92.55263157894737" y="-93.0" type="curve"/>
      <point x="127.47368421052632" y="-128.28947368421052" type="line"/>
      <point x="182.21052631578948" y="-88.73684210526316"/>
      <point x="230.76315789473685" y="-29.81578947368421"/>
      <point x="230.76315789473685" y="40.28947368421053" type="curve" smooth="yes"/>
      <point x="230.76315789473685" y="85.84210526315789"/>
      <point x="203.39473684210526" y="126.76315789473684"/>
    </contour>
  </outline>
</glyph>
<glyph name="equal" format="2">
  <advance width="630.0"/>
  <unicode hex="003D"/>
  <note>
equal
</note>
  <outline>
    <contour>
      <point x="67.8157894736842" y="378.57894736842104" type="line"/>
      <point x="67.8157894736842" y="305.2631578947368" type="line"/>
      <point x="566.6315789473684" y="305.2631578947368" type="line"/>
      <point x="566.6315789473684" y="378.57894736842104" type="line"/>
    </contour>
    <contour>
      <point x="67.8157894736842" y="185.57894736842104" type="line"/>
      <point x="67.8157894736842" y="112.26315789473684" type="line"/>
      <point x="566.6315789473684" y="112.26315789473684" type="line"/>
      <point x="566.6315789473684" y="185.57894736842104" type="line"/>
    </contour>
  </outline>
</glyph>
<glyph name="greater" format="2">
  <advance width="630.0"/>
  <unicode hex="003E"/>
  <note>
greater
</note>
  <outline>
    <contour>
      <point x="66.0" y="72.73684210526316" type="line"/>
      <point x="66.0" y="-5.473684210526316" type="line"/>
      <point x="564.0" y="215.6578947368421" type="line"/>
      <point x="564.0" y="284.7894736842105" type="line"/>
      <point x="66.0" y="504.10526315789474" type="line"/>
      <point x="66.0" y="424.7105263157895" type="line"/>
      <point x="464.1842105263158" y="249.0" type="line"/>
    </contour>
  </outline>
</glyph>
<glyph name="question" format="2">
  <advance width="438.0"/>
  <unicode hex="003F"/>
  <note>
question
</note>
  <outline>
    <contour>
      <point x="189.73684210526315" y="722.8157894736842" type="curve" smooth="yes"/>
      <point x="142.52631578947367" y="722.8157894736842"/>
      <point x="81.3157894736842" y="707.6315789473684"/>
      <point x="45.28947368421053" y="685.3421052631579" type="curve"/>
      <point x="75.78947368421052" y="614.4736842105264" type="line"/>
      <point x="103.52631578947368" y="633.8421052631579"/>
      <point x="139.3421052631579" y="646.2105263157895"/>
      <point x="173.26315789473685" y="646.2105263157895" type="curve" smooth="yes"/>
      <point x="237.5" y="646.2105263157895"/>
      <point x="294.39473684210526" y="614.3947368421053"/>
      <point x="294.39473684210526" y="545.9736842105264" type="curve" smooth="yes"/>
      <point x="294.39473684210526" y="467.44736842105266"/>
      <point x="220.55263157894737" y="424.55263157894734"/>
      <point x="152.21052631578948" y="413.8421052631579" type="curve"/>
      <point x="152.21052631578948" y="217.0" type="line"/>
      <point x="224.94736842105263" y="217.0" type="line"/>
      <point x="224.94736842105263" y="358.3421052631579" type="line"/>
      <point x="320.0263157894737" y="391.44736842105266"/>
      <point x="389.94736842105266" y="450.9736842105263"/>
      <point x="389.94736842105266" y="552.1578947368421" type="curve" smooth="yes"/>
      <point x="389.94736842105266" y="666.6315789473684"/>
      <point x="291.8421052631579" y="722.8157894736842"/>
    </contour>
    <contour>
      <point x="185.6315789473684" y="123.42105263157895" type="curve" smooth="yes"/>
      <point x="147.52631578947367" y="123.42105263157895"/>
      <point x="117.60526315789474" y="93.3157894736842"/>
      <point x="117.60526315789474" y="55.21052631578947" type="curve" smooth="yes"/>
      <point x="117.60526315789474" y="18.105263157894736"/>
      <point x="148.3421052631579" y="-12.81578947368421"/>
      <point x="185.6315789473684" y="-12.81578947368421" type="curve" smooth="yes"/>
      <point x="222.92105263157896" y="-12.81578947368421"/>
      <point x="253.6578947368421" y="18.105263157894736"/>
      <point x="253.6578947368421" y="55.21052631578947" type="curve" smooth="yes"/>
      <point x="253.6578947368421" y="92.5"/>
      <point x="222.92105263157896" y="123.42105263157895"/>
    </contour>
  </outline>
</glyph>
<glyph name="at" format="2">
  <advance width="1027.4736842105262"/>
  <unicode hex="0040"/>
  <note>
at
</note>
  <guideline x="117.39473684210526" y="573.4473684210526" angle="90.0"/>
  <guideline x="49.078947368421055" y="573.4473684210526" angle="90.0"/>
  <outline>
    <contour>
      <point x="552.7368421052631" y="729.4736842105264" type="curve" smooth="yes"/>
      <point x="218.44736842105263" y="729.4736842105264"/>
      <point x="49.078947368421055" y="459.7368421052632"/>
      <point x="49.078947368421055" y="204.0" type="curve" smooth="yes"/>
      <point x="49.078947368421055" y="-24.736842105263158"/>
      <point x="184.81578947368422" y="-241.6578947368421"/>
      <point x="459.7368421052632" y="-241.6578947368421" type="curve" smooth="yes"/>
      <point x="501.4736842105263" y="-241.6578947368421"/>
      <point x="541.8421052631579" y="-235.6578947368421"/>
      <point x="581.3947368421053" y="-225.47368421052633" type="curve"/>
      <point x="564.6578947368421" y="-169.52631578947367" type="line"/>
      <point x="530.2894736842105" y="-178.71052631578948"/>
      <point x="495.10526315789474" y="-183.71052631578948"/>
      <point x="459.7368421052632" y="-183.71052631578948" type="curve" smooth="yes"/>
      <point x="229.8421052631579" y="-183.71052631578948"/>
      <point x="117.39473684210526" y="2.3684210526315788"/>
      <point x="117.39473684210526" y="200.81578947368422" type="curve" smooth="yes"/>
      <point x="117.39473684210526" y="428.07894736842104"/>
      <point x="264.8421052631579" y="671.5263157894736"/>
      <point x="552.7368421052631" y="671.5263157894736" type="curve" smooth="yes"/>
      <point x="748.6315789473684" y="671.5263157894736"/>
      <point x="910.078947368421" y="547.078947368421"/>
      <point x="910.078947368421" y="331.0" type="curve" smooth="yes"/>
      <point x="910.078947368421" y="194.47368421052633"/>
      <point x="843.4473684210526" y="52.94736842105263"/>
      <point x="734.2894736842105" y="52.94736842105263" type="curve" smooth="yes"/>
      <point x="687.3947368421053" y="52.94736842105263"/>
      <point x="671.3157894736842" y="70.13157894736842"/>
      <point x="671.3157894736842" y="96.76315789473684" type="curve" smooth="yes"/>
      <point x="671.3157894736842" y="123.76315789473684"/>
      <point x="677.9473684210526" y="163.44736842105263"/>
      <point x="728.9473684210526" y="495.92105263157896" type="curve"/>
      <point x="681.4473684210526" y="495.92105263157896" type="line"/>
      <point x="658.7105263157895" y="459.55263157894734" type="line"/>
      <point x="624.3421052631579" y="492.92105263157896"/>
      <point x="582.7631578947369" y="504.10526315789474"/>
      <point x="546.6842105263158" y="504.10526315789474" type="curve" smooth="yes"/>
      <point x="376.6842105263158" y="504.10526315789474"/>
      <point x="295.3157894736842" y="342.92105263157896"/>
      <point x="295.3157894736842" y="194.47368421052633" type="curve" smooth="yes"/>
      <point x="295.3157894736842" y="82.10526315789474"/>
      <point x="340.05263157894734" y="-12.81578947368421"/>
      <point x="449.7105263157895" y="-12.81578947368421" type="curve" smooth="yes"/>
      <point x="501.6842105263158" y="-12.81578947368421"/>
      <point x="559.6842105263158" y="16.789473684210527"/>
      <point x="592.1578947368421" y="71.23684210526316" type="curve"/>
      <point x="596.1578947368421" y="71.23684210526316" type="line"/>
      <point x="615.6578947368421" y="5.7105263157894735"/>
      <point x="669.2894736842105" y="-6.184210526315789"/>
      <point x="730.7368421052631" y="-6.184210526315789" type="curve" smooth="yes"/>
      <point x="884.8421052631579" y="-6.184210526315789"/>
      <point x="978.3947368421053" y="167.0"/>
      <point x="978.3947368421053" y="331.0" type="curve" smooth="yes"/>
      <point x="978.3947368421053" y="583.7368421052631"/>
      <point x="783.8421052631579" y="729.4736842105264"/>
    </contour>
    <contour>
      <point x="549.421052631579" y="438.42105263157896" type="curve" smooth="yes"/>
      <point x="577.8684210526316" y="438.42105263157896"/>
      <point x="603.6842105263158" y="430.42105263157896"/>
      <point x="631.5" y="413.42105263157896" type="curve"/>
      <point x="617.421052631579" y="311.9736842105263" type="line" smooth="yes"/>
      <point x="599.8684210526316" y="181.97368421052633"/>
      <point x="554.4473684210526" y="54.5"/>
      <point x="467.0" y="54.5" type="curve" smooth="yes"/>
      <point x="408.4736842105263" y="54.5"/>
      <point x="384.57894736842104" y="118.94736842105263"/>
      <point x="384.57894736842104" y="195.8421052631579" type="curve" smooth="yes"/>
      <point x="384.57894736842104" y="314.7105263157895"/>
      <point x="432.60526315789474" y="438.42105263157896"/>
    </contour>
  </outline>
</glyph>
<glyph name="A" format="2">
  <advance width="631.0"/>
  <unicode hex="0041"/>
  <note>
A
</note>
  <anchor x="310.1842105263158" y="0.0" name="bottom"/>
  <anchor x="537.8684210526316" y="0.0" name="ogonek"/>
  <anchor x="315.07894736842104" y="728.7368421052631" name="top"/>
  <outline>
    <contour>
      <point x="363.4736842105263" y="728.7368421052631" type="line"/>
      <point x="269.1578947368421" y="728.7368421052631" type="line"/>
      <point x="15.052631578947368" y="0.0" type="line"/>
      <point x="104.94736842105263" y="0.0" type="line"/>
      <point x="187.73684210526315" y="242.6315789473684" type="line"/>
      <point x="423.6842105263158" y="242.6315789473684" type="line"/>
      <point x="505.4736842105263" y="0.0" type="line"/>
      <point x="616.7631578947369" y="0.0" type="line"/>
    </contour>
    <contour>
      <point x="306.5263157894737" y="597.1578947368421" type="line"/>
      <point x="398.8421052631579" y="316.1578947368421" type="line"/>
      <point x="212.76315789473685" y="316.1578947368421" type="line"/>
    </contour>
  </outline>
</glyph>
<glyph name="B" format="2">
  <advance width="614.0"/>
  <unicode hex="0042"/>
  <note>
B
</note>
  <outline>
    <contour>
      <point x="538.1315789473684" y="559.3684210526316" type="curve" smooth="yes"/>
      <point x="538.1315789473684" y="694.921052631579"/>
      <point x="428.0" y="728.7368421052631"/>
      <point x="313.8157894736842" y="728.7368421052631" type="curve" smooth="yes"/>
      <point x="67.6842105263158" y="728.7368421052631" type="line"/>
      <point x="68.6842105263158" y="722.921052631579"/>
      <point x="81.6842105263158" y="665.6578947368421"/>
      <point x="81.6842105263158" y="663.6578947368421" type="curve" smooth="yes"/>
      <point x="81.6842105263158" y="0.0" type="line"/>
      <point x="290.36842105263156" y="0.0" type="line" smooth="yes"/>
      <point x="429.9736842105263" y="0.0"/>
      <point x="571.3157894736842" y="34.23684210526316"/>
      <point x="571.3157894736842" y="203.81578947368422" type="curve" smooth="yes"/>
      <point x="571.3157894736842" y="302.2894736842105"/>
      <point x="509.1578947368421" y="382.1842105263158"/>
      <point x="410.3421052631579" y="397.36842105263156" type="curve"/>
      <point x="489.07894736842104" y="411.0"/>
      <point x="538.1315789473684" y="482.3421052631579"/>
    </contour>
    <contour>
      <point x="432.2894736842105" y="554.2368421052631" type="curve" smooth="yes"/>
      <point x="432.2894736842105" y="463.60526315789474"/>
      <point x="375.42105263157896" y="430.5"/>
      <point x="289.2368421052632" y="430.5" type="curve" smooth="yes"/>
      <point x="182.97368421052633" y="430.5" type="line"/>
      <point x="182.97368421052633" y="654.2105263157895" type="line"/>
      <point x="309.89473684210526" y="654.2105263157895" type="line" smooth="yes"/>
      <point x="376.2368421052632" y="654.2105263157895"/>
      <point x="432.2894736842105" y="630.4736842105264"/>
    </contour>
    <contour>
      <point x="463.8421052631579" y="219.0" type="curve" smooth="yes"/>
      <point x="463.8421052631579" y="107.92105263157895"/>
      <point x="392.89473684210526" y="74.52631578947368"/>
      <point x="293.60526315789474" y="74.52631578947368" type="curve" smooth="yes"/>
      <point x="182.97368421052633" y="74.52631578947368" type="line"/>
      <point x="182.97368421052633" y="355.9736842105263" type="line"/>
      <point x="287.89473684210526" y="355.9736842105263" type="line" smooth="yes"/>
      <point x="374.42105263157896" y="355.9736842105263"/>
      <point x="463.8421052631579" y="318.7894736842105"/>
    </contour>
  </outline>
</glyph>
<glyph name="C" format="2">
  <advance width="624.0"/>
  <unicode hex="0043"/>
  <note>
C
</note>
  <guideline x="658.421052631579" y="66.5" angle="0.0"/>
  <anchor x="359.44736842105266" y="0.0" name="bottom"/>
  <anchor x="356.44736842105266" y="728.7368421052631" name="top"/>
  <outline>
    <contour>
      <point x="376.5263157894737" y="-12.0" type="curve" smooth="yes"/>
      <point x="451.5" y="-12.0"/>
      <point x="545.421052631579" y="13.631578947368421"/>
      <point x="607.921052631579" y="57.10526315789474" type="curve"/>
      <point x="575.078947368421" y="117.23684210526315" type="line"/>
      <point x="505.07894736842104" y="82.05263157894737"/>
      <point x="439.8157894736842" y="67.23684210526315"/>
      <point x="383.8157894736842" y="67.23684210526315" type="curve" smooth="yes"/>
      <point x="240.6578947368421" y="67.23684210526315"/>
      <point x="151.8684210526316" y="178.31578947368422"/>
      <point x="151.8684210526316" y="358.5" type="curve" smooth="yes"/>
      <point x="151.8684210526316" y="509.8157894736842"/>
      <point x="228.97368421052633" y="664.5"/>
      <point x="383.3421052631579" y="664.5" type="curve" smooth="yes"/>
      <point x="439.1578947368421" y="664.5"/>
      <point x="511.2368421052632" y="640.5"/>
      <point x="549.8684210526316" y="597.6842105263158" type="curve"/>
      <point x="605.5526315789474" y="661.9473684210526" type="line"/>
      <point x="555.2631578947369" y="716.0263157894736"/>
      <point x="454.42105263157896" y="739.4736842105264"/>
      <point x="384.05263157894734" y="739.4736842105264" type="curve" smooth="yes"/>
      <point x="160.97368421052633" y="739.4736842105264"/>
      <point x="41.21052631578947" y="556.078947368421"/>
      <point x="41.21052631578947" y="353.86842105263156" type="curve" smooth="yes"/>
      <point x="41.21052631578947" y="162.42105263157896"/>
      <point x="146.97368421052633" y="-12.0"/>
    </contour>
  </outline>
</glyph>
<glyph name="D" format="2">
  <advance width="699.0"/>
  <unicode hex="0044"/>
  <note>
D
</note>
  <anchor x="190.02631578947367" y="368.0" name="center"/>
  <anchor x="340.7368421052632" y="728.7368421052631" name="top"/>
  <outline>
    <contour>
      <point x="657.9736842105264" y="362.55263157894734" type="curve" smooth="yes"/>
      <point x="657.9736842105264" y="617.2631578947369"/>
      <point x="511.0263157894737" y="728.7368421052631"/>
      <point x="271.7105263157895" y="728.7368421052631" type="curve" smooth="yes"/>
      <point x="68.13157894736842" y="728.7368421052631" type="line"/>
      <point x="69.3157894736842" y="722.921052631579"/>
      <point x="82.5" y="665.4736842105264"/>
      <point x="82.5" y="663.6578947368421" type="curve" smooth="yes"/>
      <point x="82.5" y="0.0" type="line"/>
      <point x="323.7368421052632" y="0.0" type="line" smooth="yes"/>
      <point x="547.078947368421" y="0.0"/>
      <point x="657.9736842105264" y="152.0"/>
    </contour>
    <contour>
      <point x="551.578947368421" y="363.44736842105266" type="curve" smooth="yes"/>
      <point x="551.578947368421" y="206.42105263157896"/>
      <point x="489.3157894736842" y="74.52631578947368"/>
      <point x="312.8421052631579" y="74.52631578947368" type="curve" smooth="yes"/>
      <point x="183.78947368421052" y="74.52631578947368" type="line"/>
      <point x="183.78947368421052" y="654.2105263157895" type="line"/>
      <point x="264.3421052631579" y="654.2105263157895" type="line" smooth="yes"/>
      <point x="455.2368421052632" y="654.2105263157895"/>
      <point x="551.578947368421" y="560.4473684210526"/>
    </contour>
  </outline>
</glyph>
<glyph name="E" format="2">
  <advance width="549.0"/>
  <unicode hex="0045"/>
  <note>
E
</note>
  <anchor x="310.1842105263158" y="0.0" name="bottom"/>
  <anchor x="437.5" y="0.0" name="ogonek"/>
  <anchor x="300.2631578947368" y="728.7368421052631" name="top"/>
  <outline>
    <contour>
      <point x="68.3157894736842" y="728.7368421052631" type="line"/>
      <point x="82.5" y="663.6578947368421" type="line"/>
      <point x="82.5" y="0.0" type="line"/>
      <point x="509.55263157894734" y="0.0" type="line"/>
      <point x="509.55263157894734" y="74.52631578947368" type="line"/>
      <point x="183.60526315789474" y="74.52631578947368" type="line"/>
      <point x="183.60526315789474" y="337.60526315789474" type="line"/>
      <point x="435.92105263157896" y="337.60526315789474" type="line"/>
      <point x="435.92105263157896" y="411.3157894736842" type="line"/>
      <point x="183.60526315789474" y="411.3157894736842" type="line"/>
      <point x="183.60526315789474" y="654.2105263157895" type="line"/>
      <point x="509.55263157894734" y="654.2105263157895" type="line"/>
      <point x="509.55263157894734" y="728.7368421052631" type="line"/>
    </contour>
  </outline>
</glyph>
<glyph name="F" format="2">
  <advance width="510.0"/>
  <unicode hex="0046"/>
  <note>
F
</note>
  <outline>
    <contour>
      <point x="68.5" y="728.7368421052631" type="line"/>
      <point x="82.5" y="663.6578947368421" type="line"/>
      <point x="82.5" y="0.0" type="line"/>
      <point x="183.97368421052633" y="0.0" type="line"/>
      <point x="183.97368421052633" y="337.60526315789474" type="line"/>
      <point x="414.92105263157896" y="337.60526315789474" type="line"/>
      <point x="414.92105263157896" y="411.3157894736842" type="line"/>
      <point x="183.97368421052633" y="411.3157894736842" type="line"/>
      <point x="183.97368421052633" y="654.2105263157895" type="line"/>
      <point x="476.2894736842105" y="654.2105263157895" type="line"/>
      <point x="476.2894736842105" y="728.7368421052631" type="line"/>
    </contour>
  </outline>
</glyph>
<glyph name="G" format="2">
  <advance width="707.0"/>
  <unicode hex="0047"/>
  <note>
G
</note>
  <anchor x="360.63157894736844" y="0.0" name="bottom"/>
  <anchor x="362.63157894736844" y="728.7368421052631" name="top"/>
  <outline>
    <contour>
      <point x="385.36842105263156" y="739.1052631578947" type="curve" smooth="yes"/>
      <point x="158.07894736842104" y="739.1052631578947"/>
      <point x="42.21052631578947" y="571.6842105263158"/>
      <point x="42.21052631578947" y="355.7368421052632" type="curve" smooth="yes"/>
      <point x="42.21052631578947" y="159.89473684210526"/>
      <point x="145.1315789473684" y="-11.81578947368421"/>
      <point x="356.42105263157896" y="-11.81578947368421" type="curve" smooth="yes"/>
      <point x="443.5263157894737" y="-11.81578947368421"/>
      <point x="507.60526315789474" y="13.18421052631579"/>
      <point x="567.8947368421053" y="75.8157894736842" type="curve"/>
      <point x="600.2631578947369" y="-0.18421052631578946" type="line"/>
      <point x="654.1315789473684" y="-0.18421052631578946" type="line"/>
      <point x="650.9473684210526" y="57.39473684210526"/>
      <point x="645.6842105263158" y="115.78947368421052"/>
      <point x="645.8684210526316" y="173.3684210526316" type="curve" smooth="yes"/>
      <point x="646.2368421052631" y="377.7631578947368" type="line"/>
      <point x="382.10526315789474" y="377.7631578947368" type="line"/>
      <point x="369.92105263157896" y="306.07894736842104" type="line"/>
      <point x="543.9473684210526" y="306.07894736842104" type="line"/>
      <point x="543.9473684210526" y="240.81578947368422" type="line" smooth="yes"/>
      <point x="543.9473684210526" y="139.10526315789474"/>
      <point x="476.6842105263158" y="66.23684210526315"/>
      <point x="373.7105263157895" y="66.23684210526315" type="curve" smooth="yes"/>
      <point x="207.94736842105263" y="66.23684210526315"/>
      <point x="148.8684210526316" y="222.97368421052633"/>
      <point x="148.8684210526316" y="364.7368421052632" type="curve" smooth="yes"/>
      <point x="148.8684210526316" y="517.078947368421"/>
      <point x="212.02631578947367" y="663.0526315789474"/>
      <point x="385.36842105263156" y="663.0526315789474" type="curve" smooth="yes"/>
      <point x="468.7368421052632" y="663.0526315789474"/>
      <point x="507.8157894736842" y="640.6052631578947"/>
      <point x="571.0" y="591.1578947368421" type="curve"/>
      <point x="627.6842105263158" y="656.8421052631579" type="line"/>
      <point x="570.9473684210526" y="714.6578947368421"/>
      <point x="462.55263157894734" y="739.1052631578947"/>
    </contour>
  </outline>
</glyph>
<glyph name="H" format="2">
  <advance width="714.0"/>
  <unicode hex="0048"/>
  <note>
H
</note>
  <anchor x="354.8157894736842" y="0.0" name="bottom"/>
  <anchor x="360.8157894736842" y="558.0" name="center"/>
  <anchor x="356.8157894736842" y="728.7368421052631" name="top"/>
  <outline>
    <contour>
      <point x="529.9473684210526" y="340.86842105263156" type="line"/>
      <point x="529.9473684210526" y="0.0" type="line"/>
      <point x="631.2368421052631" y="0.0" type="line"/>
      <point x="631.2368421052631" y="728.7368421052631" type="line"/>
      <point x="529.9473684210526" y="728.7368421052631" type="line"/>
      <point x="529.9473684210526" y="414.57894736842104" type="line"/>
      <point x="184.60526315789474" y="414.57894736842104" type="line"/>
      <point x="184.60526315789474" y="728.7368421052631" type="line"/>
      <point x="69.3157894736842" y="728.7368421052631" type="line"/>
      <point x="70.3157894736842" y="722.921052631579"/>
      <point x="83.3157894736842" y="665.6578947368421"/>
      <point x="83.3157894736842" y="663.6578947368421" type="curve" smooth="yes"/>
      <point x="83.3157894736842" y="0.0" type="line"/>
      <point x="184.60526315789474" y="0.0" type="line"/>
      <point x="184.60526315789474" y="340.86842105263156" type="line"/>
    </contour>
  </outline>
</glyph>
<glyph name="I" format="2">
  <advance width="268.0"/>
  <unicode hex="0049"/>
  <note>
I
</note>
  <anchor x="137.0" y="0.0" name="bottom"/>
  <anchor x="118.71052631578948" y="0.0" name="ogonek"/>
  <anchor x="133.3684210526316" y="728.7368421052631" name="top"/>
  <outline>
    <contour>
      <point x="69.13157894736842" y="728.7368421052631" type="line"/>
      <point x="70.13157894736842" y="722.921052631579"/>
      <point x="83.13157894736842" y="665.6578947368421"/>
      <point x="83.13157894736842" y="663.6578947368421" type="curve" smooth="yes"/>
      <point x="83.13157894736842" y="0.0" type="line"/>
      <point x="184.42105263157896" y="0.0" type="line"/>
      <point x="184.42105263157896" y="728.7368421052631" type="line"/>
    </contour>
  </outline>
</glyph>
<glyph name="J" format="2">
  <advance width="268.0"/>
  <unicode hex="004A"/>
  <note>
J
</note>
  <anchor x="131.18421052631578" y="728.7368421052631" name="top"/>
  <outline>
    <contour>
      <point x="69.3157894736842" y="728.7368421052631" type="line"/>
      <point x="84.13157894736842" y="663.6578947368421" type="line"/>
      <point x="84.13157894736842" y="53.526315789473685" type="line" smooth="yes"/>
      <point x="84.13157894736842" y="-29.92105263157895"/>
      <point x="77.3157894736842" y="-132.23684210526315"/>
      <point x="-26.210526315789473" y="-148.68421052631578" type="curve"/>
      <point x="-12.289473684210526" y="-210.6315789473684" type="line"/>
      <point x="156.1578947368421" y="-196.73684210526315"/>
      <point x="185.42105263157896" y="-76.52631578947368"/>
      <point x="185.42105263157896" y="67.8157894736842" type="curve" smooth="yes"/>
      <point x="185.42105263157896" y="728.7368421052631" type="line"/>
    </contour>
  </outline>
</glyph>
<glyph name="K" format="2">
  <advance width="583.0"/>
  <unicode hex="004B"/>
  <note>
K
</note>
  <anchor x="317.0" y="0.0" name="bottom"/>
  <outline>
    <contour>
      <point x="68.3157894736842" y="728.7368421052631" type="line"/>
      <point x="82.3157894736842" y="663.6578947368421" type="line"/>
      <point x="82.3157894736842" y="0.0" type="line"/>
      <point x="183.60526315789474" y="0.0" type="line"/>
      <point x="183.60526315789474" y="377.5263157894737" type="line"/>
      <point x="461.4736842105263" y="0.0" type="line"/>
      <point x="585.578947368421" y="0.0" type="line"/>
      <point x="289.05263157894734" y="405.4736842105263" type="line"/>
      <point x="567.0263157894736" y="728.7368421052631" type="line"/>
      <point x="464.3157894736842" y="728.7368421052631" type="line"/>
      <point x="183.60526315789474" y="403.36842105263156" type="line"/>
      <point x="183.60526315789474" y="728.7368421052631" type="line"/>
    </contour>
  </outline>
</glyph>
<glyph name="L" format="2">
  <advance width="514.0"/>
  <unicode hex="004C"/>
  <note>
L
</note>
  <anchor x="293.1842105263158" y="0.0" name="bottom"/>
  <anchor x="135.18421052631578" y="367.2105263157895" name="center"/>
  <anchor x="133.73684210526315" y="728.7368421052631" name="top"/>
  <anchor x="170.3684210526316" y="492.36842105263156" name="topright"/>
  <outline>
    <contour>
      <point x="68.5" y="728.7368421052631" type="line"/>
      <point x="82.3157894736842" y="663.6578947368421" type="line"/>
      <point x="82.3157894736842" y="0.0" type="line"/>
      <point x="486.2894736842105" y="0.0" type="line"/>
      <point x="486.2894736842105" y="74.52631578947368" type="line"/>
      <point x="183.78947368421052" y="74.52631578947368" type="line"/>
      <point x="183.78947368421052" y="728.7368421052631" type="line"/>
    </contour>
  </outline>
</glyph>
<glyph name="M" format="2">
  <advance width="838.0"/>
  <unicode hex="004D"/>
  <note>
M
</note>
  <outline>
    <contour>
      <point x="215.6315789473684" y="728.7368421052631" type="line"/>
      <point x="70.13157894736842" y="728.7368421052631" type="line"/>
      <point x="84.94736842105263" y="663.6578947368421" type="line"/>
      <point x="84.94736842105263" y="0.18421052631578946" type="line"/>
      <point x="167.02631578947367" y="0.18421052631578946" type="line"/>
      <point x="167.02631578947367" y="525.5526315789474" type="line" smooth="yes"/>
      <point x="167.02631578947367" y="547.921052631579"/>
      <point x="165.47368421052633" y="568.8421052631579"/>
      <point x="163.6578947368421" y="594.2894736842105" type="curve"/>
      <point x="170.8421052631579" y="574.3684210526316"/>
      <point x="180.28947368421052" y="551.1842105263158"/>
      <point x="187.6578947368421" y="530.4473684210526" type="curve" smooth="yes"/>
      <point x="383.07894736842104" y="-0.8157894736842105" type="line"/>
      <point x="442.39473684210526" y="-0.8157894736842105" type="line"/>
      <point x="635.2631578947369" y="526.3684210526316" type="line" smooth="yes"/>
      <point x="643.4473684210526" y="548.7368421052631"/>
      <point x="652.8947368421053" y="572.7368421052631"/>
      <point x="660.8947368421053" y="594.2894736842105" type="curve"/>
      <point x="658.8947368421053" y="567.2105263157895"/>
      <point x="657.5263157894736" y="545.4736842105264"/>
      <point x="657.5263157894736" y="521.4736842105264" type="curve" smooth="yes"/>
      <point x="657.5263157894736" y="0.18421052631578946" type="line"/>
      <point x="757.4473684210526" y="0.18421052631578946" type="line"/>
      <point x="757.4473684210526" y="728.7368421052631" type="line"/>
      <point x="626.3157894736842" y="728.7368421052631" type="line"/>
      <point x="454.55263157894734" y="262.3157894736842" type="line" smooth="yes"/>
      <point x="442.1842105263158" y="229.02631578947367"/>
      <point x="433.4736842105263" y="198.73684210526315"/>
      <point x="422.6578947368421" y="158.3684210526316" type="curve"/>
      <point x="411.39473684210526" y="199.3684210526316"/>
      <point x="401.3157894736842" y="231.21052631578948"/>
      <point x="388.7631578947368" y="265.5" type="curve" smooth="yes"/>
    </contour>
  </outline>
</glyph>
<glyph name="N" format="2">
  <advance width="714.0"/>
  <unicode hex="004E"/>
  <note>
N
</note>
  <anchor x="362.36842105263156" y="0.0" name="bottom"/>
  <anchor x="355.92105263157896" y="728.7368421052631" name="top"/>
  <outline>
    <contour>
      <point x="200.5" y="728.5526315789474" type="line"/>
      <point x="69.13157894736842" y="728.5526315789474" type="line"/>
      <point x="83.13157894736842" y="663.4736842105264" type="line"/>
      <point x="83.13157894736842" y="0.0" type="line"/>
      <point x="165.57894736842104" y="0.0" type="line"/>
      <point x="165.57894736842104" y="542.6842105263158" type="line" smooth="yes"/>
      <point x="165.57894736842104" y="563.8684210526316"/>
      <point x="164.02631578947367" y="586.8684210526316"/>
      <point x="162.02631578947367" y="608.0526315789474" type="curve"/>
      <point x="175.02631578947367" y="590.1315789473684"/>
      <point x="188.39473684210526" y="568.7631578947369"/>
      <point x="199.94736842105263" y="550.8421052631579" type="curve" smooth="yes"/>
      <point x="563.2105263157895" y="-5.0" type="line"/>
      <point x="631.2368421052631" y="-5.0" type="line"/>
      <point x="631.2368421052631" y="728.5526315789474" type="line"/>
      <point x="548.7894736842105" y="728.5526315789474" type="line"/>
      <point x="548.7894736842105" y="258.3157894736842" type="line" smooth="yes"/>
      <point x="548.7894736842105" y="235.76315789473685"/>
      <point x="551.1578947368421" y="211.21052631578948"/>
      <point x="552.3421052631579" y="188.6578947368421" type="curve"/>
      <point x="539.3421052631579" y="208.21052631578948"/>
      <point x="525.5263157894736" y="229.39473684210526"/>
      <point x="512.9736842105264" y="248.94736842105263" type="curve" smooth="yes"/>
    </contour>
  </outline>
</glyph>
<glyph name="O" format="2">
  <advance width="737.0"/>
  <unicode hex="004F"/>
  <note>
O
</note>
  <anchor x="383.0" y="0.0" name="bottom"/>
  <anchor x="369.0" y="363.0" name="center"/>
  <anchor x="436.2368421052632" y="0.0" name="ogonek"/>
  <anchor x="369.0" y="728.7368421052631" name="top"/>
  <anchor x="401.0" y="728.7368421052631" name="topright"/>
  <outline>
    <contour>
      <point x="367.44736842105266" y="-11.0" type="curve" smooth="yes"/>
      <point x="586.1842105263158" y="-11.0"/>
      <point x="695.9736842105264" y="160.60526315789474"/>
      <point x="695.9736842105264" y="363.36842105263156" type="curve" smooth="yes"/>
      <point x="695.9736842105264" y="566.0526315789474"/>
      <point x="588.2894736842105" y="738.921052631579"/>
      <point x="368.44736842105266" y="738.921052631579" type="curve" smooth="yes"/>
      <point x="148.52631578947367" y="738.921052631579"/>
      <point x="41.026315789473685" y="566.3157894736842"/>
      <point x="41.026315789473685" y="363.7368421052632" type="curve" smooth="yes"/>
      <point x="41.026315789473685" y="162.3421052631579"/>
      <point x="149.1578947368421" y="-11.0"/>
    </contour>
    <contour>
      <point x="369.0" y="61.973684210526315" type="curve" smooth="yes"/>
      <point x="202.21052631578948" y="61.973684210526315"/>
      <point x="148.8684210526316" y="222.8684210526316"/>
      <point x="148.8684210526316" y="363.6578947368421" type="curve" smooth="yes"/>
      <point x="148.8684210526316" y="504.07894736842104"/>
      <point x="202.39473684210526" y="664.3157894736842"/>
      <point x="368.63157894736844" y="664.3157894736842" type="curve" smooth="yes"/>
      <point x="535.6052631578947" y="664.3157894736842"/>
      <point x="589.578947368421" y="504.05263157894734"/>
      <point x="589.578947368421" y="362.63157894736844" type="curve" smooth="yes"/>
      <point x="589.578947368421" y="221.21052631578948"/>
      <point x="536.0526315789474" y="61.973684210526315"/>
    </contour>
  </outline>
</glyph>
<glyph name="P" format="2">
  <advance width="575.0"/>
  <unicode hex="0050"/>
  <note>
P
</note>
  <outline>
    <contour>
      <point x="67.3157894736842" y="728.7368421052631" type="line"/>
      <point x="82.3157894736842" y="663.6578947368421" type="line"/>
      <point x="82.3157894736842" y="0.0" type="line"/>
      <point x="183.42105263157896" y="0.0" type="line"/>
      <point x="183.42105263157896" y="289.10526315789474" type="line"/>
      <point x="289.07894736842104" y="289.10526315789474" type="line" smooth="yes"/>
      <point x="424.2631578947368" y="289.10526315789474"/>
      <point x="536.7631578947369" y="361.63157894736844"/>
      <point x="536.7631578947369" y="508.92105263157896" type="curve" smooth="yes"/>
      <point x="536.7631578947369" y="667.3947368421053"/>
      <point x="432.07894736842104" y="728.7368421052631"/>
      <point x="287.89473684210526" y="728.7368421052631" type="curve" smooth="yes"/>
    </contour>
    <contour>
      <point x="183.60526315789474" y="654.2105263157895" type="line"/>
      <point x="289.0" y="654.2105263157895" type="line" smooth="yes"/>
      <point x="381.3157894736842" y="654.2105263157895"/>
      <point x="430.7368421052632" y="599.0526315789474"/>
      <point x="430.7368421052632" y="508.92105263157896" type="curve" smooth="yes"/>
      <point x="430.7368421052632" y="421.60526315789474"/>
      <point x="376.6842105263158" y="362.44736842105266"/>
      <point x="288.0" y="362.44736842105266" type="curve" smooth="yes"/>
      <point x="183.60526315789474" y="362.44736842105266" type="line"/>
    </contour>
  </outline>
</glyph>
<glyph name="Q" format="2">
  <advance width="737.0"/>
  <unicode hex="0051"/>
  <note>
Q
</note>
  <outline>
    <contour>
      <point x="1160.342105263158" y="-172.78947368421052" type="curve"/>
      <point x="1143.0526315789473" y="-119.63157894736842" type="line"/>
      <point x="1093.1842105263158" y="-134.73684210526315"/>
      <point x="1011.7368421052631" y="-151.3684210526316"/>
      <point x="970.2894736842105" y="-151.3684210526316" type="curve" smooth="yes"/>
      <point x="829.7631578947369" y="-151.3684210526316"/>
      <point x="594.1842105263158" y="-30.36842105263158"/>
      <point x="515.3684210526316" y="9.578947368421053" type="curve" smooth="yes"/>
      <point x="509.7368421052632" y="12.394736842105264"/>
      <point x="504.55263157894734" y="14.394736842105264"/>
      <point x="500.36842105263156" y="16.210526315789473" type="curve"/>
      <point x="639.8947368421053" y="78.42105263157895"/>
      <point x="695.9736842105264" y="222.1315789473684"/>
      <point x="695.9736842105264" y="363.1842105263158" type="curve" smooth="yes"/>
      <point x="695.9736842105264" y="560.8157894736842"/>
      <point x="591.3157894736842" y="739.1052631578947"/>
      <point x="369.0" y="739.1052631578947" type="curve" smooth="yes"/>
      <point x="145.8684210526316" y="739.1052631578947"/>
      <point x="41.026315789473685" y="561.8157894736842"/>
      <point x="41.026315789473685" y="363.1842105263158" type="curve" smooth="yes"/>
      <point x="41.026315789473685" y="186.55263157894737"/>
      <point x="116.57894736842105" y="36.63157894736842"/>
      <point x="305.89473684210526" y="-5.552631578947368" type="curve" smooth="yes"/>
      <point x="349.7105263157895" y="-15.368421052631579"/>
      <point x="396.3421052631579" y="-24.0"/>
      <point x="436.3421052631579" y="-42.0" type="curve" smooth="yes"/>
      <point x="549.8684210526316" y="-92.39473684210526"/>
      <point x="784.1842105263158" y="-220.89473684210526"/>
      <point x="935.0" y="-220.89473684210526" type="curve" smooth="yes"/>
      <point x="1029.5526315789473" y="-220.89473684210526"/>
      <point x="1081.3157894736842" y="-201.55263157894737"/>
    </contour>
    <contour>
      <point x="369.0" y="62.1578947368421" type="curve" smooth="yes"/>
      <point x="205.8684210526316" y="62.1578947368421"/>
      <point x="149.05263157894737" y="218.6578947368421"/>
      <point x="149.05263157894737" y="362.1842105263158" type="curve" smooth="yes"/>
      <point x="149.05263157894737" y="506.7105263157895"/>
      <point x="205.05263157894737" y="664.3157894736842"/>
      <point x="369.0" y="664.3157894736842" type="curve" smooth="yes"/>
      <point x="533.1315789473684" y="664.3157894736842"/>
      <point x="589.7631578947369" y="507.7105263157895"/>
      <point x="589.7631578947369" y="363.1842105263158" type="curve" smooth="yes"/>
      <point x="589.7631578947369" y="217.8421052631579"/>
      <point x="533.1315789473684" y="62.1578947368421"/>
    </contour>
  </outline>
</glyph>
<glyph name="R" format="2">
  <advance width="591.0"/>
  <unicode hex="0052"/>
  <note>
R
</note>
  <anchor x="309.36842105263156" y="0.0" name="bottom"/>
  <anchor x="292.7894736842105" y="728.7368421052631" name="top"/>
  <outline>
    <contour>
      <point x="67.3157894736842" y="728.7368421052631" type="line"/>
      <point x="81.5" y="663.6578947368421" type="line"/>
      <point x="81.5" y="0.0" type="line"/>
      <point x="182.60526315789474" y="0.0" type="line"/>
      <point x="182.60526315789474" y="326.8157894736842" type="line"/>
      <point x="294.7105263157895" y="326.8157894736842" type="line"/>
      <point x="485.4736842105263" y="0.0" type="line"/>
      <point x="602.3157894736842" y="0.0" type="line"/>
      <point x="394.63157894736844" y="346.1842105263158" type="line"/>
      <point x="471.55263157894734" y="369.44736842105266"/>
      <point x="536.7631578947369" y="446.1842105263158"/>
      <point x="536.7631578947369" y="527.921052631579" type="curve" smooth="yes"/>
      <point x="536.7631578947369" y="683.1842105263158"/>
      <point x="427.6578947368421" y="728.7368421052631"/>
      <point x="290.57894736842104" y="728.7368421052631" type="curve" smooth="yes"/>
    </contour>
    <contour>
      <point x="182.60526315789474" y="654.0263157894736" type="line"/>
      <point x="288.1842105263158" y="654.0263157894736" type="line" smooth="yes"/>
      <point x="363.2368421052632" y="654.0263157894736"/>
      <point x="430.92105263157896" y="614.5"/>
      <point x="430.92105263157896" y="533.0" type="curve" smooth="yes"/>
      <point x="430.92105263157896" y="427.60526315789474"/>
      <point x="354.7894736842105" y="400.3421052631579"/>
      <point x="259.6578947368421" y="400.3421052631579" type="curve" smooth="yes"/>
      <point x="182.60526315789474" y="400.3421052631579" type="line"/>
    </contour>
  </outline>
</glyph>
<glyph name="S" format="2">
  <advance width="516.0"/>
  <unicode hex="0053"/>
  <note>
S
</note>
  <anchor x="267.0" y="0.0" name="bottom"/>
  <anchor x="262.0" y="728.7368421052631" name="top"/>
  <outline>
    <contour>
      <point x="279.63157894736844" y="739.1052631578947" type="curve" smooth="yes"/>
      <point x="163.8684210526316" y="739.1052631578947"/>
      <point x="47.578947368421055" y="674.2894736842105"/>
      <point x="47.578947368421055" y="545.6052631578947" type="curve" smooth="yes"/>
      <point x="47.578947368421055" y="424.86842105263156"/>
      <point x="143.21052631578948" y="381.5"/>
      <point x="231.8421052631579" y="339.86842105263156" type="curve" smooth="yes"/>
      <point x="307.2894736842105" y="304.2368421052632"/>
      <point x="378.55263157894734" y="270.7894736842105"/>
      <point x="378.55263157894734" y="185.92105263157896" type="curve" smooth="yes"/>
      <point x="378.55263157894734" y="100.42105263157895"/>
      <point x="301.2368421052632" y="64.42105263157895"/>
      <point x="235.78947368421052" y="64.42105263157895" type="curve" smooth="yes"/>
      <point x="176.68421052631578" y="64.42105263157895"/>
      <point x="109.23684210526316" y="91.15789473684211"/>
      <point x="64.86842105263158" y="130.07894736842104" type="curve"/>
      <point x="26.842105263157894" y="42.73684210526316" type="line"/>
      <point x="92.13157894736842" y="8.078947368421053"/>
      <point x="161.89473684210526" y="-12.0"/>
      <point x="235.73684210526315" y="-12.0" type="curve" smooth="yes"/>
      <point x="367.6578947368421" y="-12.0"/>
      <point x="487.0263157894737" y="56.578947368421055"/>
      <point x="487.0263157894737" y="201.1315789473684" type="curve" smooth="yes"/>
      <point x="487.0263157894737" y="342.05263157894734"/>
      <point x="373.55263157894734" y="388.13157894736844"/>
      <point x="279.55263157894734" y="432.3157894736842" type="curve" smooth="yes"/>
      <point x="213.21052631578948" y="463.7631578947368"/>
      <point x="156.05263157894737" y="494.57894736842104"/>
      <point x="156.05263157894737" y="557.4736842105264" type="curve" smooth="yes"/>
      <point x="156.05263157894737" y="630.7894736842105"/>
      <point x="211.1315789473684" y="663.5"/>
      <point x="278.63157894736844" y="663.5" type="curve" smooth="yes"/>
      <point x="329.7105263157895" y="663.5"/>
      <point x="379.8157894736842" y="643.8684210526316"/>
      <point x="420.7105263157895" y="613.5" type="curve"/>
      <point x="470.94736842105266" y="684.0" type="line"/>
      <point x="413.94736842105266" y="718.921052631579"/>
      <point x="347.10526315789474" y="739.1052631578947"/>
    </contour>
  </outline>
</glyph>
<glyph name="T" format="2">
  <advance width="578.0"/>
  <unicode hex="0054"/>
  <note>
T
</note>
  <anchor x="287.0" y="0.0" name="bottom"/>
  <anchor x="287.0" y="366.0" name="center"/>
  <anchor x="287.0" y="728.7368421052631" name="top"/>
  <outline>
    <contour>
      <point x="235.57894736842104" y="654.2105263157895" type="line"/>
      <point x="235.57894736842104" y="0.0" type="line"/>
      <point x="339.42105263157896" y="0.0" type="line"/>
      <point x="339.42105263157896" y="654.2105263157895" type="line"/>
      <point x="556.0263157894736" y="654.2105263157895" type="line"/>
      <point x="556.0263157894736" y="728.7368421052631" type="line"/>
      <point x="21.973684210526315" y="728.7368421052631" type="line"/>
      <point x="21.973684210526315" y="654.2105263157895" type="line"/>
    </contour>
  </outline>
</glyph>
<glyph name="U" format="2">
  <advance width="707.0"/>
  <unicode hex="0055"/>
  <note>
U
</note>
  <anchor x="353.8421052631579" y="0.0" name="bottom"/>
  <anchor x="422.3421052631579" y="0.0" name="ogonek"/>
  <anchor x="360.2894736842105" y="728.7368421052631" name="top"/>
  <anchor x="460.6578947368421" y="743.921052631579" name="topright"/>
  <outline>
    <contour>
      <point x="186.1578947368421" y="728.7368421052631" type="line"/>
      <point x="67.5" y="728.7368421052631" type="line"/>
      <point x="82.6842105263158" y="663.8421052631579" type="line"/>
      <point x="82.6842105263158" y="250.26315789473685" type="line" smooth="yes"/>
      <point x="82.6842105263158" y="78.94736842105263"/>
      <point x="181.42105263157896" y="-11.81578947368421"/>
      <point x="351.92105263157896" y="-11.81578947368421" type="curve" smooth="yes"/>
      <point x="521.4473684210526" y="-11.81578947368421"/>
      <point x="624.421052631579" y="85.13157894736842"/>
      <point x="624.421052631579" y="261.6842105263158" type="curve" smooth="yes"/>
      <point x="624.421052631579" y="728.7368421052631" type="line"/>
      <point x="540.7894736842105" y="728.7368421052631" type="line"/>
      <point x="540.7894736842105" y="255.60526315789474" type="line" smooth="yes"/>
      <point x="540.7894736842105" y="140.10526315789474"/>
      <point x="477.1578947368421" y="61.973684210526315"/>
      <point x="357.7631578947368" y="61.973684210526315" type="curve" smooth="yes"/>
      <point x="242.0" y="61.973684210526315"/>
      <point x="186.1578947368421" y="133.1315789473684"/>
      <point x="186.1578947368421" y="244.18421052631578" type="curve" smooth="yes"/>
    </contour>
  </outline>
</glyph>
<glyph name="V" format="2">
  <advance width="603.0"/>
  <unicode hex="0056"/>
  <note>
V
</note>
  <outline>
    <contour>
      <point x="124.78947368421052" y="728.5526315789474" type="line"/>
      <point x="17.13157894736842" y="728.5526315789474" type="line"/>
      <point x="268.3157894736842" y="-2.8157894736842106" type="line"/>
      <point x="333.6842105263158" y="-2.8157894736842106" type="line"/>
      <point x="585.8684210526316" y="729.3684210526316" type="line"/>
      <point x="500.1578947368421" y="729.3684210526316" type="line"/>
      <point x="339.86842105263156" y="261.7631578947368" type="line" smooth="yes"/>
      <point x="327.94736842105266" y="228.18421052631578"/>
      <point x="319.8421052631579" y="198.68421052631578"/>
      <point x="309.8421052631579" y="161.4736842105263" type="curve"/>
      <point x="299.39473684210526" y="198.6578947368421"/>
      <point x="291.2105263157895" y="230.31578947368422"/>
      <point x="280.0263157894737" y="264.05263157894734" type="curve" smooth="yes"/>
    </contour>
  </outline>
</glyph>
<glyph name="W" format="2">
  <advance width="894.0"/>
  <unicode hex="0057"/>
  <note>
W
</note>
  <anchor x="457.0" y="728.7368421052631" name="top"/>
  <outline>
    <contour>
      <point x="119.92105263157895" y="728.7368421052631" type="line"/>
      <point x="14.55263157894737" y="728.7368421052631" type="line"/>
      <point x="216.3684210526316" y="-4.447368421052632" type="line"/>
      <point x="302.7631578947368" y="-4.447368421052632" type="line"/>
      <point x="422.9736842105263" y="439.3157894736842" type="line" smooth="yes"/>
      <point x="432.2631578947368" y="472.10526315789474"/>
      <point x="440.0" y="505.07894736842104"/>
      <point x="448.0" y="546.3947368421053" type="curve"/>
      <point x="454.44736842105266" y="509.2105263157895"/>
      <point x="462.2631578947368" y="480.36842105263156"/>
      <point x="469.63157894736844" y="451.5263157894737" type="curve" smooth="yes"/>
      <point x="594.0526315789474" y="-4.447368421052632" type="line"/>
      <point x="679.7105263157895" y="-4.447368421052632" type="line"/>
      <point x="879.4473684210526" y="728.7368421052631" type="line"/>
      <point x="795.3684210526316" y="728.7368421052631" type="line"/>
      <point x="673.8684210526316" y="280.7368421052632" type="line" smooth="yes"/>
      <point x="663.7631578947369" y="244.68421052631578"/>
      <point x="655.2105263157895" y="208.6315789473684"/>
      <point x="646.3947368421053" y="164.05263157894737" type="curve"/>
      <point x="638.1315789473684" y="207.68421052631578"/>
      <point x="629.0526315789474" y="244.1578947368421"/>
      <point x="619.6842105263158" y="279.2631578947368" type="curve" smooth="yes"/>
      <point x="498.60526315789474" y="728.7368421052631" type="line"/>
      <point x="416.86842105263156" y="728.7368421052631" type="line"/>
      <point x="296.36842105263156" y="282.36842105263156" type="line" smooth="yes"/>
      <point x="286.44736842105266" y="245.5"/>
      <point x="277.5263157894737" y="209.44736842105263"/>
      <point x="268.7105263157895" y="164.05263157894737" type="curve"/>
      <point x="259.44736842105266" y="209.5"/>
      <point x="251.0" y="245.97368421052633"/>
      <point x="240.81578947368422" y="282.89473684210526" type="curve" smooth="yes"/>
    </contour>
  </outline>
</glyph>
<glyph name="X" format="2">
  <advance width="585.0"/>
  <unicode hex="0058"/>
  <note>
X
</note>
  <outline>
    <contour>
      <point x="142.23684210526315" y="728.7368421052631" type="line"/>
      <point x="25.657894736842106" y="728.7368421052631" type="line"/>
      <point x="459.0263157894737" y="0.0" type="line"/>
      <point x="577.421052631579" y="0.0" type="line"/>
    </contour>
    <contour>
      <point x="451.2105263157895" y="728.7368421052631" type="line"/>
      <point x="7.578947368421053" y="0.0" type="line"/>
      <point x="113.94736842105263" y="0.0" type="line"/>
      <point x="558.3947368421053" y="728.7368421052631" type="line"/>
    </contour>
  </outline>
</glyph>
<glyph name="Y" format="2">
  <advance width="584.0"/>
  <unicode hex="0059"/>
  <note>
Y
</note>
  <anchor x="297.1842105263158" y="0.0" name="bottom"/>
  <anchor x="299.1842105263158" y="728.7368421052631" name="top"/>
  <outline>
    <contour>
      <point x="143.31578947368422" y="728.7368421052631" type="line"/>
      <point x="27.94736842105263" y="728.7368421052631" type="line"/>
      <point x="244.39473684210526" y="355.0263157894737" type="line"/>
      <point x="244.39473684210526" y="0.0" type="line"/>
      <point x="346.39473684210526" y="0.0" type="line"/>
      <point x="346.39473684210526" y="355.0263157894737" type="line"/>
      <point x="556.8684210526316" y="728.7368421052631" type="line"/>
      <point x="463.7894736842105" y="728.7368421052631" type="line"/>
      <point x="308.07894736842104" y="447.7631578947368" type="line"/>
    </contour>
  </outline>
</glyph>
<glyph name="Z" format="2">
  <advance width="571.0"/>
  <unicode hex="005A"/>
  <note>
Z
</note>
  <anchor x="286.0" y="728.7368421052631" name="top"/>
  <outline>
    <contour>
      <point x="53.31578947368421" y="728.7368421052631" type="line"/>
      <point x="53.31578947368421" y="654.3947368421053" type="line"/>
      <point x="403.9736842105263" y="654.3947368421053" type="line"/>
      <point x="30.94736842105263" y="69.76315789473684" type="line"/>
      <point x="30.94736842105263" y="0.0" type="line"/>
      <point x="532.1315789473684" y="0.0" type="line"/>
      <point x="540.8684210526316" y="74.52631578947368" type="line"/>
      <point x="152.6315789473684" y="74.52631578947368" type="line"/>
      <point x="526.9473684210526" y="660.6315789473684" type="line"/>
      <point x="526.9473684210526" y="728.7368421052631" type="line"/>
    </contour>
  </outline>
</glyph>
<glyph name="bracketleft" format="2">
  <advance width="351.0"/>
  <unicode hex="005B"/>
  <note>
bracketleft
</note>
  <outline>
    <contour>
      <point x="75.86842105263158" y="730.3684210526316" type="line"/>
      <point x="75.86842105263158" y="-128.73684210526315" type="line"/>
      <point x="285.7105263157895" y="-128.73684210526315" type="line"/>
      <point x="285.7105263157895" y="-77.89473684210526" type="line"/>
      <point x="163.8684210526316" y="-77.89473684210526" type="line"/>
      <point x="163.8684210526316" y="679.5263157894736" type="line"/>
      <point x="285.7105263157895" y="679.5263157894736" type="line"/>
      <point x="285.7105263157895" y="730.3684210526316" type="line"/>
    </contour>
  </outline>
</glyph>
<glyph name="backslash" format="2">
  <advance width="326.0"/>
  <unicode hex="005C"/>
  <note>
backslash
</note>
  <outline>
    <contour>
      <point x="-5.7631578947368425" y="728.7368421052631" type="line"/>
      <point x="259.9736842105263" y="0.0" type="line"/>
      <point x="331.94736842105266" y="0.0" type="line"/>
      <point x="67.65789473684211" y="728.7368421052631" type="line"/>
    </contour>
  </outline>
</glyph>
<glyph name="bracketright" format="2">
  <advance width="350.0"/>
  <unicode hex="005D"/>
  <note>
bracketright
</note>
  <outline>
    <contour>
      <point x="66.10526315789474" y="-77.07894736842105" type="line"/>
      <point x="66.10526315789474" y="-127.92105263157895" type="line"/>
      <point x="275.13157894736844" y="-127.92105263157895" type="line"/>
      <point x="275.13157894736844" y="730.3684210526316" type="line"/>
      <point x="65.28947368421052" y="730.3684210526316" type="line"/>
      <point x="65.28947368421052" y="679.5263157894736" type="line"/>
      <point x="187.1315789473684" y="679.5263157894736" type="line"/>
      <point x="187.1315789473684" y="-77.07894736842105" type="line"/>
    </contour>
  </outline>
</glyph>
<glyph name="asciicircum" format="2">
  <advance width="618.0"/>
  <unicode hex="005E"/>
  <note>
asciicircum
</note>
  <outline>
    <contour>
      <point x="312.86842105263156" y="398.1842105263158" type="line"/>
      <point x="488.57894736842104" y="0.0" type="line"/>
      <point x="567.3421052631579" y="0.0" type="line"/>
      <point x="347.0263157894737" y="497.1842105263158" type="line"/>
      <point x="277.07894736842104" y="497.1842105263158" type="line"/>
      <point x="58.39473684210526" y="0.0" type="line"/>
      <point x="137.42105263157896" y="0.0" type="line"/>
    </contour>
  </outline>
</glyph>
<glyph name="underscore" format="2">
  <advance width="499.0"/>
  <unicode hex="005F"/>
  <note>
underscore
</note>
  <outline>
    <contour>
      <point x="-8.078947368421053" y="-62.5" type="line"/>
      <point x="-8.078947368421053" y="-129.1315789473684" type="line"/>
      <point x="508.07894736842104" y="-129.1315789473684" type="line"/>
      <point x="508.07894736842104" y="-62.5" type="line"/>
    </contour>
  </outline>
</glyph>
<glyph name="grave" format="2">
  <advance width="281.0"/>
  <unicode hex="0060"/>
  <note>
grave
</note>
  <anchor x="208.8421052631579" y="497.0" name="_top"/>
  <outline>
    <contour>
      <point x="153.92105263157896" y="733.3684210526316" type="line"/>
      <point x="27.68421052631579" y="733.3684210526316" type="line"/>
      <point x="169.71052631578948" y="578.9736842105264" type="line"/>
      <point x="252.31578947368422" y="578.9736842105264" type="line"/>
    </contour>
  </outline>
</glyph>
<glyph name="a" format="2">
  <advance width="494.0"/>
  <unicode hex="0061"/>
  <note>
a
</note>
  <anchor x="232.73684210526315" y="0.0" name="bottom"/>
  <anchor x="420.44736842105266" y="0.0" name="ogonek"/>
  <anchor x="243.10526315789474" y="497.0" name="top"/>
  <outline>
    <contour>
      <point x="253.18421052631578" y="509.0" type="curve" smooth="yes"/>
      <point x="182.81578947368422" y="509.0"/>
      <point x="116.07894736842105" y="488.0"/>
      <point x="60.1578947368421" y="444.55263157894734" type="curve"/>
      <point x="102.63157894736842" y="381.86842105263156" type="line"/>
      <point x="147.42105263157896" y="417.8421052631579"/>
      <point x="192.78947368421052" y="440.6842105263158"/>
      <point x="242.8684210526316" y="440.6842105263158" type="curve" smooth="yes"/>
      <point x="305.10526315789474" y="440.6842105263158"/>
      <point x="323.8421052631579" y="401.6578947368421"/>
      <point x="323.8421052631579" y="346.2105263157895" type="curve" smooth="yes"/>
      <point x="323.8421052631579" y="291.0" type="line"/>
      <point x="208.02631578947367" y="290.1842105263158"/>
      <point x="41.421052631578945" y="269.3421052631579"/>
      <point x="41.421052631578945" y="119.44736842105263" type="curve" smooth="yes"/>
      <point x="41.421052631578945" y="37.44736842105263"/>
      <point x="100.34210526315789" y="-11.0"/>
      <point x="179.1578947368421" y="-11.0" type="curve" smooth="yes"/>
      <point x="237.07894736842104" y="-11.0"/>
      <point x="290.5263157894737" y="15.973684210526315"/>
      <point x="329.1578947368421" y="59.0" type="curve"/>
      <point x="337.07894736842104" y="7.552631578947368"/>
      <point x="367.7105263157895" y="-8.81578947368421"/>
      <point x="405.10526315789474" y="-8.81578947368421" type="curve" smooth="yes"/>
      <point x="439.36842105263156" y="-8.81578947368421"/>
      <point x="475.2894736842105" y="3.0"/>
      <point x="497.94736842105266" y="15.736842105263158" type="curve"/>
      <point x="479.7631578947368" y="72.3157894736842" type="line"/>
      <point x="467.57894736842104" y="67.3157894736842"/>
      <point x="453.7631578947368" y="63.5"/>
      <point x="441.57894736842104" y="63.5" type="curve" smooth="yes"/>
      <point x="425.8421052631579" y="63.5"/>
      <point x="413.6578947368421" y="71.86842105263158"/>
      <point x="413.6578947368421" y="101.89473684210526" type="curve" smooth="yes"/>
      <point x="413.6578947368421" y="345.36842105263156" type="line" smooth="yes"/>
      <point x="413.6578947368421" y="450.10526315789474"/>
      <point x="358.36842105263156" y="509.0"/>
    </contour>
    <contour>
      <point x="323.8421052631579" y="222.8684210526316" type="curve"/>
      <point x="323.8421052631579" y="192.52631578947367" type="line" smooth="yes"/>
      <point x="323.8421052631579" y="129.6578947368421"/>
      <point x="276.9736842105263" y="63.05263157894737"/>
      <point x="208.92105263157896" y="63.05263157894737" type="curve" smooth="yes"/>
      <point x="166.23684210526315" y="63.05263157894737"/>
      <point x="133.78947368421052" y="82.5"/>
      <point x="133.78947368421052" y="124.10526315789474" type="curve" smooth="yes"/>
      <point x="133.78947368421052" y="218.68421052631578"/>
      <point x="254.78947368421052" y="222.8684210526316"/>
    </contour>
  </outline>
</glyph>
<glyph name="b" format="2">
  <advance width="558.0"/>
  <unicode hex="0062"/>
  <note>
b
</note>
  <outline>
    <contour>
      <point x="309.05263157894734" y="507.1842105263158" type="curve" smooth="yes"/>
      <point x="252.42105263157896" y="507.1842105263158"/>
      <point x="209.23684210526315" y="489.7368421052632"/>
      <point x="167.23684210526315" y="452.10526315789474" type="curve"/>
      <point x="168.05263157894737" y="463.92105263157896"/>
      <point x="169.23684210526315" y="476.2105263157895"/>
      <point x="169.23684210526315" y="493.36842105263156" type="curve" smooth="yes"/>
      <point x="169.23684210526315" y="763.1052631578947" type="line"/>
      <point x="65.42105263157895" y="763.1052631578947" type="line"/>
      <point x="79.42105263157895" y="705.6578947368421" type="line"/>
      <point x="79.42105263157895" y="67.44736842105263" type="line" smooth="yes"/>
      <point x="79.42105263157895" y="44.63157894736842"/>
      <point x="77.42105263157895" y="21.81578947368421"/>
      <point x="76.23684210526316" y="-1.0" type="curve"/>
      <point x="128.44736842105263" y="-1.0" type="line"/>
      <point x="147.0" y="52.10526315789474" type="line"/>
      <point x="183.55263157894737" y="8.18421052631579"/>
      <point x="236.44736842105263" y="-12.81578947368421"/>
      <point x="293.36842105263156" y="-12.81578947368421" type="curve" smooth="yes"/>
      <point x="442.55263157894734" y="-12.81578947368421"/>
      <point x="515.3157894736842" y="115.07894736842105"/>
      <point x="515.3157894736842" y="251.0" type="curve" smooth="yes"/>
      <point x="515.3157894736842" y="374.07894736842104"/>
      <point x="447.3157894736842" y="507.1842105263158"/>
    </contour>
    <contour>
      <point x="284.36842105263156" y="432.3157894736842" type="curve" smooth="yes"/>
      <point x="383.05263157894734" y="432.3157894736842"/>
      <point x="418.57894736842104" y="330.7631578947368"/>
      <point x="418.57894736842104" y="247.44736842105263" type="curve" smooth="yes"/>
      <point x="418.57894736842104" y="170.02631578947367"/>
      <point x="387.7894736842105" y="52.868421052631575"/>
      <point x="290.36842105263156" y="52.868421052631575" type="curve" smooth="yes"/>
      <point x="200.94736842105263" y="52.868421052631575"/>
      <point x="169.23684210526315" y="119.23684210526315"/>
      <point x="169.23684210526315" y="200.10526315789474" type="curve" smooth="yes"/>
      <point x="169.23684210526315" y="378.60526315789474" type="line"/>
      <point x="198.1315789473684" y="409.6842105263158"/>
      <point x="241.6578947368421" y="432.3157894736842"/>
    </contour>
  </outline>
</glyph>
<glyph name="c" format="2">
  <advance width="450.0"/>
  <unicode hex="0063"/>
  <note>
c
</note>
  <anchor x="257.36842105263156" y="0.0" name="bottom"/>
  <anchor x="260.36842105263156" y="497.0" name="top"/>
  <outline>
    <contour>
      <point x="275.6578947368421" y="509.1842105263158" type="curve" smooth="yes"/>
      <point x="145.76315789473685" y="509.1842105263158"/>
      <point x="40.68421052631579" y="408.07894736842104"/>
      <point x="40.68421052631579" y="252.26315789473685" type="curve" smooth="yes"/>
      <point x="40.68421052631579" y="91.10526315789474"/>
      <point x="131.39473684210526" y="-12.81578947368421"/>
      <point x="264.92105263157896" y="-12.81578947368421" type="curve" smooth="yes"/>
      <point x="326.6578947368421" y="-12.81578947368421"/>
      <point x="371.10526315789474" y="3.1842105263157894"/>
      <point x="425.4736842105263" y="36.63157894736842" type="curve"/>
      <point x="397.7368421052632" y="93.13157894736842" type="line"/>
      <point x="357.55263157894734" y="69.94736842105263"/>
      <point x="321.7368421052632" y="58.13157894736842"/>
      <point x="284.2894736842105" y="58.13157894736842" type="curve" smooth="yes"/>
      <point x="198.02631578947367" y="58.13157894736842"/>
      <point x="137.60526315789474" y="125.76315789473684"/>
      <point x="137.60526315789474" y="249.3684210526316" type="curve" smooth="yes"/>
      <point x="137.60526315789474" y="358.3421052631579"/>
      <point x="192.52631578947367" y="440.5"/>
      <point x="273.63157894736844" y="440.5" type="curve" smooth="yes"/>
      <point x="308.2894736842105" y="440.5"/>
      <point x="343.63157894736844" y="426.3157894736842"/>
      <point x="379.7105263157895" y="397.42105263157896" type="curve"/>
      <point x="427.4736842105263" y="458.7368421052632" type="line"/>
      <point x="379.3157894736842" y="492.63157894736844"/>
      <point x="325.4736842105263" y="509.1842105263158"/>
    </contour>
  </outline>
</glyph>
<glyph name="e" format="2">
  <advance width="494.0"/>
  <unicode hex="0065"/>
  <note>
e
</note>
  <anchor x="259.8157894736842" y="0.0" name="bottom"/>
  <anchor x="335.42105263157896" y="0.0" name="ogonek"/>
  <anchor x="265.8157894736842" y="497.0" name="top"/>
  <outline>
    <contour>
      <point x="269.07894736842104" y="509.36842105263156" type="curve" smooth="yes"/>
      <point x="118.26315789473684" y="509.36842105263156"/>
      <point x="40.68421052631579" y="376.8421052631579"/>
      <point x="40.68421052631579" y="243.3684210526316" type="curve" smooth="yes"/>
      <point x="40.68421052631579" y="109.76315789473685"/>
      <point x="118.36842105263158" y="-12.631578947368421"/>
      <point x="275.1842105263158" y="-12.631578947368421" type="curve" smooth="yes"/>
      <point x="334.2631578947368" y="-12.631578947368421"/>
      <point x="398.2105263157895" y="5.184210526315789"/>
      <point x="445.0263157894737" y="42.81578947368421" type="curve"/>
      <point x="413.8421052631579" y="96.13157894736842" type="line"/>
      <point x="367.4736842105263" y="71.39473684210526"/>
      <point x="324.92105263157896" y="59.21052631578947"/>
      <point x="286.7368421052632" y="59.21052631578947" type="curve" smooth="yes"/>
      <point x="195.76315789473685" y="59.21052631578947"/>
      <point x="135.8684210526316" y="128.6315789473684"/>
      <point x="135.8684210526316" y="251.94736842105263" type="curve"/>
      <point x="449.6578947368421" y="251.94736842105263" type="line"/>
      <point x="453.2105263157895" y="273.13157894736844"/>
      <point x="455.39473684210526" y="293.05263157894734"/>
      <point x="455.39473684210526" y="312.60526315789474" type="curve" smooth="yes"/>
      <point x="455.39473684210526" y="426.94736842105266"/>
      <point x="392.39473684210526" y="509.36842105263156"/>
    </contour>
    <contour>
      <point x="261.63157894736844" y="442.86842105263156" type="curve" smooth="yes"/>
      <point x="326.5263157894737" y="442.86842105263156"/>
      <point x="364.86842105263156" y="395.4736842105263"/>
      <point x="361.39473684210526" y="317.07894736842104" type="curve"/>
      <point x="141.31578947368422" y="317.07894736842104" type="line"/>
      <point x="150.8421052631579" y="377.2368421052632"/>
      <point x="194.0" y="442.86842105263156"/>
    </contour>
  </outline>
</glyph>
<glyph name="f" format="2">
  <advance width="288.0"/>
  <unicode hex="0066"/>
  <note>
f
</note>
  <outline>
    <contour>
      <point x="304.10526315789474" y="771.1052631578947" type="curve" smooth="yes"/>
      <point x="242.42105263157896" y="771.1052631578947"/>
      <point x="191.68421052631578" y="746.5"/>
      <point x="158.1315789473684" y="705.5263157894736" type="curve" smooth="yes"/>
      <point x="111.97368421052632" y="651.3157894736842"/>
      <point x="113.97368421052632" y="618.4473684210526"/>
      <point x="95.15789473684211" y="527.921052631579" type="curve" smooth="yes"/>
      <point x="86.97368421052632" y="488.36842105263156"/>
      <point x="48.131578947368425" y="489.63157894736844"/>
      <point x="16.86842105263158" y="487.1842105263158" type="curve"/>
      <point x="16.86842105263158" y="431.6842105263158" type="line"/>
      <point x="93.15789473684211" y="431.6842105263158" type="line"/>
      <point x="93.15789473684211" y="-0.18421052631578946" type="line"/>
      <point x="182.1578947368421" y="-0.18421052631578946" type="line"/>
      <point x="182.1578947368421" y="431.6842105263158" type="line"/>
      <point x="302.36842105263156" y="431.6842105263158" type="line"/>
      <point x="321.2894736842105" y="497.0" type="line"/>
      <point x="182.1578947368421" y="497.0" type="line"/>
      <point x="182.1578947368421" y="593.8421052631579"/>
      <point x="196.10526315789474" y="705.421052631579"/>
      <point x="306.6578947368421" y="705.421052631579" type="curve" smooth="yes"/>
      <point x="329.92105263157896" y="705.421052631579"/>
      <point x="359.0" y="696.2368421052631"/>
      <point x="376.8157894736842" y="680.9736842105264" type="curve"/>
      <point x="401.4736842105263" y="746.4736842105264" type="line"/>
      <point x="370.57894736842104" y="764.1052631578947"/>
      <point x="339.8157894736842" y="771.1052631578947"/>
    </contour>
  </outline>
</glyph>
<glyph name="g" format="2">
  <advance width="477.0"/>
  <unicode hex="0067"/>
  <note>
g
</note>
  <anchor x="233.18421052631578" y="497.0" name="top"/>
  <outline>
    <contour>
      <point x="219.6315789473684" y="509.55263157894734" type="curve" smooth="yes"/>
      <point x="123.52631578947368" y="509.55263157894734"/>
      <point x="41.23684210526316" y="435.0263157894737"/>
      <point x="41.23684210526316" y="336.7368421052632" type="curve" smooth="yes"/>
      <point x="41.23684210526316" y="278.2631578947368"/>
      <point x="71.97368421052632" y="225.6315789473684"/>
      <point x="120.44736842105263" y="193.81578947368422" type="curve"/>
      <point x="84.07894736842105" y="128.18421052631578"/>
      <point x="50.1578947368421" y="112.36842105263158"/>
      <point x="50.1578947368421" y="88.47368421052632" type="curve" smooth="yes"/>
      <point x="50.1578947368421" y="58.28947368421053"/>
      <point x="68.26315789473684" y="30.55263157894737"/>
      <point x="96.97368421052632" y="17.210526315789473" type="curve"/>
      <point x="96.97368421052632" y="14.026315789473685" type="line"/>
      <point x="54.05263157894737" y="-11.868421052631579"/>
      <point x="17.13157894736842" y="-52.526315789473685"/>
      <point x="17.13157894736842" y="-104.1842105263158" type="curve" smooth="yes"/>
      <point x="17.13157894736842" y="-200.6578947368421"/>
      <point x="124.89473684210526" y="-230.0"/>
      <point x="200.0" y="-230.0" type="curve" smooth="yes"/>
      <point x="325.63157894736844" y="-230.0"/>
      <point x="459.94736842105266" y="-172.71052631578948"/>
      <point x="459.94736842105266" y="-25.44736842105263" type="curve" smooth="yes"/>
      <point x="459.94736842105266" y="69.3157894736842"/>
      <point x="371.2894736842105" y="80.39473684210526"/>
      <point x="299.7105263157895" y="80.39473684210526" type="curve" smooth="yes"/>
      <point x="212.10526315789474" y="80.39473684210526" type="line" smooth="yes"/>
      <point x="182.26315789473685" y="80.39473684210526"/>
      <point x="147.23684210526315" y="79.3157894736842"/>
      <point x="147.23684210526315" y="114.84210526315789" type="curve" smooth="yes"/>
      <point x="147.23684210526315" y="149.0"/>
      <point x="175.1315789473684" y="166.3684210526316"/>
      <point x="207.28947368421052" y="166.3684210526316" type="curve" smooth="yes"/>
      <point x="325.60526315789474" y="166.3684210526316"/>
      <point x="397.6578947368421" y="239.26315789473685"/>
      <point x="397.6578947368421" y="341.0" type="curve" smooth="yes"/>
      <point x="397.6578947368421" y="375.0"/>
      <point x="386.6578947368421" y="407.89473684210526"/>
      <point x="364.0263157894737" y="438.1578947368421" type="curve"/>
      <point x="372.6578947368421" y="436.9736842105263"/>
      <point x="383.2894736842105" y="435.60526315789474"/>
      <point x="391.92105263157896" y="435.60526315789474" type="curve" smooth="yes"/>
      <point x="472.8421052631579" y="435.60526315789474" type="line"/>
      <point x="491.57894736842104" y="509.63157894736844" type="line"/>
      <point x="433.57894736842104" y="502.1842105263158"/>
      <point x="381.55263157894734" y="495.36842105263156"/>
      <point x="329.07894736842104" y="495.36842105263156" type="curve" smooth="yes"/>
      <point x="292.2631578947368" y="495.36842105263156"/>
      <point x="258.36842105263156" y="509.55263157894734"/>
    </contour>
    <contour>
      <point x="220.26315789473685" y="446.7894736842105" type="curve" smooth="yes"/>
      <point x="266.7894736842105" y="446.7894736842105"/>
      <point x="304.6578947368421" y="398.5263157894737"/>
      <point x="304.6578947368421" y="336.1842105263158" type="curve" smooth="yes"/>
      <point x="304.6578947368421" y="271.39473684210526"/>
      <point x="270.86842105263156" y="226.57894736842104"/>
      <point x="219.44736842105263" y="226.57894736842104" type="curve" smooth="yes"/>
      <point x="172.92105263157896" y="226.57894736842104"/>
      <point x="135.23684210526315" y="274.6578947368421"/>
      <point x="135.23684210526315" y="337.0" type="curve" smooth="yes"/>
      <point x="135.23684210526315" y="398.5263157894737"/>
      <point x="172.92105263157896" y="446.7894736842105"/>
    </contour>
    <contour>
      <point x="160.39473684210526" y="-0.8157894736842105" type="curve"/>
      <point x="275.05263157894734" y="-0.8157894736842105" type="line" smooth="yes"/>
      <point x="318.39473684210526" y="-0.8157894736842105"/>
      <point x="376.13157894736844" y="-2.8157894736842106"/>
      <point x="376.13157894736844" y="-54.078947368421055" type="curve" smooth="yes"/>
      <point x="376.13157894736844" y="-134.52631578947367"/>
      <point x="283.5263157894737" y="-158.68421052631578"/>
      <point x="215.0" y="-158.68421052631578" type="curve" smooth="yes"/>
      <point x="171.28947368421052" y="-158.68421052631578"/>
      <point x="109.76315789473684" y="-134.71052631578948"/>
      <point x="109.76315789473684" y="-86.07894736842105" type="curve" smooth="yes"/>
      <point x="109.76315789473684" y="-54.89473684210526"/>
      <point x="134.21052631578948" y="-19.07894736842105"/>
    </contour>
  </outline>
</glyph>
<glyph name="h" format="2">
  <advance width="547.0"/>
  <unicode hex="0068"/>
  <note>
h
</note>
  <anchor x="269.4736842105263" y="0.0" name="bottom"/>
  <anchor x="178.6315789473684" y="607.0" name="center"/>
  <anchor x="123.47368421052632" y="728.7368421052631" name="top"/>
  <outline>
    <contour>
      <point x="168.60526315789474" y="763.2894736842105" type="line"/>
      <point x="66.97368421052632" y="763.2894736842105" type="line"/>
      <point x="79.78947368421052" y="705.2105263157895" type="line"/>
      <point x="79.78947368421052" y="0.0" type="line"/>
      <point x="168.60526315789474" y="0.0" type="line"/>
      <point x="168.60526315789474" y="368.3421052631579" type="line"/>
      <point x="202.6578947368421" y="397.86842105263156"/>
      <point x="253.94736842105263" y="432.3157894736842"/>
      <point x="300.2631578947368" y="432.3157894736842" type="curve" smooth="yes"/>
      <point x="375.39473684210526" y="432.3157894736842"/>
      <point x="379.57894736842104" y="367.55263157894734"/>
      <point x="379.57894736842104" y="309.3157894736842" type="curve" smooth="yes"/>
      <point x="379.57894736842104" y="0.0" type="line"/>
      <point x="468.7631578947368" y="0.0" type="line"/>
      <point x="468.7631578947368" y="333.55263157894734" type="line" smooth="yes"/>
      <point x="468.7631578947368" y="436.7368421052632"/>
      <point x="429.2368421052632" y="510.1842105263158"/>
      <point x="318.3157894736842" y="510.1842105263158" type="curve" smooth="yes"/>
      <point x="259.7894736842105" y="510.1842105263158"/>
      <point x="210.05263157894737" y="478.7368421052632"/>
      <point x="168.60526315789474" y="440.2105263157895" type="curve"/>
    </contour>
  </outline>
</glyph>
<glyph name="i" format="2">
  <advance width="251.0"/>
  <unicode hex="0069"/>
  <note>
i
</note>
  <anchor x="126.0" y="0.0" name="bottom"/>
  <anchor x="126.8157894736842" y="0.0" name="ogonek"/>
  <outline>
    <contour>
      <point x="188.1315789473684" y="666.578947368421" type="curve" smooth="yes"/>
      <point x="188.1315789473684" y="701.2368421052631"/>
      <point x="159.02631578947367" y="730.3421052631579"/>
      <point x="124.36842105263158" y="730.3421052631579" type="curve" smooth="yes"/>
      <point x="89.71052631578948" y="730.3421052631579"/>
      <point x="61.23684210526316" y="701.2368421052631"/>
      <point x="61.23684210526316" y="666.578947368421" type="curve" smooth="yes"/>
      <point x="61.23684210526316" y="631.921052631579"/>
      <point x="89.71052631578948" y="602.6315789473684"/>
      <point x="124.36842105263158" y="602.6315789473684" type="curve" smooth="yes"/>
      <point x="159.8421052631579" y="602.6315789473684"/>
      <point x="188.1315789473684" y="631.1052631578947"/>
    </contour>
    <contour>
      <point x="170.31578947368422" y="497.0" type="line"/>
      <point x="68.6842105263158" y="497.0" type="line"/>
      <point x="80.5" y="438.92105263157896" type="line"/>
      <point x="80.5" y="0.0" type="line"/>
      <point x="170.31578947368422" y="0.0" type="line"/>
    </contour>
  </outline>
</glyph>
<glyph name="j" format="2">
  <advance width="251.0"/>
  <unicode hex="006A"/>
  <note>
j
</note>
  <outline>
    <contour>
      <point x="189.57894736842104" y="666.578947368421" type="curve" smooth="yes"/>
      <point x="189.57894736842104" y="701.2368421052631"/>
      <point x="160.47368421052633" y="730.3421052631579"/>
      <point x="125.8157894736842" y="730.3421052631579" type="curve" smooth="yes"/>
      <point x="91.15789473684211" y="730.3421052631579"/>
      <point x="61.86842105263158" y="701.2368421052631"/>
      <point x="61.86842105263158" y="666.578947368421" type="curve" smooth="yes"/>
      <point x="61.86842105263158" y="631.1052631578947"/>
      <point x="90.34210526315789" y="602.6315789473684"/>
      <point x="125.8157894736842" y="602.6315789473684" type="curve" smooth="yes"/>
      <point x="161.28947368421052" y="602.6315789473684"/>
      <point x="189.57894736842104" y="631.1052631578947"/>
    </contour>
    <contour>
      <point x="170.31578947368422" y="497.0" type="line"/>
      <point x="67.6842105263158" y="497.0" type="line"/>
      <point x="80.5" y="439.10526315789474" type="line"/>
      <point x="80.5" y="17.973684210526315" type="line" smooth="yes"/>
      <point x="80.5" y="-54.76315789473684"/>
      <point x="80.5" y="-145.94736842105263"/>
      <point x="6.947368421052632" y="-184.5" type="curve"/>
      <point x="22.42105263157895" y="-227.26315789473685" type="line"/>
      <point x="152.1315789473684" y="-210.07894736842104"/>
      <point x="170.31578947368422" y="-74.42105263157895"/>
      <point x="170.31578947368422" y="32.55263157894737" type="curve" smooth="yes"/>
    </contour>
  </outline>
</glyph>
<glyph name="k" format="2">
  <advance width="464.0"/>
  <unicode hex="006B"/>
  <note>
k
</note>
  <anchor x="252.57894736842104" y="0.0" name="bottom"/>
  <outline>
    <contour>
      <point x="168.97368421052633" y="763.2894736842105" type="line"/>
      <point x="65.60526315789474" y="763.2894736842105" type="line"/>
      <point x="78.60526315789474" y="705.2105263157895" type="line"/>
      <point x="78.60526315789474" y="0.0" type="line"/>
      <point x="168.97368421052633" y="0.0" type="line"/>
      <point x="168.97368421052633" y="267.2368421052632" type="line"/>
      <point x="364.9736842105263" y="0.0" type="line"/>
      <point x="470.60526315789474" y="0.0" type="line"/>
      <point x="257.7631578947368" y="287.8157894736842" type="line"/>
      <point x="443.2368421052632" y="497.0" type="line"/>
      <point x="349.07894736842104" y="497.0" type="line"/>
      <point x="168.97368421052633" y="292.0" type="line"/>
    </contour>
  </outline>
</glyph>
<glyph name="l" format="2">
  <advance width="251.0"/>
  <unicode hex="006C"/>
  <note>
l
</note>
  <anchor x="126.0" y="0.0" name="bottom"/>
  <anchor x="126.0" y="371.0" name="center"/>
  <anchor x="122.0" y="728.7368421052631" name="top"/>
  <anchor x="26.789473684210527" y="527.5526315789474" name="topright"/>
  <outline>
    <contour>
      <point x="170.31578947368422" y="763.2894736842105" type="line"/>
      <point x="67.5" y="763.2894736842105" type="line"/>
      <point x="80.13157894736842" y="706.0263157894736" type="line"/>
      <point x="80.13157894736842" y="0.0" type="line"/>
      <point x="170.31578947368422" y="0.0" type="line"/>
    </contour>
  </outline>
</glyph>
<glyph name="m" format="2">
  <advance width="829.0"/>
  <unicode hex="006D"/>
  <note>
m
</note>
  <outline>
    <contour>
      <point x="144.71052631578948" y="504.7368421052632" type="curve"/>
      <point x="47.26315789473684" y="493.8157894736842" type="line"/>
      <point x="69.63157894736842" y="459.10526315789474"/>
      <point x="79.07894736842105" y="399.9736842105263"/>
      <point x="79.07894736842105" y="360.07894736842104" type="curve" smooth="yes"/>
      <point x="79.07894736842105" y="0.0" type="line"/>
      <point x="168.89473684210526" y="0.0" type="line"/>
      <point x="168.89473684210526" y="367.5263157894737" type="line"/>
      <point x="198.60526315789474" y="395.1578947368421"/>
      <point x="247.94736842105263" y="431.5"/>
      <point x="290.2894736842105" y="431.5" type="curve" smooth="yes"/>
      <point x="363.3157894736842" y="431.5"/>
      <point x="369.60526315789474" y="368.2105263157895"/>
      <point x="369.60526315789474" y="310.5263157894737" type="curve" smooth="yes"/>
      <point x="369.60526315789474" y="0.0" type="line"/>
      <point x="459.60526315789474" y="0.0" type="line"/>
      <point x="459.60526315789474" y="366.07894736842104" type="line"/>
      <point x="489.13157894736844" y="395.60526315789474"/>
      <point x="536.3947368421053" y="431.5"/>
      <point x="580.8157894736842" y="431.5" type="curve" smooth="yes"/>
      <point x="653.7631578947369" y="431.5"/>
      <point x="660.6842105263158" y="367.94736842105266"/>
      <point x="660.6842105263158" y="309.9736842105263" type="curve" smooth="yes"/>
      <point x="660.6842105263158" y="0.0" type="line"/>
      <point x="750.5" y="0.0" type="line"/>
      <point x="750.5" y="333.2894736842105" type="line" smooth="yes"/>
      <point x="750.5" y="435.36842105263156"/>
      <point x="710.7105263157895" y="509.1842105263158"/>
      <point x="600.7105263157895" y="509.1842105263158" type="curve" smooth="yes"/>
      <point x="541.6052631578947" y="509.1842105263158"/>
      <point x="485.3421052631579" y="468.94736842105266"/>
      <point x="444.42105263157896" y="428.0263157894737" type="curve"/>
      <point x="417.5263157894737" y="484.92105263157896"/>
      <point x="372.1578947368421" y="509.1842105263158"/>
      <point x="309.8157894736842" y="509.1842105263158" type="curve" smooth="yes"/>
      <point x="254.78947368421052" y="509.1842105263158"/>
      <point x="201.18421052631578" y="472.57894736842104"/>
      <point x="163.3421052631579" y="436.6578947368421" type="curve"/>
      <point x="160.3421052631579" y="459.2894736842105"/>
      <point x="153.71052631578948" y="483.92105263157896"/>
    </contour>
  </outline>
</glyph>
<glyph name="n" format="2">
  <advance width="547.0"/>
  <unicode hex="006E"/>
  <note>
n
</note>
  <anchor x="274.10526315789474" y="0.0" name="bottom"/>
  <anchor x="281.1842105263158" y="497.0" name="top"/>
  <anchor x="85.10526315789474" y="497.0" name="topright"/>
  <outline>
    <contour>
      <point x="143.71052631578948" y="505.55263157894734" type="curve"/>
      <point x="46.26315789473684" y="493.0" type="line"/>
      <point x="71.07894736842105" y="459.92105263157896"/>
      <point x="78.89473684210526" y="391.8157894736842"/>
      <point x="78.89473684210526" y="352.7368421052632" type="curve" smooth="yes"/>
      <point x="78.89473684210526" y="0.0" type="line"/>
      <point x="167.89473684210526" y="0.0" type="line"/>
      <point x="167.89473684210526" y="367.5263157894737" type="line"/>
      <point x="200.31578947368422" y="398.6842105263158"/>
      <point x="253.23684210526315" y="431.5"/>
      <point x="298.7368421052632" y="431.5" type="curve" smooth="yes"/>
      <point x="374.6842105263158" y="431.5"/>
      <point x="378.86842105263156" y="367.55263157894734"/>
      <point x="378.86842105263156" y="308.5" type="curve" smooth="yes"/>
      <point x="378.86842105263156" y="0.0" type="line"/>
      <point x="468.05263157894734" y="0.0" type="line"/>
      <point x="468.05263157894734" y="332.7368421052632" type="line" smooth="yes"/>
      <point x="468.05263157894734" y="435.92105263157896"/>
      <point x="427.7105263157895" y="509.36842105263156"/>
      <point x="316.7894736842105" y="509.36842105263156" type="curve" smooth="yes"/>
      <point x="259.3421052631579" y="509.36842105263156"/>
      <point x="202.3421052631579" y="475.10526315789474"/>
      <point x="162.3421052631579" y="435.8421052631579" type="curve"/>
      <point x="159.3421052631579" y="459.2894736842105"/>
      <point x="152.71052631578948" y="483.10526315789474"/>
    </contour>
  </outline>
</glyph>
<glyph name="o" format="2">
  <advance width="536.8157894736842"/>
  <unicode hex="006F"/>
  <note>
o
</note>
  <anchor x="267.55263157894734" y="0.0" name="bottom"/>
  <anchor x="265.55263157894734" y="252.0" name="center"/>
  <anchor x="313.05263157894734" y="0.0" name="ogonek"/>
  <anchor x="265.55263157894734" y="497.0" name="top"/>
  <anchor x="293.55263157894734" y="497.0" name="topright"/>
  <outline>
    <contour>
      <point x="265.0" y="-12.81578947368421" type="curve" smooth="yes"/>
      <point x="413.55263157894734" y="-12.81578947368421"/>
      <point x="496.13157894736844" y="113.71052631578948"/>
      <point x="496.13157894736844" y="251.18421052631578" type="curve" smooth="yes"/>
      <point x="496.13157894736844" y="388.6578947368421"/>
      <point x="419.55263157894734" y="509.1842105263158"/>
      <point x="271.0" y="509.1842105263158" type="curve" smooth="yes"/>
      <point x="125.26315789473684" y="509.1842105263158"/>
      <point x="40.68421052631579" y="380.8421052631579"/>
      <point x="40.68421052631579" y="245.18421052631578" type="curve" smooth="yes"/>
      <point x="40.68421052631579" y="108.52631578947368"/>
      <point x="117.26315789473684" y="-12.81578947368421"/>
    </contour>
    <contour>
      <point x="266.0" y="53.31578947368421" type="curve" smooth="yes"/>
      <point x="167.28947368421052" y="53.31578947368421"/>
      <point x="136.78947368421052" y="167.8421052631579"/>
      <point x="136.78947368421052" y="248.0" type="curve" smooth="yes"/>
      <point x="136.78947368421052" y="330.2368421052632"/>
      <point x="169.21052631578948" y="442.6842105263158"/>
      <point x="270.0" y="442.6842105263158" type="curve" smooth="yes"/>
      <point x="373.3421052631579" y="442.6842105263158"/>
      <point x="400.0263157894737" y="332.7894736842105"/>
      <point x="400.0263157894737" y="248.0" type="curve" smooth="yes"/>
      <point x="400.0263157894737" y="165.21052631578948"/>
      <point x="368.1578947368421" y="53.31578947368421"/>
    </contour>
  </outline>
</glyph>
<glyph name="p" format="2">
  <advance width="556.0"/>
  <unicode hex="0070"/>
  <note>
p
</note>
  <outline>
    <contour>
      <point x="142.60526315789474" y="504.7368421052632" type="curve"/>
      <point x="47.78947368421053" y="493.0" type="line"/>
      <point x="70.60526315789474" y="457.7368421052632"/>
      <point x="78.42105263157895" y="393.1842105263158"/>
      <point x="78.42105263157895" y="352.92105263157896" type="curve" smooth="yes"/>
      <point x="78.42105263157895" y="-216.18421052631578" type="line"/>
      <point x="181.60526315789474" y="-216.18421052631578" type="line"/>
      <point x="167.60526315789474" y="-157.92105263157896" type="line"/>
      <point x="167.60526315789474" y="-21.31578947368421" type="line" smooth="yes"/>
      <point x="167.60526315789474" y="-9.578947368421053"/>
      <point x="167.60526315789474" y="11.157894736842106"/>
      <point x="165.60526315789474" y="30.157894736842106" type="curve"/>
      <point x="197.68421052631578" y="0.8157894736842105"/>
      <point x="245.8684210526316" y="-12.447368421052632"/>
      <point x="288.8421052631579" y="-12.447368421052632" type="curve" smooth="yes"/>
      <point x="439.57894736842104" y="-12.447368421052632"/>
      <point x="513.6842105263158" y="113.26315789473684"/>
      <point x="513.6842105263158" y="251.55263157894737" type="curve" smooth="yes"/>
      <point x="513.6842105263158" y="377.2894736842105"/>
      <point x="446.7631578947368" y="508.55263157894734"/>
      <point x="305.39473684210526" y="508.55263157894734" type="curve" smooth="yes"/>
      <point x="250.23684210526315" y="508.55263157894734"/>
      <point x="194.76315789473685" y="481.4736842105263"/>
      <point x="160.8684210526316" y="438.2105263157895" type="curve"/>
      <point x="157.8684210526316" y="460.6578947368421"/>
      <point x="152.05263157894737" y="483.2894736842105"/>
    </contour>
    <contour>
      <point x="278.92105263157896" y="432.60526315789474" type="curve" smooth="yes"/>
      <point x="381.7894736842105" y="432.60526315789474"/>
      <point x="417.7631578947368" y="334.05263157894734"/>
      <point x="417.7631578947368" y="245.73684210526315" type="curve" smooth="yes"/>
      <point x="417.7631578947368" y="161.23684210526315"/>
      <point x="387.2368421052632" y="58.68421052631579"/>
      <point x="285.36842105263156" y="58.68421052631579" type="curve" smooth="yes"/>
      <point x="200.21052631578948" y="58.68421052631579"/>
      <point x="167.60526315789474" y="125.5"/>
      <point x="167.60526315789474" y="202.10526315789474" type="curve" smooth="yes"/>
      <point x="167.60526315789474" y="369.1842105263158" type="line"/>
      <point x="194.1315789473684" y="401.63157894736844"/>
      <point x="234.76315789473685" y="432.60526315789474"/>
    </contour>
  </outline>
</glyph>
<glyph name="q" format="2">
  <advance width="556.0"/>
  <unicode hex="0071"/>
  <note>
q
</note>
  <outline>
    <contour>
      <point x="261.8157894736842" y="509.0" type="curve" smooth="yes"/>
      <point x="112.63157894736842" y="509.0"/>
      <point x="40.86842105263158" y="381.2894736842105"/>
      <point x="40.86842105263158" y="245.18421052631578" type="curve" smooth="yes"/>
      <point x="40.86842105263158" y="123.10526315789474"/>
      <point x="108.6842105263158" y="-11.81578947368421"/>
      <point x="246.94736842105263" y="-11.81578947368421" type="curve" smooth="yes"/>
      <point x="303.6578947368421" y="-11.81578947368421"/>
      <point x="348.13157894736844" y="6.368421052631579"/>
      <point x="389.57894736842104" y="44.26315789473684" type="curve"/>
      <point x="387.94736842105266" y="20.263157894736842"/>
      <point x="386.7631578947368" y="-1.4210526315789473"/>
      <point x="386.7631578947368" y="-29.289473684210527" type="curve" smooth="yes"/>
      <point x="386.7631578947368" y="-216.18421052631578" type="line"/>
      <point x="489.7631578947368" y="-216.18421052631578" type="line"/>
      <point x="488.7631578947368" y="-211.18421052631578"/>
      <point x="476.7631578947368" y="-159.92105263157896"/>
      <point x="476.7631578947368" y="-157.92105263157896" type="curve" smooth="yes"/>
      <point x="476.7631578947368" y="428.92105263157896" type="line" smooth="yes"/>
      <point x="476.7631578947368" y="451.7368421052632"/>
      <point x="478.57894736842104" y="474.1842105263158"/>
      <point x="479.7631578947368" y="497.0" type="curve"/>
      <point x="427.55263157894734" y="497.0" type="line"/>
      <point x="409.0" y="443.44736842105266" type="line"/>
      <point x="372.8157894736842" y="487.63157894736844"/>
      <point x="318.36842105263156" y="509.0"/>
    </contour>
    <contour>
      <point x="265.8157894736842" y="442.6842105263158" type="curve" smooth="yes"/>
      <point x="355.05263157894734" y="442.6842105263158"/>
      <point x="386.7631578947368" y="376.3157894736842"/>
      <point x="386.7631578947368" y="295.44736842105266" type="curve" smooth="yes"/>
      <point x="386.7631578947368" y="116.84210526315789" type="line"/>
      <point x="359.5" y="84.76315789473684"/>
      <point x="313.5263157894737" y="62.94736842105263"/>
      <point x="271.63157894736844" y="62.94736842105263" type="curve" smooth="yes"/>
      <point x="172.94736842105263" y="62.94736842105263"/>
      <point x="137.42105263157896" y="163.94736842105263"/>
      <point x="137.42105263157896" y="247.26315789473685" type="curve" smooth="yes"/>
      <point x="137.42105263157896" y="326.7105263157895"/>
      <point x="168.39473684210526" y="442.6842105263158"/>
    </contour>
  </outline>
</glyph>
<glyph name="r" format="2">
  <advance width="349.0"/>
  <unicode hex="0072"/>
  <note>
r
</note>
  <anchor x="124.10526315789474" y="0.0" name="bottom"/>
  <anchor x="173.47368421052633" y="497.0" name="top"/>
  <outline>
    <contour>
      <point x="143.42105263157896" y="506.1842105263158" type="curve"/>
      <point x="46.60526315789474" y="495.36842105263156" type="line"/>
      <point x="69.78947368421052" y="461.7368421052632"/>
      <point x="78.60526315789474" y="399.36842105263156"/>
      <point x="78.60526315789474" y="360.55263157894734" type="curve" smooth="yes"/>
      <point x="78.60526315789474" y="0.0" type="line"/>
      <point x="168.42105263157896" y="0.0" type="line"/>
      <point x="168.42105263157896" y="323.7368421052632" type="line"/>
      <point x="203.71052631578948" y="375.94736842105266"/>
      <point x="246.89473684210526" y="412.4736842105263"/>
      <point x="309.9736842105263" y="412.4736842105263" type="curve"/>
      <point x="329.9736842105263" y="506.1842105263158" type="line"/>
      <point x="263.7894736842105" y="506.1842105263158"/>
      <point x="201.23684210526315" y="465.3421052631579"/>
      <point x="166.60526315789474" y="410.9736842105263" type="curve"/>
      <point x="163.97368421052633" y="442.5263157894737"/>
      <point x="155.78947368421052" y="476.8157894736842"/>
    </contour>
  </outline>
</glyph>
<glyph name="s" format="2">
  <advance width="430.0"/>
  <unicode hex="0073"/>
  <note>
s
</note>
  <anchor x="224.6315789473684" y="0.0" name="bottom"/>
  <anchor x="218.44736842105263" y="497.0" name="top"/>
  <outline>
    <contour>
      <point x="243.26315789473685" y="509.1842105263158" type="curve" smooth="yes"/>
      <point x="150.07894736842104" y="509.1842105263158"/>
      <point x="61.86842105263158" y="460.0"/>
      <point x="61.86842105263158" y="362.1578947368421" type="curve" smooth="yes"/>
      <point x="61.86842105263158" y="276.3157894736842"/>
      <point x="125.97368421052632" y="244.78947368421052"/>
      <point x="186.3421052631579" y="216.89473684210526" type="curve" smooth="yes"/>
      <point x="237.23684210526315" y="193.3684210526316"/>
      <point x="287.4736842105263" y="173.10526315789474"/>
      <point x="287.4736842105263" y="124.39473684210526" type="curve" smooth="yes"/>
      <point x="287.4736842105263" y="77.13157894736842"/>
      <point x="245.1315789473684" y="53.868421052631575"/>
      <point x="196.1578947368421" y="53.868421052631575" type="curve" smooth="yes"/>
      <point x="157.60526315789474" y="53.868421052631575"/>
      <point x="116.34210526315789" y="70.60526315789474"/>
      <point x="83.97368421052632" y="93.86842105263158" type="curve"/>
      <point x="47.5" y="29.0" type="line"/>
      <point x="92.86842105263158" y="2.1842105263157894"/>
      <point x="150.71052631578948" y="-13.18421052631579"/>
      <point x="203.71052631578948" y="-13.18421052631579" type="curve" smooth="yes"/>
      <point x="297.0" y="-13.18421052631579"/>
      <point x="381.57894736842104" y="34.13157894736842"/>
      <point x="381.57894736842104" y="136.23684210526315" type="curve" smooth="yes"/>
      <point x="381.57894736842104" y="233.81578947368422"/>
      <point x="300.4736842105263" y="263.3421052631579"/>
      <point x="234.8421052631579" y="293.2368421052632" type="curve" smooth="yes"/>
      <point x="191.31578947368422" y="313.13157894736844"/>
      <point x="155.1578947368421" y="331.39473684210526"/>
      <point x="155.1578947368421" y="377.63157894736844" type="curve" smooth="yes"/>
      <point x="155.1578947368421" y="421.3421052631579"/>
      <point x="196.68421052631578" y="442.86842105263156"/>
      <point x="242.73684210526315" y="442.86842105263156" type="curve" smooth="yes"/>
      <point x="277.55263157894734" y="442.86842105263156"/>
      <point x="315.55263157894734" y="430.6842105263158"/>
      <point x="344.1842105263158" y="407.2368421052632" type="curve"/>
      <point x="375.57894736842104" y="474.92105263157896" type="line"/>
      <point x="336.8421052631579" y="498.36842105263156"/>
      <point x="288.44736842105266" y="509.1842105263158"/>
    </contour>
  </outline>
</glyph>
<glyph name="t" format="2">
  <advance width="327.0"/>
  <unicode hex="0074"/>
  <note>
t
</note>
  <anchor x="173.6578947368421" y="0.0" name="bottom"/>
  <anchor x="139.6578947368421" y="264.0" name="center"/>
  <anchor x="62.6578947368421" y="497.0" name="topright"/>
  <outline>
    <contour>
      <point x="201.97368421052633" y="639.5526315789474" type="curve"/>
      <point x="136.55263157894737" y="639.5526315789474" type="line"/>
      <point x="124.0" y="575.4473684210526"/>
      <point x="96.23684210526316" y="486.0"/>
      <point x="16.68421052631579" y="484.0" type="curve"/>
      <point x="16.68421052631579" y="431.05263157894734" type="line"/>
      <point x="92.15789473684211" y="431.05263157894734" type="line"/>
      <point x="92.15789473684211" y="117.63157894736842" type="line" smooth="yes"/>
      <point x="92.15789473684211" y="34.526315789473685"/>
      <point x="123.0" y="-10.81578947368421"/>
      <point x="208.18421052631578" y="-10.81578947368421" type="curve" smooth="yes"/>
      <point x="245.81578947368422" y="-10.81578947368421"/>
      <point x="277.3157894736842" y="-2.447368421052632"/>
      <point x="310.6842105263158" y="7.7368421052631575" type="curve"/>
      <point x="296.6842105263158" y="67.23684210526315" type="line"/>
      <point x="276.5" y="62.23684210526316"/>
      <point x="254.5" y="57.23684210526316"/>
      <point x="233.31578947368422" y="57.23684210526316" type="curve" smooth="yes"/>
      <point x="190.8684210526316" y="57.23684210526316"/>
      <point x="182.3421052631579" y="84.92105263157895"/>
      <point x="182.3421052631579" y="120.97368421052632" type="curve" smooth="yes"/>
      <point x="182.3421052631579" y="431.05263157894734" type="line"/>
      <point x="293.3157894736842" y="431.05263157894734" type="line"/>
      <point x="310.6842105263158" y="497.0" type="line"/>
      <point x="182.3421052631579" y="497.0" type="line"/>
      <point x="184.1578947368421" y="543.3684210526316"/>
      <point x="191.97368421052633" y="594.1842105263158"/>
    </contour>
  </outline>
</glyph>
<glyph name="u" format="2">
  <advance width="553.0"/>
  <unicode hex="0075"/>
  <note>
u
</note>
  <anchor x="275.8157894736842" y="0.0" name="bottom"/>
  <anchor x="477.5" y="0.9210526315789473" name="ogonek"/>
  <anchor x="273.8157894736842" y="497.0" name="top"/>
  <anchor x="324.39473684210526" y="506.8157894736842" name="topright"/>
  <outline>
    <contour>
      <point x="167.60526315789474" y="497.0" type="line"/>
      <point x="64.78947368421052" y="497.0" type="line"/>
      <point x="77.42105263157895" y="438.92105263157896" type="line"/>
      <point x="77.42105263157895" y="163.44736842105263" type="line" smooth="yes"/>
      <point x="77.42105263157895" y="60.26315789473684"/>
      <point x="117.94736842105263" y="-13.18421052631579"/>
      <point x="228.8684210526316" y="-13.18421052631579" type="curve" smooth="yes"/>
      <point x="286.7894736842105" y="-13.18421052631579"/>
      <point x="344.1578947368421" y="18.263157894736842"/>
      <point x="383.89473684210526" y="59.0" type="curve"/>
      <point x="392.2631578947368" y="8.18421052631579"/>
      <point x="422.7368421052632" y="-8.81578947368421"/>
      <point x="459.0263157894737" y="-8.81578947368421" type="curve" smooth="yes"/>
      <point x="489.3157894736842" y="-8.81578947368421"/>
      <point x="525.0526315789474" y="0.9210526315789473"/>
      <point x="552.2368421052631" y="15.736842105263158" type="curve"/>
      <point x="534.0526315789474" y="72.3157894736842" type="line"/>
      <point x="518.2368421052631" y="66.5"/>
      <point x="506.05263157894734" y="63.5"/>
      <point x="496.05263157894734" y="63.5" type="curve" smooth="yes"/>
      <point x="476.6842105263158" y="63.5"/>
      <point x="467.94736842105266" y="75.6842105263158"/>
      <point x="467.94736842105266" y="102.89473684210526" type="curve" smooth="yes"/>
      <point x="467.94736842105266" y="497.0" type="line"/>
      <point x="364.94736842105266" y="497.0" type="line"/>
      <point x="365.94736842105266" y="492.0"/>
      <point x="377.7631578947368" y="440.92105263157896"/>
      <point x="377.7631578947368" y="438.92105263157896" type="curve" smooth="yes"/>
      <point x="377.7631578947368" y="186.3421052631579" type="line" smooth="yes"/>
      <point x="377.7631578947368" y="113.47368421052632"/>
      <point x="317.1578947368421" y="64.86842105263158"/>
      <point x="247.28947368421052" y="64.86842105263158" type="curve" smooth="yes"/>
      <point x="174.60526315789474" y="64.86842105263158"/>
      <point x="167.60526315789474" y="132.73684210526315"/>
      <point x="167.60526315789474" y="189.3421052631579" type="curve" smooth="yes"/>
    </contour>
  </outline>
</glyph>
<glyph name="v" format="2">
  <advance width="455.0"/>
  <unicode hex="0076"/>
  <note>
v
</note>
  <outline>
    <contour>
      <point x="104.97368421052632" y="497.0" type="line"/>
      <point x="9.421052631578947" y="497.0" type="line"/>
      <point x="186.05263157894737" y="-5.631578947368421" type="line"/>
      <point x="267.94736842105266" y="-5.631578947368421" type="line"/>
      <point x="445.57894736842104" y="497.0" type="line"/>
      <point x="362.05263157894734" y="497.0" type="line"/>
      <point x="256.0" y="194.21052631578948" type="line" smooth="yes"/>
      <point x="247.81578947368422" y="170.4736842105263"/>
      <point x="241.55263157894737" y="148.0"/>
      <point x="234.10526315789474" y="116.73684210526315" type="curve"/>
      <point x="226.47368421052633" y="149.0"/>
      <point x="219.02631578947367" y="171.92105263157896"/>
      <point x="209.8421052631579" y="197.4736842105263" type="curve" smooth="yes"/>
    </contour>
  </outline>
</glyph>
<glyph name="w" format="2">
  <advance width="658.0"/>
  <unicode hex="0077"/>
  <note>
w
</note>
  <anchor x="335.6578947368421" y="497.0" name="top"/>
  <outline>
    <contour>
      <point x="101.76315789473684" y="497.0" type="line"/>
      <point x="8.394736842105264" y="497.0" type="line"/>
      <point x="155.57894736842104" y="-5.631578947368421" type="line"/>
      <point x="222.8421052631579" y="-5.631578947368421" type="line"/>
      <point x="259.4736842105263" y="109.44736842105263"/>
      <point x="294.13157894736844" y="205.02631578947367"/>
      <point x="327.8157894736842" y="340.42105263157896" type="curve"/>
      <point x="359.86842105263156" y="205.21052631578948"/>
      <point x="392.5263157894737" y="109.44736842105263"/>
      <point x="427.1578947368421" y="-5.631578947368421" type="curve"/>
      <point x="493.2368421052632" y="-5.631578947368421" type="line"/>
      <point x="650.421052631579" y="497.0" type="line"/>
      <point x="571.078947368421" y="497.0" type="line"/>
      <point x="485.39473684210526" y="219.78947368421052" type="line" smooth="yes"/>
      <point x="479.4736842105263" y="199.8421052631579"/>
      <point x="474.2105263157895" y="180.26315789473685"/>
      <point x="469.39473684210526" y="151.97368421052633" type="curve"/>
      <point x="464.39473684210526" y="180.26315789473685"/>
      <point x="460.13157894736844" y="199.8421052631579"/>
      <point x="454.2105263157895" y="219.78947368421052" type="curve" smooth="yes"/>
      <point x="370.89473684210526" y="497.0" type="line"/>
      <point x="302.3157894736842" y="497.0" type="line"/>
      <point x="214.81578947368422" y="218.1578947368421" type="line" smooth="yes"/>
      <point x="208.71052631578948" y="199.02631578947367"/>
      <point x="204.44736842105263" y="179.26315789473685"/>
      <point x="199.44736842105263" y="151.78947368421052" type="curve"/>
      <point x="194.6315789473684" y="180.07894736842104"/>
      <point x="190.18421052631578" y="199.8421052631579"/>
      <point x="184.26315789473685" y="219.78947368421052" type="curve" smooth="yes"/>
    </contour>
  </outline>
</glyph>
<glyph name="x" format="2">
  <advance width="446.0"/>
  <unicode hex="0078"/>
  <note>
x
</note>
  <outline>
    <contour>
      <point x="120.97368421052632" y="497.0" type="line"/>
      <point x="18.605263157894736" y="497.0" type="line"/>
      <point x="338.2368421052632" y="-0.8157894736842105" type="line"/>
      <point x="440.42105263157896" y="-0.8157894736842105" type="line"/>
    </contour>
    <contour>
      <point x="333.39473684210526" y="497.0" type="line"/>
      <point x="5.578947368421053" y="-0.8157894736842105" type="line"/>
      <point x="100.47368421052632" y="-0.8157894736842105" type="line"/>
      <point x="427.6578947368421" y="497.0" type="line"/>
    </contour>
  </outline>
</glyph>
<glyph name="y" format="2">
  <advance width="456.0"/>
  <unicode hex="0079"/>
  <note>
y
</note>
  <anchor x="340.7368421052632" y="0.0" name="bottom"/>
  <anchor x="232.73684210526315" y="497.0" name="top"/>
  <outline>
    <contour>
      <point x="106.60526315789474" y="497.0" type="curve"/>
      <point x="9.421052631578947" y="497.0" type="line"/>
      <point x="191.05263157894737" y="3.447368421052632" type="line"/>
      <point x="167.97368421052633" y="-61.26315789473684"/>
      <point x="132.26315789473685" y="-147.97368421052633"/>
      <point x="49.73684210526316" y="-147.97368421052633" type="curve" smooth="yes"/>
      <point x="44.81578947368421" y="-147.97368421052633"/>
      <point x="40.71052631578947" y="-147.78947368421052"/>
      <point x="35.973684210526315" y="-147.42105263157896" type="curve"/>
      <point x="35.973684210526315" y="-217.73684210526315" type="line"/>
      <point x="73.78947368421052" y="-217.73684210526315" type="line" smooth="yes"/>
      <point x="181.55263157894737" y="-217.73684210526315"/>
      <point x="239.47368421052633" y="-89.13157894736842"/>
      <point x="270.39473684210526" y="-2.1842105263157894" type="curve" smooth="yes"/>
      <point x="446.57894736842104" y="497.0" type="line"/>
      <point x="362.6842105263158" y="497.0" type="line"/>
      <point x="333.13157894736844" y="412.3421052631579"/>
      <point x="303.0263157894737" y="328.6842105263158"/>
      <point x="274.0263157894737" y="241.39473684210526" type="curve" smooth="yes"/>
      <point x="260.5" y="200.44736842105263"/>
      <point x="247.71052631578948" y="157.76315789473685"/>
      <point x="234.73684210526315" y="115.8157894736842" type="curve"/>
      <point x="221.57894736842104" y="156.94736842105263"/>
      <point x="208.97368421052633" y="200.44736842105263"/>
      <point x="195.44736842105263" y="241.39473684210526" type="curve" smooth="yes"/>
      <point x="166.26315789473685" y="328.6842105263158"/>
      <point x="136.1578947368421" y="412.3421052631579"/>
    </contour>
  </outline>
</glyph>
<glyph name="z" format="2">
  <advance width="445.0"/>
  <unicode hex="007A"/>
  <note>
z
</note>
  <anchor x="225.0" y="497.0" name="top"/>
  <outline>
    <contour>
      <point x="52.60526315789474" y="497.0" type="line"/>
      <point x="52.60526315789474" y="429.5" type="line"/>
      <point x="282.0" y="429.5" type="line"/>
      <point x="29.236842105263158" y="49.578947368421055" type="line"/>
      <point x="29.236842105263158" y="0.0" type="line"/>
      <point x="404.2105263157895" y="0.0" type="line"/>
      <point x="415.7631578947368" y="66.6842105263158" type="line"/>
      <point x="149.26315789473685" y="66.6842105263158" type="line"/>
      <point x="403.39473684210526" y="446.42105263157896" type="line"/>
      <point x="403.39473684210526" y="497.0" type="line"/>
    </contour>
  </outline>
</glyph>
<glyph name="braceleft" format="2">
  <advance width="349.0"/>
  <unicode hex="007B"/>
  <note>
braceleft
</note>
  <outline>
    <contour>
      <point x="268.6578947368421" y="-137.21052631578948" type="curve" smooth="yes"/>
      <point x="297.5263157894737" y="-137.21052631578948" type="line"/>
      <point x="297.5263157894737" y="-87.26315789473684" type="line"/>
      <point x="231.05263157894737" y="-87.26315789473684"/>
      <point x="208.52631578947367" y="-74.8157894736842"/>
      <point x="208.52631578947367" y="-6.526315789473684" type="curve" smooth="yes"/>
      <point x="208.52631578947367" y="169.26315789473685" type="line" smooth="yes"/>
      <point x="208.52631578947367" y="222.1578947368421"/>
      <point x="199.89473684210526" y="278.3421052631579"/>
      <point x="144.73684210526315" y="299.2631578947368" type="curve"/>
      <point x="199.89473684210526" y="320.1842105263158"/>
      <point x="208.71052631578948" y="377.36842105263156"/>
      <point x="208.71052631578948" y="430.2631578947368" type="curve" smooth="yes"/>
      <point x="208.71052631578948" y="599.5263157894736" type="line" smooth="yes"/>
      <point x="208.71052631578948" y="669.9736842105264"/>
      <point x="224.44736842105263" y="686.7894736842105"/>
      <point x="297.5263157894737" y="686.7894736842105" type="curve"/>
      <point x="297.5263157894737" y="736.5526315789474" type="line"/>
      <point x="268.7105263157895" y="736.5526315789474" type="line" smooth="yes"/>
      <point x="161.07894736842104" y="736.5526315789474"/>
      <point x="120.89473684210526" y="672.5263157894736"/>
      <point x="120.89473684210526" y="572.2631578947369" type="curve" smooth="yes"/>
      <point x="120.89473684210526" y="419.2631578947368" type="line" smooth="yes"/>
      <point x="120.89473684210526" y="375.8157894736842"/>
      <point x="112.78947368421052" y="323.7368421052632"/>
      <point x="56.89473684210526" y="323.7368421052632" type="curve"/>
      <point x="56.89473684210526" y="275.7894736842105" type="line"/>
      <point x="105.34210526315789" y="275.7894736842105"/>
      <point x="121.07894736842105" y="231.78947368421052"/>
      <point x="121.07894736842105" y="190.3421052631579" type="curve" smooth="yes"/>
      <point x="121.07894736842105" y="27.263157894736842" type="line" smooth="yes"/>
      <point x="121.07894736842105" y="-74.47368421052632"/>
      <point x="162.18421052631578" y="-137.21052631578948"/>
    </contour>
  </outline>
</glyph>
<glyph name="bar" format="2">
  <advance width="235.0"/>
  <unicode hex="007C"/>
  <note>
bar
</note>
  <outline>
    <contour>
      <point x="79.78947368421052" y="747.4473684210526" type="line"/>
      <point x="79.78947368421052" y="-108.65789473684211" type="line"/>
      <point x="155.76315789473685" y="-108.65789473684211" type="line"/>
      <point x="155.76315789473685" y="747.4473684210526" type="line"/>
    </contour>
  </outline>
</glyph>
<glyph name="braceright" format="2">
  <advance width="349.0"/>
  <unicode hex="007D"/>
  <note>
braceright
</note>
  <outline>
    <contour>
      <point x="81.15789473684211" y="736.5526315789474" type="curve" smooth="yes"/>
      <point x="52.28947368421053" y="736.5526315789474" type="line"/>
      <point x="52.28947368421053" y="686.6052631578947" type="line"/>
      <point x="118.76315789473685" y="686.6052631578947"/>
      <point x="141.28947368421052" y="674.1578947368421"/>
      <point x="141.28947368421052" y="605.8684210526316" type="curve" smooth="yes"/>
      <point x="141.28947368421052" y="430.07894736842104" type="line" smooth="yes"/>
      <point x="141.28947368421052" y="377.1842105263158"/>
      <point x="149.92105263157896" y="321.0"/>
      <point x="205.07894736842104" y="300.07894736842104" type="curve"/>
      <point x="149.92105263157896" y="279.1578947368421"/>
      <point x="141.10526315789474" y="221.97368421052633"/>
      <point x="141.10526315789474" y="169.07894736842104" type="curve" smooth="yes"/>
      <point x="141.10526315789474" y="-0.18421052631578946" type="line" smooth="yes"/>
      <point x="141.10526315789474" y="-70.63157894736842"/>
      <point x="125.36842105263158" y="-87.44736842105263"/>
      <point x="52.28947368421053" y="-87.44736842105263" type="curve"/>
      <point x="52.28947368421053" y="-137.21052631578948" type="line"/>
      <point x="81.10526315789474" y="-137.21052631578948" type="line" smooth="yes"/>
      <point x="188.73684210526315" y="-137.21052631578948"/>
      <point x="228.92105263157896" y="-73.1842105263158"/>
      <point x="228.92105263157896" y="27.07894736842105" type="curve" smooth="yes"/>
      <point x="228.92105263157896" y="180.07894736842104" type="line" smooth="yes"/>
      <point x="228.92105263157896" y="223.52631578947367"/>
      <point x="237.02631578947367" y="275.60526315789474"/>
      <point x="292.92105263157896" y="275.60526315789474" type="curve"/>
      <point x="292.92105263157896" y="323.55263157894734" type="line"/>
      <point x="244.47368421052633" y="323.55263157894734"/>
      <point x="228.73684210526315" y="367.55263157894734"/>
      <point x="228.73684210526315" y="409.0" type="curve" smooth="yes"/>
      <point x="228.73684210526315" y="572.078947368421" type="line" smooth="yes"/>
      <point x="228.73684210526315" y="673.8157894736842"/>
      <point x="187.6315789473684" y="736.5526315789474"/>
    </contour>
  </outline>
</glyph>
<glyph name="asciitilde" format="2">
  <advance width="663.0"/>
  <unicode hex="007E"/>
  <note>
asciitilde
</note>
  <outline>
    <contour>
      <point x="581.2105263157895" y="298.1842105263158" type="curve"/>
      <point x="527.1842105263158" y="347.2105263157895" type="line"/>
      <point x="510.0" y="314.39473684210526"/>
      <point x="475.7368421052632" y="278.2894736842105"/>
      <point x="436.55263157894734" y="278.2894736842105" type="curve" smooth="yes"/>
      <point x="381.55263157894734" y="278.2894736842105"/>
      <point x="309.55263157894734" y="347.4736842105263"/>
      <point x="221.3684210526316" y="347.4736842105263" type="curve" smooth="yes"/>
      <point x="160.6315789473684" y="347.4736842105263"/>
      <point x="106.89473684210526" y="297.36842105263156"/>
      <point x="82.71052631578948" y="244.81578947368422" type="curve"/>
      <point x="137.92105263157896" y="198.78947368421052" type="line"/>
      <point x="152.92105263157896" y="230.60526315789474"/>
      <point x="183.3684210526316" y="269.7105263157895"/>
      <point x="221.3684210526316" y="269.7105263157895" type="curve" smooth="yes"/>
      <point x="297.8157894736842" y="269.7105263157895"/>
      <point x="357.1842105263158" y="200.52631578947367"/>
      <point x="436.55263157894734" y="200.52631578947367" type="curve" smooth="yes"/>
      <point x="493.2894736842105" y="200.52631578947367"/>
      <point x="551.8421052631579" y="252.81578947368422"/>
    </contour>
  </outline>
</glyph>
<glyph name="exclamdown" format="2">
  <advance width="329.0"/>
  <unicode hex="00A1"/>
  <note>
exclamdown
</note>
  <outline>
    <contour>
      <point x="226.39473684210526" y="-232.3684210526316" type="line"/>
      <point x="197.39473684210526" y="279.0" type="line"/>
      <point x="132.68421052631578" y="279.0" type="line"/>
      <point x="103.6842105263158" y="-232.3684210526316" type="line"/>
    </contour>
    <contour>
      <point x="96.97368421052632" y="441.7105263157895" type="curve" smooth="yes"/>
      <point x="96.97368421052632" y="404.7894736842105"/>
      <point x="127.71052631578948" y="374.2368421052632"/>
      <point x="164.6315789473684" y="374.2368421052632" type="curve" smooth="yes"/>
      <point x="202.18421052631578" y="374.2368421052632"/>
      <point x="232.10526315789474" y="404.1578947368421"/>
      <point x="232.10526315789474" y="441.7105263157895" type="curve" smooth="yes"/>
      <point x="232.10526315789474" y="478.63157894736844"/>
      <point x="201.3684210526316" y="509.1842105263158"/>
      <point x="164.6315789473684" y="509.1842105263158" type="curve" smooth="yes"/>
      <point x="127.71052631578948" y="509.1842105263158"/>
      <point x="96.97368421052632" y="478.63157894736844"/>
    </contour>
  </outline>
</glyph>
<glyph name="cent" format="2">
  <advance width="490.0"/>
  <unicode hex="00A2"/>
  <note>
cent
</note>
  <outline>
    <contour>
      <point x="282.4736842105263" y="485.1842105263158" type="curve" smooth="yes"/>
      <point x="164.1315789473684" y="485.1842105263158"/>
      <point x="68.86842105263158" y="393.2631578947368"/>
      <point x="68.86842105263158" y="252.26315789473685" type="curve" smooth="yes"/>
      <point x="68.86842105263158" y="105.10526315789474"/>
      <point x="150.76315789473685" y="11.18421052631579"/>
      <point x="272.7368421052632" y="11.18421052631579" type="curve" smooth="yes"/>
      <point x="329.2105263157895" y="11.18421052631579"/>
      <point x="374.7368421052632" y="25.18421052631579"/>
      <point x="426.4736842105263" y="55.63157894736842" type="curve"/>
      <point x="395.36842105263156" y="111.6842105263158" type="line"/>
      <point x="356.36842105263156" y="91.13157894736842"/>
      <point x="319.7368421052632" y="80.94736842105263"/>
      <point x="288.10526315789474" y="80.94736842105263" type="curve" smooth="yes"/>
      <point x="211.76315789473685" y="80.94736842105263"/>
      <point x="162.05263157894737" y="139.39473684210526"/>
      <point x="162.05263157894737" y="249.3684210526316" type="curve" smooth="yes"/>
      <point x="162.05263157894737" y="348.2631578947368"/>
      <point x="206.52631578947367" y="417.86842105263156"/>
      <point x="280.63157894736844" y="417.86842105263156" type="curve" smooth="yes"/>
      <point x="312.10526315789474" y="417.86842105263156"/>
      <point x="343.63157894736844" y="404.6842105263158"/>
      <point x="376.7105263157895" y="378.7894736842105" type="curve"/>
      <point x="420.2894736842105" y="439.7368421052632" type="line"/>
      <point x="376.7631578947368" y="470.63157894736844"/>
      <point x="327.2894736842105" y="485.1842105263158"/>
    </contour>
    <contour>
      <point x="272.63157894736844" y="34.8421052631579" type="line"/>
      <point x="223.31578947368422" y="34.8421052631579" type="line"/>
      <point x="181.76315789473685" y="-119.84210526315789" type="line"/>
      <point x="257.44736842105266" y="-119.84210526315789" type="line"/>
    </contour>
    <contour>
      <point x="258.13157894736844" y="466.89473684210526" type="line"/>
      <point x="309.8157894736842" y="466.89473684210526" type="line"/>
      <point x="349.63157894736844" y="613.8421052631579" type="line"/>
      <point x="271.94736842105266" y="613.8421052631579" type="line"/>
    </contour>
  </outline>
</glyph>
<glyph name="sterling" format="2">
  <advance width="581.0"/>
  <unicode hex="00A3"/>
  <note>
sterling
</note>
  <outline>
    <contour>
      <point x="51.94736842105263" y="74.71052631578948" type="line"/>
      <point x="51.94736842105263" y="0.0" type="line"/>
      <point x="538.6842105263158" y="0.0" type="line"/>
      <point x="538.6842105263158" y="74.71052631578948" type="line"/>
      <point x="246.5" y="74.71052631578948" type="line"/>
      <point x="246.5" y="507.4736842105263" type="line"/>
      <point x="246.5" y="571.2631578947369"/>
      <point x="279.39473684210526" y="624.6842105263158"/>
      <point x="347.8157894736842" y="624.6842105263158" type="curve" smooth="yes"/>
      <point x="393.8157894736842" y="624.6842105263158"/>
      <point x="428.44736842105266" y="592.1315789473684"/>
      <point x="448.44736842105266" y="553.3157894736842" type="curve"/>
      <point x="527.6842105263158" y="597.5263157894736" type="line"/>
      <point x="488.0263157894737" y="660.921052631579"/>
      <point x="423.94736842105266" y="698.6578947368421"/>
      <point x="348.8157894736842" y="698.6578947368421" type="curve" smooth="yes"/>
      <point x="227.52631578947367" y="698.6578947368421"/>
      <point x="144.94736842105263" y="628.1052631578947"/>
      <point x="144.94736842105263" y="503.2631578947368" type="curve"/>
      <point x="144.94736842105263" y="74.71052631578948" type="line"/>
    </contour>
    <contour>
      <point x="68.76315789473685" y="295.42105263157896" type="line"/>
      <point x="399.7631578947368" y="295.42105263157896" type="line"/>
      <point x="409.7631578947368" y="361.10526315789474" type="line"/>
      <point x="78.76315789473685" y="361.10526315789474" type="line"/>
    </contour>
  </outline>
</glyph>
<glyph name="currency" format="2">
  <advance width="536.0"/>
  <unicode hex="00A4"/>
  <note>
currency
</note>
  <outline>
    <contour>
      <point x="266.0" y="458.92105263157896" type="curve" smooth="yes"/>
      <point x="222.73684210526315" y="458.92105263157896"/>
      <point x="183.28947368421052" y="443.6578947368421"/>
      <point x="151.47368421052633" y="418.39473684210526" type="curve"/>
      <point x="97.84210526315789" y="473.0263157894737" type="line"/>
      <point x="45.1578947368421" y="420.3421052631579" type="line"/>
      <point x="101.97368421052632" y="363.3421052631579" type="line"/>
      <point x="82.71052631578948" y="330.7105263157895"/>
      <point x="71.26315789473684" y="292.44736842105266"/>
      <point x="71.26315789473684" y="252.0" type="curve" smooth="yes"/>
      <point x="71.26315789473684" y="210.73684210526315"/>
      <point x="82.71052631578948" y="172.47368421052633"/>
      <point x="101.15789473684211" y="140.6578947368421" type="curve"/>
      <point x="45.1578947368421" y="84.84210526315789" type="line"/>
      <point x="97.84210526315789" y="32.1578947368421" type="line"/>
      <point x="150.47368421052633" y="84.78947368421052" type="line"/>
      <point x="183.10526315789474" y="59.526315789473685"/>
      <point x="222.73684210526315" y="44.26315789473684"/>
      <point x="266.0" y="44.26315789473684" type="curve" smooth="yes"/>
      <point x="308.44736842105266" y="44.26315789473684"/>
      <point x="348.89473684210526" y="58.71052631578947"/>
      <point x="380.7105263157895" y="84.78947368421052" type="curve"/>
      <point x="434.3421052631579" y="32.1578947368421" type="line"/>
      <point x="487.0263157894737" y="84.02631578947368" type="line"/>
      <point x="429.2105263157895" y="140.02631578947367" type="line"/>
      <point x="448.4736842105263" y="172.47368421052633"/>
      <point x="460.92105263157896" y="209.92105263157896"/>
      <point x="460.92105263157896" y="252.0" type="curve" smooth="yes"/>
      <point x="460.92105263157896" y="292.2631578947368"/>
      <point x="448.4736842105263" y="330.7105263157895"/>
      <point x="429.2105263157895" y="363.3421052631579" type="curve"/>
      <point x="487.0263157894737" y="420.3421052631579" type="line"/>
      <point x="434.3421052631579" y="473.0263157894737" type="line"/>
      <point x="379.7105263157895" y="419.2105263157895" type="line"/>
      <point x="347.89473684210526" y="444.4736842105263"/>
      <point x="308.44736842105266" y="458.92105263157896"/>
    </contour>
    <contour>
      <point x="266.1842105263158" y="393.6842105263158" type="curve" smooth="yes"/>
      <point x="335.07894736842104" y="393.6842105263158"/>
      <point x="384.6842105263158" y="330.1578947368421"/>
      <point x="384.6842105263158" y="252.3684210526316" type="curve" smooth="yes"/>
      <point x="384.6842105263158" y="163.81578947368422"/>
      <point x="327.42105263157896" y="109.5"/>
      <point x="266.0" y="109.5" type="curve" smooth="yes"/>
      <point x="206.1315789473684" y="109.5"/>
      <point x="148.31578947368422" y="165.0"/>
      <point x="148.31578947368422" y="252.0" type="curve" smooth="yes"/>
      <point x="148.31578947368422" y="331.5263157894737"/>
      <point x="198.47368421052633" y="393.6842105263158"/>
    </contour>
  </outline>
</glyph>
<glyph name="yen" format="2">
  <advance width="604.0"/>
  <unicode hex="00A5"/>
  <note>
yen
</note>
  <outline>
    <contour>
      <point x="153.31578947368422" y="698.6578947368421" type="line"/>
      <point x="37.94736842105263" y="698.6578947368421" type="line"/>
      <point x="254.39473684210526" y="324.94736842105266" type="line"/>
      <point x="254.39473684210526" y="0.0" type="line"/>
      <point x="356.39473684210526" y="0.0" type="line"/>
      <point x="356.39473684210526" y="324.94736842105266" type="line"/>
      <point x="566.8684210526316" y="698.6578947368421" type="line"/>
      <point x="473.7894736842105" y="698.6578947368421" type="line"/>
      <point x="318.07894736842104" y="417.6842105263158" type="line"/>
    </contour>
    <contour>
      <point x="74.42105263157895" y="389.0" type="line"/>
      <point x="63.86842105263158" y="323.3157894736842" type="line"/>
      <point x="534.1315789473684" y="323.3157894736842" type="line"/>
      <point x="544.6842105263158" y="389.0" type="line"/>
    </contour>
    <contour>
      <point x="74.60526315789474" y="252.26315789473685" type="line"/>
      <point x="63.86842105263158" y="186.57894736842104" type="line"/>
      <point x="534.1315789473684" y="186.57894736842104" type="line"/>
      <point x="544.8684210526316" y="252.26315789473685" type="line"/>
    </contour>
  </outline>
</glyph>
<glyph name="brokenbar" format="2">
  <advance width="238.0"/>
  <unicode hex="00A6"/>
  <note>
brokenbar
</note>
  <outline>
    <contour>
      <point x="81.42105263157895" y="742.5526315789474" type="line"/>
      <point x="81.42105263157895" y="392.8157894736842" type="line"/>
      <point x="154.94736842105263" y="392.8157894736842" type="line"/>
      <point x="154.94736842105263" y="742.5526315789474" type="line"/>
    </contour>
    <contour>
      <point x="81.42105263157895" y="233.73684210526315" type="line"/>
      <point x="81.42105263157895" y="-115.1842105263158" type="line"/>
      <point x="154.94736842105263" y="-115.1842105263158" type="line"/>
      <point x="154.94736842105263" y="233.73684210526315" type="line"/>
    </contour>
  </outline>
</glyph>
<glyph name="section" format="2">
  <advance width="496.4736842105263"/>
  <unicode hex="00A7"/>
  <note>
section
</note>
  <outline>
    <contour>
      <point x="48.578947368421055" y="329.39473684210526" type="curve" smooth="yes"/>
      <point x="48.578947368421055" y="138.6315789473684"/>
      <point x="313.44736842105266" y="137.02631578947367"/>
      <point x="313.44736842105266" y="2.6052631578947363" type="curve" smooth="yes"/>
      <point x="313.44736842105266" y="-41.921052631578945"/>
      <point x="269.55263157894734" y="-72.1842105263158"/>
      <point x="214.02631578947367" y="-72.1842105263158" type="curve" smooth="yes"/>
      <point x="176.57894736842104" y="-72.1842105263158"/>
      <point x="133.31578947368422" y="-58.36842105263158"/>
      <point x="94.42105263157895" y="-27.0" type="curve"/>
      <point x="63.026315789473685" y="-94.6842105263158" type="line"/>
      <point x="111.21052631578948" y="-125.6842105263158"/>
      <point x="163.76315789473685" y="-139.68421052631578"/>
      <point x="213.31578947368422" y="-139.68421052631578" type="curve" smooth="yes"/>
      <point x="317.3421052631579" y="-139.68421052631578"/>
      <point x="406.7368421052632" y="-77.39473684210526"/>
      <point x="406.7368421052632" y="18.07894736842105" type="curve" smooth="yes"/>
      <point x="406.7368421052632" y="65.3157894736842"/>
      <point x="390.0263157894737" y="101.65789473684211"/>
      <point x="364.6842105263158" y="130.55263157894737" type="curve"/>
      <point x="419.5" y="151.02631578947367"/>
      <point x="458.5" y="195.31578947368422"/>
      <point x="458.5" y="264.94736842105266" type="curve" smooth="yes"/>
      <point x="458.5" y="455.7105263157895"/>
      <point x="193.6315789473684" y="457.3157894736842"/>
      <point x="193.6315789473684" y="591.7368421052631" type="curve" smooth="yes"/>
      <point x="193.6315789473684" y="636.2631578947369"/>
      <point x="237.52631578947367" y="666.5263157894736"/>
      <point x="293.05263157894734" y="666.5263157894736" type="curve" smooth="yes"/>
      <point x="330.5" y="666.5263157894736"/>
      <point x="373.7631578947368" y="652.7105263157895"/>
      <point x="412.6578947368421" y="621.3421052631579" type="curve"/>
      <point x="444.05263157894734" y="689.0263157894736" type="line"/>
      <point x="395.86842105263156" y="720.0263157894736"/>
      <point x="343.3157894736842" y="734.0263157894736"/>
      <point x="293.7631578947368" y="734.0263157894736" type="curve" smooth="yes"/>
      <point x="189.73684210526315" y="734.0263157894736"/>
      <point x="100.34210526315789" y="671.7368421052631"/>
      <point x="100.34210526315789" y="576.2631578947369" type="curve" smooth="yes"/>
      <point x="100.34210526315789" y="529.0263157894736"/>
      <point x="117.05263157894737" y="492.6842105263158"/>
      <point x="142.39473684210526" y="463.7894736842105" type="curve"/>
      <point x="87.57894736842105" y="443.3157894736842"/>
      <point x="48.578947368421055" y="399.0263157894737"/>
    </contour>
    <contour>
      <point x="142.68421052631578" y="341.2368421052632" type="curve" smooth="yes"/>
      <point x="142.68421052631578" y="379.57894736842104"/>
      <point x="171.10526315789474" y="401.8421052631579"/>
      <point x="207.3421052631579" y="409.0263157894737" type="curve"/>
      <point x="281.05263157894734" y="360.5"/>
      <point x="364.39473684210526" y="326.60526315789474"/>
      <point x="364.39473684210526" y="253.10526315789474" type="curve" smooth="yes"/>
      <point x="364.39473684210526" y="214.76315789473685"/>
      <point x="335.9736842105263" y="192.5"/>
      <point x="299.7368421052632" y="185.31578947368422" type="curve"/>
      <point x="226.02631578947367" y="233.8421052631579"/>
      <point x="142.68421052631578" y="267.7368421052632"/>
    </contour>
  </outline>
</glyph>
<glyph name="dieresis" format="2">
  <advance width="279.86842105263156"/>
  <unicode hex="00A8"/>
  <note>
dieresis
</note>
  <anchor x="140.02631578947367" y="497.0" name="_top"/>
  <outline>
    <contour>
      <point x="115.39473684210526" y="656.078947368421" type="curve" smooth="yes"/>
      <point x="115.39473684210526" y="688.6315789473684"/>
      <point x="89.84210526315789" y="714.1842105263158"/>
      <point x="57.28947368421053" y="714.1842105263158" type="curve" smooth="yes"/>
      <point x="25.55263157894737" y="714.1842105263158"/>
      <point x="0.0" y="687.8157894736842"/>
      <point x="0.0" y="656.078947368421" type="curve" smooth="yes"/>
      <point x="0.0" y="624.3421052631579"/>
      <point x="25.55263157894737" y="597.9736842105264"/>
      <point x="57.28947368421053" y="597.9736842105264" type="curve" smooth="yes"/>
      <point x="89.02631578947368" y="597.9736842105264"/>
      <point x="115.39473684210526" y="624.3421052631579"/>
    </contour>
    <contour>
      <point x="279.86842105263156" y="656.078947368421" type="curve" smooth="yes"/>
      <point x="279.86842105263156" y="688.6315789473684"/>
      <point x="254.1315789473684" y="714.1842105263158"/>
      <point x="221.57894736842104" y="714.1842105263158" type="curve" smooth="yes"/>
      <point x="190.02631578947367" y="714.1842105263158"/>
      <point x="164.28947368421052" y="687.6315789473684"/>
      <point x="164.28947368421052" y="656.078947368421" type="curve" smooth="yes"/>
      <point x="164.28947368421052" y="624.5263157894736"/>
      <point x="190.02631578947367" y="597.9736842105264"/>
      <point x="221.57894736842104" y="597.9736842105264" type="curve" smooth="yes"/>
      <point x="253.31578947368422" y="597.9736842105264"/>
      <point x="279.86842105263156" y="624.3421052631579"/>
    </contour>
  </outline>
</glyph>
<glyph name="copyright" format="2">
  <advance width="634.7368421052631"/>
  <unicode hex="00A9"/>
  <note>
copyright
</note>
  <outline>
    <contour>
      <point x="590.2894736842105" y="250.0" type="curve" smooth="yes"/>
      <point x="590.2894736842105" y="399.55263157894734"/>
      <point x="466.92105263157896" y="522.921052631579"/>
      <point x="317.36842105263156" y="522.921052631579" type="curve" smooth="yes"/>
      <point x="166.81578947368422" y="522.921052631579"/>
      <point x="44.44736842105263" y="400.55263157894734"/>
      <point x="44.44736842105263" y="250.0" type="curve" smooth="yes"/>
      <point x="44.44736842105263" y="99.44736842105263"/>
      <point x="166.81578947368422" y="-22.92105263157895"/>
      <point x="317.36842105263156" y="-22.92105263157895" type="curve" smooth="yes"/>
      <point x="466.92105263157896" y="-22.92105263157895"/>
      <point x="590.2894736842105" y="100.44736842105263"/>
    </contour>
    <contour>
      <point x="551.1052631578947" y="250.0" type="curve" smooth="yes"/>
      <point x="551.1052631578947" y="121.44736842105263"/>
      <point x="445.92105263157896" y="16.263157894736842"/>
      <point x="317.36842105263156" y="16.263157894736842" type="curve" smooth="yes"/>
      <point x="188.81578947368422" y="16.263157894736842"/>
      <point x="83.63157894736842" y="121.44736842105263"/>
      <point x="83.63157894736842" y="250.0" type="curve" smooth="yes"/>
      <point x="83.63157894736842" y="378.55263157894734"/>
      <point x="188.81578947368422" y="483.7368421052632"/>
      <point x="317.36842105263156" y="483.7368421052632" type="curve" smooth="yes"/>
      <point x="445.92105263157896" y="483.7368421052632"/>
      <point x="551.1052631578947" y="378.55263157894734"/>
    </contour>
    <contour>
      <point x="435.0263157894737" y="117.71052631578948" type="curve"/>
      <point x="406.8157894736842" y="164.57894736842104" type="line"/>
      <point x="381.4736842105263" y="146.39473684210526"/>
      <point x="362.10526315789474" y="135.6578947368421"/>
      <point x="330.2105263157895" y="135.6578947368421" type="curve" smooth="yes"/>
      <point x="268.7631578947368" y="135.6578947368421"/>
      <point x="243.42105263157896" y="203.81578947368422"/>
      <point x="243.42105263157896" y="255.07894736842104" type="curve" smooth="yes"/>
      <point x="243.42105263157896" y="303.42105263157896"/>
      <point x="268.39473684210526" y="367.60526315789474"/>
      <point x="325.92105263157896" y="367.60526315789474" type="curve" smooth="yes"/>
      <point x="357.0" y="367.60526315789474"/>
      <point x="374.1842105263158" y="359.86842105263156"/>
      <point x="397.44736842105266" y="340.60526315789474" type="curve"/>
      <point x="430.0263157894737" y="381.92105263157896" type="line"/>
      <point x="402.2105263157895" y="400.2894736842105"/>
      <point x="366.7368421052632" y="415.2894736842105"/>
      <point x="333.7368421052632" y="415.2894736842105" type="curve" smooth="yes"/>
      <point x="236.81578947368422" y="415.2894736842105"/>
      <point x="176.52631578947367" y="346.10526315789474"/>
      <point x="176.52631578947367" y="250.81578947368422" type="curve" smooth="yes"/>
      <point x="176.52631578947367" y="159.97368421052633"/>
      <point x="229.89473684210526" y="86.52631578947368"/>
      <point x="325.55263157894734" y="86.52631578947368" type="curve" smooth="yes"/>
      <point x="371.92105263157896" y="86.52631578947368"/>
      <point x="395.6578947368421" y="95.89473684210526"/>
    </contour>
  </outline>
</glyph>
<glyph name="ordfeminine" format="2">
  <advance width="315.0"/>
  <unicode hex="00AA"/>
  <note>
ordfeminine
</note>
  <outline>
    <contour>
      <point x="308.86842105263156" y="409.2631578947368" type="curve"/>
      <point x="294.86842105263156" y="448.36842105263156" type="line"/>
      <point x="285.6842105263158" y="445.36842105263156"/>
      <point x="276.86842105263156" y="442.55263157894734"/>
      <point x="269.86842105263156" y="442.55263157894734" type="curve" smooth="yes"/>
      <point x="258.7631578947368" y="442.55263157894734"/>
      <point x="251.39473684210526" y="449.2894736842105"/>
      <point x="251.39473684210526" y="469.39473684210526" type="curve" smooth="yes"/>
      <point x="251.39473684210526" y="620.3684210526316" type="line" smooth="yes"/>
      <point x="251.39473684210526" y="690.0263157894736"/>
      <point x="215.0" y="729.8157894736842"/>
      <point x="144.81578947368422" y="729.8157894736842" type="curve" smooth="yes"/>
      <point x="97.0" y="729.8157894736842"/>
      <point x="55.078947368421055" y="715.0"/>
      <point x="17.526315789473685" y="684.7368421052631" type="curve"/>
      <point x="50.526315789473685" y="634.3684210526316" type="line"/>
      <point x="71.89473684210526" y="655.6315789473684"/>
      <point x="109.34210526315789" y="675.6315789473684"/>
      <point x="139.3421052631579" y="675.6315789473684" type="curve" smooth="yes"/>
      <point x="175.60526315789474" y="675.6315789473684"/>
      <point x="185.81578947368422" y="653.2105263157895"/>
      <point x="185.81578947368422" y="620.6578947368421" type="curve" smooth="yes"/>
      <point x="185.81578947368422" y="591.8157894736842" type="line"/>
      <point x="106.89473684210526" y="591.0"/>
      <point x="7.605263157894737" y="572.6315789473684"/>
      <point x="7.605263157894737" y="476.0" type="curve" smooth="yes"/>
      <point x="7.605263157894737" y="422.0"/>
      <point x="46.1578947368421" y="386.8157894736842"/>
      <point x="100.07894736842105" y="386.8157894736842" type="curve" smooth="yes"/>
      <point x="134.3684210526316" y="386.8157894736842"/>
      <point x="166.3684210526316" y="401.8157894736842"/>
      <point x="191.47368421052633" y="426.2894736842105" type="curve"/>
      <point x="200.10526315789474" y="399.36842105263156"/>
      <point x="219.6578947368421" y="388.0"/>
      <point x="243.1315789473684" y="388.0" type="curve" smooth="yes"/>
      <point x="263.94736842105266" y="388.0"/>
      <point x="287.13157894736844" y="396.63157894736844"/>
    </contour>
    <contour>
      <point x="185.81578947368422" y="537.0" type="curve"/>
      <point x="185.81578947368422" y="521.7105263157895" type="line" smooth="yes"/>
      <point x="185.81578947368422" y="485.3421052631579"/>
      <point x="157.26315789473685" y="444.55263157894734"/>
      <point x="117.8157894736842" y="444.55263157894734" type="curve" smooth="yes"/>
      <point x="96.89473684210526" y="444.55263157894734"/>
      <point x="76.55263157894737" y="457.2894736842105"/>
      <point x="76.55263157894737" y="479.10526315789474" type="curve" smooth="yes"/>
      <point x="76.55263157894737" y="534.6315789473684"/>
      <point x="144.73684210526315" y="537.0"/>
    </contour>
    <contour>
      <point x="28.157894736842106" y="329.1842105263158" type="line"/>
      <point x="28.157894736842106" y="277.7105263157895" type="line"/>
      <point x="270.8421052631579" y="277.7105263157895" type="line"/>
      <point x="270.8421052631579" y="329.1842105263158" type="line"/>
    </contour>
  </outline>
</glyph>
<glyph name="guillemetleft" format="2">
  <advance width="466.0"/>
  <unicode hex="00AB"/>
  <note>
guillemotleft
</note>
  <outline>
    <contour>
      <point x="51.5" y="335.2631578947368" type="line"/>
      <point x="200.97368421052633" y="170.97368421052633" type="line"/>
      <point x="263.92105263157896" y="180.3421052631579" type="line"/>
      <point x="144.3684210526316" y="335.2631578947368" type="line"/>
      <point x="260.92105263157896" y="488.36842105263156" type="line"/>
      <point x="196.97368421052633" y="499.92105263157896" type="line"/>
    </contour>
    <contour>
      <point x="203.18421052631578" y="335.2631578947368" type="line"/>
      <point x="353.4736842105263" y="170.97368421052633" type="line"/>
      <point x="415.7894736842105" y="180.3421052631579" type="line"/>
      <point x="296.86842105263156" y="335.2631578947368" type="line"/>
      <point x="413.60526315789474" y="488.36842105263156" type="line"/>
      <point x="349.4736842105263" y="499.92105263157896" type="line"/>
    </contour>
  </outline>
</glyph>
<glyph name="logicalnot" format="2">
  <advance width="638.0"/>
  <unicode hex="00AC"/>
  <note>
logicalnot
</note>
  <outline>
    <contour>
      <point x="499.94736842105266" y="276.7894736842105" type="line"/>
      <point x="499.94736842105266" y="87.15789473684211" type="line"/>
      <point x="565.5526315789474" y="87.15789473684211" type="line"/>
      <point x="565.5526315789474" y="341.0263157894737" type="line"/>
      <point x="71.63157894736842" y="341.0263157894737" type="line"/>
      <point x="71.63157894736842" y="276.7894736842105" type="line"/>
    </contour>
  </outline>
</glyph>
<glyph name="registered" format="2">
  <advance width="466.63157894736844"/>
  <unicode hex="00AE"/>
  <note>
registered
</note>
  <outline>
    <contour>
      <point x="434.0263157894737" y="604.2894736842105" type="curve" smooth="yes"/>
      <point x="434.0263157894737" y="715.3947368421053"/>
      <point x="343.10526315789474" y="804.6842105263158"/>
      <point x="232.81578947368422" y="804.6842105263158" type="curve" smooth="yes"/>
      <point x="121.71052631578948" y="804.6842105263158"/>
      <point x="32.60526315789474" y="715.3947368421053"/>
      <point x="32.60526315789474" y="604.2894736842105" type="curve" smooth="yes"/>
      <point x="32.60526315789474" y="493.1842105263158"/>
      <point x="121.71052631578948" y="403.89473684210526"/>
      <point x="232.81578947368422" y="403.89473684210526" type="curve" smooth="yes"/>
      <point x="343.10526315789474" y="403.89473684210526"/>
      <point x="434.0263157894737" y="493.1842105263158"/>
    </contour>
    <contour>
      <point x="400.6578947368421" y="604.2894736842105" type="curve" smooth="yes"/>
      <point x="400.6578947368421" y="512.1842105263158"/>
      <point x="324.92105263157896" y="437.44736842105266"/>
      <point x="232.81578947368422" y="437.44736842105266" type="curve" smooth="yes"/>
      <point x="140.89473684210526" y="437.44736842105266"/>
      <point x="65.97368421052632" y="512.1842105263158"/>
      <point x="65.97368421052632" y="604.2894736842105" type="curve" smooth="yes"/>
      <point x="65.97368421052632" y="696.3947368421053"/>
      <point x="140.89473684210526" y="771.1315789473684"/>
      <point x="232.81578947368422" y="771.1315789473684" type="curve" smooth="yes"/>
      <point x="324.92105263157896" y="771.1315789473684"/>
      <point x="400.6578947368421" y="696.2105263157895"/>
    </contour>
    <contour>
      <point x="151.07894736842104" y="719.7631578947369" type="line"/>
      <point x="151.07894736842104" y="492.92105263157896" type="line"/>
      <point x="202.92105263157896" y="492.92105263157896" type="line"/>
      <point x="202.92105263157896" y="588.921052631579" type="line"/>
      <point x="219.44736842105263" y="588.921052631579" type="line"/>
      <point x="284.63157894736844" y="492.92105263157896" type="line"/>
      <point x="346.6578947368421" y="492.92105263157896" type="line"/>
      <point x="273.4736842105263" y="597.4736842105264" type="line"/>
      <point x="298.10526315789474" y="606.6578947368421"/>
      <point x="318.92105263157896" y="626.8421052631579"/>
      <point x="318.92105263157896" y="654.8421052631579" type="curve" smooth="yes"/>
      <point x="318.92105263157896" y="706.578947368421"/>
      <point x="282.1842105263158" y="719.7631578947369"/>
      <point x="240.0" y="719.7631578947369" type="curve" smooth="yes"/>
    </contour>
    <contour>
      <point x="202.92105263157896" y="680.921052631579" type="line"/>
      <point x="233.0" y="680.921052631579" type="line" smooth="yes"/>
      <point x="252.0" y="680.921052631579"/>
      <point x="267.07894736842104" y="673.1052631578947"/>
      <point x="267.07894736842104" y="656.8421052631579" type="curve" smooth="yes"/>
      <point x="267.07894736842104" y="634.7631578947369"/>
      <point x="250.81578947368422" y="627.7631578947369"/>
      <point x="226.0" y="627.7631578947369" type="curve" smooth="yes"/>
      <point x="202.92105263157896" y="627.7631578947369" type="line"/>
    </contour>
  </outline>
</glyph>
<glyph name="macron" format="2">
  <advance width="302.3421052631579"/>
  <unicode hex="00AF"/>
  <note>
macron
</note>
  <anchor x="152.07894736842104" y="497.0" name="_top"/>
  <outline>
    <contour>
      <point x="0.0" y="689.0" type="line"/>
      <point x="0.0" y="623.1578947368421" type="line"/>
      <point x="302.3421052631579" y="623.1578947368421" type="line"/>
      <point x="302.3421052631579" y="689.0" type="line"/>
    </contour>
  </outline>
</glyph>
<glyph name="degree" format="2">
  <advance width="387.8157894736842"/>
  <unicode hex="00B0"/>
  <note>
degree
</note>
  <outline>
    <contour>
      <point x="193.81578947368422" y="742.078947368421" type="curve" smooth="yes"/>
      <point x="111.36842105263158" y="742.078947368421"/>
      <point x="44.73684210526316" y="675.4473684210526"/>
      <point x="44.73684210526316" y="593.0" type="curve" smooth="yes"/>
      <point x="44.73684210526316" y="510.55263157894734"/>
      <point x="111.36842105263158" y="443.92105263157896"/>
      <point x="193.81578947368422" y="443.92105263157896" type="curve" smooth="yes"/>
      <point x="276.44736842105266" y="443.92105263157896"/>
      <point x="343.07894736842104" y="510.36842105263156"/>
      <point x="343.07894736842104" y="593.0" type="curve" smooth="yes"/>
      <point x="343.07894736842104" y="675.6315789473684"/>
      <point x="276.2631578947368" y="742.078947368421"/>
    </contour>
    <contour>
      <point x="193.81578947368422" y="681.3421052631579" type="curve" smooth="yes"/>
      <point x="242.71052631578948" y="681.3421052631579"/>
      <point x="279.3421052631579" y="641.078947368421"/>
      <point x="279.3421052631579" y="593.0" type="curve" smooth="yes"/>
      <point x="279.3421052631579" y="544.921052631579"/>
      <point x="242.89473684210526" y="504.6578947368421"/>
      <point x="193.81578947368422" y="504.6578947368421" type="curve" smooth="yes"/>
      <point x="144.73684210526315" y="504.6578947368421"/>
      <point x="107.65789473684211" y="544.921052631579"/>
      <point x="107.65789473684211" y="593.0" type="curve" smooth="yes"/>
      <point x="107.65789473684211" y="641.078947368421"/>
      <point x="144.92105263157896" y="681.3421052631579"/>
    </contour>
  </outline>
</glyph>
<glyph name="plusminus" format="2">
  <advance width="632.0"/>
  <unicode hex="00B1"/>
  <note>
plusminus
</note>
  <outline>
    <contour>
      <point x="353.4736842105263" y="101.23684210526315" type="line"/>
      <point x="353.4736842105263" y="262.92105263157896" type="line"/>
      <point x="566.6315789473684" y="262.92105263157896" type="line"/>
      <point x="566.6315789473684" y="335.6842105263158" type="line"/>
      <point x="353.4736842105263" y="335.6842105263158" type="line"/>
      <point x="353.4736842105263" y="496.1842105263158" type="line"/>
      <point x="280.1578947368421" y="496.1842105263158" type="line"/>
      <point x="280.1578947368421" y="335.5" type="line"/>
      <point x="67.8157894736842" y="335.5" type="line"/>
      <point x="67.8157894736842" y="262.7368421052632" type="line"/>
      <point x="280.1578947368421" y="262.7368421052632" type="line"/>
      <point x="280.1578947368421" y="101.23684210526315" type="line"/>
    </contour>
    <contour>
      <point x="67.8157894736842" y="72.5" type="line"/>
      <point x="67.8157894736842" y="-0.631578947368421" type="line"/>
      <point x="566.6315789473684" y="-0.631578947368421" type="line"/>
      <point x="566.6315789473684" y="72.5" type="line"/>
    </contour>
  </outline>
</glyph>
<glyph name="twosuperior" format="2">
  <advance width="455.0"/>
  <unicode hex="00B2"/>
  <note>
uni00B2
</note>
  <outline>
    <contour>
      <point x="55.23684210526316" y="475.13157894736844" type="curve"/>
      <point x="55.23684210526316" y="434.7368421052632" type="line"/>
      <point x="389.55263157894734" y="434.7368421052632" type="line"/>
      <point x="410.0263157894737" y="507.7105263157895" type="line"/>
      <point x="176.89473684210526" y="507.7105263157895" type="line" smooth="yes"/>
      <point x="176.89473684210526" y="507.7105263157895"/>
      <point x="395.4736842105263" y="652.2894736842105"/>
      <point x="395.4736842105263" y="801.5526315789474" type="curve" smooth="yes"/>
      <point x="395.4736842105263" y="863.3947368421053"/>
      <point x="356.07894736842104" y="929.2894736842105"/>
      <point x="246.26315789473685" y="929.2894736842105" type="curve" smooth="yes"/>
      <point x="136.1578947368421" y="929.2894736842105"/>
      <point x="69.3157894736842" y="864.0"/>
      <point x="69.3157894736842" y="864.0" type="curve"/>
      <point x="103.52631578947368" y="813.5" type="line"/>
      <point x="103.52631578947368" y="813.5"/>
      <point x="162.6315789473684" y="867.421052631579"/>
      <point x="229.1578947368421" y="867.421052631579" type="curve" smooth="yes"/>
      <point x="276.7631578947368" y="867.421052631579"/>
      <point x="305.2105263157895" y="836.8947368421053"/>
      <point x="305.2105263157895" y="794.8157894736842" type="curve" smooth="yes"/>
      <point x="305.2105263157895" y="669.2105263157895"/>
      <point x="55.23684210526316" y="475.13157894736844"/>
    </contour>
  </outline>
</glyph>
<glyph name="threesuperior" format="2">
  <advance width="455.0"/>
  <unicode hex="00B3"/>
  <note>
uni00B3
</note>
  <outline>
    <contour>
      <point x="60.23684210526316" y="477.6842105263158" type="curve"/>
      <point x="71.15789473684211" y="423.36842105263156" type="line"/>
      <point x="338.5" y="432.7368421052632"/>
      <point x="396.2105263157895" y="543.7631578947369"/>
      <point x="396.2105263157895" y="615.4736842105264" type="curve" smooth="yes"/>
      <point x="396.2105263157895" y="682.8421052631579"/>
      <point x="344.05263157894734" y="722.1052631578947"/>
      <point x="281.05263157894734" y="729.8421052631579" type="curve"/>
      <point x="326.3421052631579" y="747.0263157894736"/>
      <point x="374.2105263157895" y="781.8421052631579"/>
      <point x="374.2105263157895" y="838.5526315789474" type="curve" smooth="yes"/>
      <point x="374.2105263157895" y="909.2894736842105"/>
      <point x="304.92105263157896" y="929.2894736842105"/>
      <point x="243.6315789473684" y="929.2894736842105" type="curve" smooth="yes"/>
      <point x="183.71052631578948" y="929.2894736842105"/>
      <point x="109.97368421052632" y="902.5526315789474"/>
      <point x="64.42105263157895" y="866.1842105263158" type="curve"/>
      <point x="98.44736842105263" y="817.421052631579" type="line"/>
      <point x="129.6315789473684" y="842.6052631578947"/>
      <point x="182.6315789473684" y="867.421052631579"/>
      <point x="225.18421052631578" y="867.421052631579" type="curve" smooth="yes"/>
      <point x="265.05263157894734" y="867.421052631579"/>
      <point x="291.3157894736842" y="851.9736842105264"/>
      <point x="291.3157894736842" y="822.6315789473684" type="curve" smooth="yes"/>
      <point x="291.3157894736842" y="760.8157894736842"/>
      <point x="209.23684210526315" y="735.7368421052631"/>
      <point x="154.42105263157896" y="724.7368421052631" type="curve"/>
      <point x="162.97368421052633" y="675.7105263157895" type="line"/>
      <point x="162.97368421052633" y="675.7105263157895"/>
      <point x="178.78947368421052" y="677.7105263157895"/>
      <point x="197.97368421052633" y="677.7105263157895" type="curve" smooth="yes"/>
      <point x="246.94736842105263" y="677.7105263157895"/>
      <point x="309.94736842105266" y="670.4473684210526"/>
      <point x="309.94736842105266" y="607.2894736842105" type="curve" smooth="yes"/>
      <point x="309.94736842105266" y="536.578947368421"/>
      <point x="222.5" y="485.6842105263158"/>
    </contour>
  </outline>
</glyph>
<glyph name="acute" format="2">
  <advance width="281.0"/>
  <unicode hex="00B4"/>
  <note>
acute
</note>
  <anchor x="74.84210526315789" y="497.0" name="_top"/>
  <outline>
    <contour>
      <point x="129.76315789473685" y="733.3684210526316" type="line"/>
      <point x="31.36842105263158" y="578.9736842105264" type="line"/>
      <point x="113.97368421052632" y="578.9736842105264" type="line"/>
      <point x="256.0" y="733.3684210526316" type="line"/>
    </contour>
  </outline>
</glyph>
<glyph name="micro" format="2">
  <advance width="553.8947368421053"/>
  <unicode hex="00B5"/>
  <note>
uni00B5
</note>
  <outline>
    <contour>
      <point x="555.2368421052631" y="20.63157894736842" type="curve"/>
      <point x="537.5" y="76.5" type="line"/>
      <point x="530.6578947368421" y="74.13157894736842"/>
      <point x="494.7105263157895" y="62.868421052631575"/>
      <point x="490.3157894736842" y="62.868421052631575" type="curve" smooth="yes"/>
      <point x="470.2105263157895" y="62.868421052631575"/>
      <point x="467.7631578947368" y="80.73684210526315"/>
      <point x="467.7631578947368" y="103.44736842105263" type="curve" smooth="yes"/>
      <point x="467.7631578947368" y="497.1842105263158" type="line"/>
      <point x="365.7631578947368" y="497.1842105263158" type="line"/>
      <point x="366.7631578947368" y="492.1842105263158"/>
      <point x="378.57894736842104" y="441.2894736842105"/>
      <point x="378.57894736842104" y="439.2894736842105" type="curve" smooth="yes"/>
      <point x="378.57894736842104" y="127.73684210526316" type="line"/>
      <point x="346.5" y="95.47368421052632"/>
      <point x="294.1842105263158" y="65.23684210526315"/>
      <point x="247.47368421052633" y="65.23684210526315" type="curve" smooth="yes"/>
      <point x="175.42105263157896" y="65.23684210526315"/>
      <point x="167.60526315789474" y="133.47368421052633"/>
      <point x="167.60526315789474" y="190.26315789473685" type="curve" smooth="yes"/>
      <point x="167.60526315789474" y="497.1842105263158" type="line"/>
      <point x="65.78947368421052" y="497.1842105263158" type="line"/>
      <point x="66.78947368421052" y="492.1842105263158"/>
      <point x="78.42105263157895" y="441.2894736842105"/>
      <point x="78.42105263157895" y="439.2894736842105" type="curve" smooth="yes"/>
      <point x="78.42105263157895" y="-186.81578947368422" type="line"/>
      <point x="170.60526315789474" y="-186.81578947368422" type="line"/>
      <point x="170.60526315789474" y="1.736842105263158" type="line"/>
      <point x="191.60526315789474" y="-7.447368421052632"/>
      <point x="213.42105263157896" y="-12.447368421052632"/>
      <point x="236.42105263157896" y="-12.447368421052632" type="curve" smooth="yes"/>
      <point x="288.3157894736842" y="-12.447368421052632"/>
      <point x="347.55263157894734" y="23.18421052631579"/>
      <point x="383.89473684210526" y="58.81578947368421" type="curve"/>
      <point x="390.44736842105266" y="20.81578947368421"/>
      <point x="414.36842105263156" y="-8.81578947368421"/>
      <point x="455.36842105263156" y="-8.81578947368421" type="curve" smooth="yes"/>
      <point x="488.4736842105263" y="-8.81578947368421"/>
      <point x="524.7631578947369" y="9.81578947368421"/>
    </contour>
  </outline>
</glyph>
<glyph name="paragraph" format="2">
  <advance width="503.6842105263158"/>
  <unicode hex="00B6"/>
  <note>
paragraph
</note>
  <outline>
    <contour>
      <point x="156.68421052631578" y="-109.63157894736842" type="curve"/>
      <point x="146.68421052631578" y="-154.0" type="line"/>
      <point x="204.68421052631578" y="-173.0"/>
      <point x="258.63157894736844" y="-148.0"/>
      <point x="277.63157894736844" y="-99.0" type="curve"/>
      <point x="345.63157894736844" y="-110.0"/>
      <point x="402.6842105263158" y="-57.0"/>
      <point x="402.6842105263158" y="10.0" type="curve" smooth="yes"/>
      <point x="402.6842105263158" y="661.2368421052631" type="line"/>
      <point x="458.6842105263158" y="661.2368421052631" type="line"/>
      <point x="458.6842105263158" y="718.0" type="line"/>
      <point x="263.0" y="718.0" type="line" smooth="yes"/>
      <point x="137.0" y="718.0"/>
      <point x="40.0" y="656.0"/>
      <point x="40.0" y="512.6315789473684" type="curve" smooth="yes"/>
      <point x="40.0" y="397.2631578947368"/>
      <point x="125.0" y="317.2631578947368"/>
      <point x="232.68421052631578" y="317.2631578947368" type="curve"/>
      <point x="232.68421052631578" y="-45.1578947368421" type="line" smooth="yes"/>
      <point x="232.68421052631578" y="-87.15789473684211"/>
      <point x="204.68421052631578" y="-121.07894736842105"/>
    </contour>
    <contour>
      <point x="289.5263157894737" y="661.2368421052631" type="line"/>
      <point x="346.8421052631579" y="661.2368421052631" type="line"/>
      <point x="346.8421052631579" y="11.842105263157894" type="line" smooth="yes"/>
      <point x="346.8421052631579" y="-18.157894736842106"/>
      <point x="327.5263157894737" y="-45.1578947368421"/>
      <point x="289.5263157894737" y="-45.1578947368421" type="curve"/>
    </contour>
  </outline>
</glyph>
